<svg width="57" height="57" viewBox="0 0 57 57" fill="none" xmlns="http://www.w3.org/2000/svg">
<path d="M45.0243 30.4148C47.0767 30.3222 47.4613 26.8715 45.4605 26.5168C47.4884 25.9761 47.3076 22.5517 45.2567 22.6485C47.188 21.679 46.4476 18.405 44.4193 18.9496C46.184 17.5868 44.9105 14.5805 42.9787 15.5533C44.5134 13.8465 42.7525 11.2157 40.9897 12.5831C42.2383 10.5936 40.0536 8.43639 38.5218 10.1459C39.4397 7.94573 36.9106 6.3382 35.6645 8.32997C36.2187 5.99874 33.4365 4.99906 32.5213 7.20065C32.6914 4.82219 29.7563 4.46651 29.2058 6.79909C28.9857 4.45982 26.0042 4.76133 25.8375 7.13975C25.2356 4.92402 22.3151 5.87165 22.5366 8.20998C21.5746 6.19829 18.821 7.75765 19.4261 9.97381C18.1379 8.23809 15.6503 10.3529 16.6161 12.3627C15.0491 10.9663 12.9177 13.56 14.2087 15.2928C12.4191 14.2874 10.7212 17.2651 12.2886 18.6582C10.3412 18.0775 9.13761 21.3344 10.9291 22.3375C8.89454 22.2035 8.22911 25.6202 10.1774 26.1972C8.12775 26.5152 8.02558 29.9681 10.061 30.0979C8.07256 30.8561 8.53501 34.223 10.5837 33.8985C8.72711 35.0701 9.73867 38.2246 11.7266 37.4622C10.069 39.0043 11.592 41.8349 13.4485 40.6619C12.05 42.5187 14.0323 44.9229 15.6874 43.3776C14.5985 45.4823 16.9662 47.3731 18.3619 45.514C17.6222 47.79 20.29 49.0996 21.3757 46.993C21.0118 49.3589 23.8855 50.0392 24.6195 47.7618C24.6445 50.1314 27.6163 50.1585 27.9769 47.7928C28.3896 50.0803 31.3541 49.4532 31.3254 47.0836C32.1114 49.2071 34.9615 47.9481 34.545 45.6615C35.6754 47.5438 38.308 45.6979 37.5188 43.5764C38.953 45.1498 41.2728 42.785 40.1397 40.9046C41.8258 42.1119 43.7488 39.3127 42.3123 37.7425C44.1886 38.5402 45.6448 35.4081 43.9587 34.2045C45.9642 34.56 46.9029 31.2082 45.0243 30.4148Z" fill="#FFB3F4"/>
<path d="M45.0268 30.6197C45.8696 30.5723 46.513 30.0097 46.809 29.2385C47.0779 28.5352 47.0589 27.645 46.6113 27.0165C46.3502 26.6494 45.956 26.3989 45.5128 26.3184L45.5175 26.7141C46.3255 26.4893 46.8877 25.8073 47.045 24.9943C47.1871 24.2608 47.0377 23.3992 46.47 22.873C46.1397 22.5652 45.7026 22.4271 45.2543 22.4432L45.3624 22.8246C46.1181 22.4352 46.562 21.6594 46.5846 20.8186C46.6063 20.088 46.3031 19.2819 45.6508 18.8967C45.2588 18.6642 44.7978 18.6408 44.3633 18.7524L44.5259 19.1238C45.2014 18.5907 45.5604 17.7744 45.4419 16.9138C45.3422 16.1874 44.9113 15.4678 44.1851 15.2291C43.7442 15.0836 43.2823 15.1768 42.8754 15.3763L43.1279 15.6953C43.8315 14.8935 44.0095 13.6976 43.3869 12.7912C43.1319 12.4209 42.7531 12.1192 42.3044 12.0289C41.794 11.9262 41.2939 12.0978 40.8864 12.4061L41.1697 12.6827C41.7191 11.7852 41.7196 10.576 40.9283 9.8135C40.6059 9.50279 40.17 9.30916 39.7179 9.31875C39.1888 9.33251 38.7265 9.61944 38.3768 10.0007L38.7221 10.1963C39.0373 9.41926 38.9929 8.51672 38.4376 7.85875C37.9851 7.3223 37.2265 7.06951 36.5545 7.3118C36.0949 7.47781 35.7476 7.82124 35.4878 8.22663L35.863 8.38037C36.0431 7.58997 35.9008 6.6998 35.2388 6.16958C34.9642 5.94597 34.6285 5.81024 34.2757 5.78007C33.9228 5.74989 33.569 5.82666 33.2603 6.00039C32.8343 6.24348 32.5326 6.6531 32.3428 7.09779L32.7267 7.19683C32.776 6.40285 32.4739 5.56172 31.7228 5.19637C31.0581 4.87339 30.2738 5.00734 29.7232 5.48759C29.3509 5.81172 29.1258 6.27176 29.0082 6.74546L29.4116 6.79527C29.3303 6.00285 28.9092 5.24574 28.0918 5.03753C27.37 4.85477 26.5999 5.16589 26.1438 5.74116C25.8252 6.14491 25.6733 6.6335 25.6331 7.13988L26.0356 7.08048C25.8212 6.32045 25.252 5.70325 24.4261 5.67855C23.6791 5.65664 22.9823 6.12464 22.6244 6.76127C22.3842 7.20455 22.283 7.70991 22.3341 8.2115L22.7151 8.10335C22.3631 7.38789 21.6691 6.95372 20.8659 7.11029C20.1209 7.25544 19.527 7.86035 19.2734 8.55596C19.1008 9.02844 19.1046 9.54457 19.2312 10.0275L19.6027 9.86534C19.1186 9.22985 18.3628 8.94155 17.6026 9.26049C16.894 9.55828 16.3683 10.2501 16.2336 11.0036C16.1485 11.5006 16.221 12.0118 16.4409 12.4656L16.7599 12.2131C16.1596 11.6919 15.3592 11.6142 14.6897 12.0604C14.0359 12.4961 13.6237 13.2725 13.6069 14.0553C13.5991 14.5367 13.7489 15.0075 14.0336 15.3958L14.3102 15.1124C12.721 14.2446 11.262 16.0751 11.4929 17.5929C11.5651 18.0593 11.7959 18.4865 12.1462 18.8027L12.3418 18.4574C10.6527 17.9763 9.44977 20.0319 9.96882 21.4888C10.1228 21.9226 10.4281 22.2863 10.8285 22.5133L10.9276 22.1299C9.22443 22.0377 8.31049 24.2201 9.08505 25.5793C9.31494 25.9739 9.68763 26.2652 10.1261 26.3929L10.1214 25.9977C8.48377 26.2701 7.82768 28.5517 8.89631 29.7571C9.19717 30.0965 9.61876 30.267 10.0644 30.3004L10.005 29.8983C9.2037 30.2136 8.69608 30.9318 8.59979 31.7819C8.51517 32.5137 8.74111 33.3418 9.34678 33.8031C9.52292 33.9336 9.72346 34.0274 9.93651 34.079C10.1496 34.1305 10.3708 34.1388 10.5871 34.1034L10.479 33.7224C10.1289 33.9475 9.84498 34.2616 9.65612 34.6324C9.46727 35.0032 9.38029 35.4176 9.40408 35.8331C9.44345 36.5527 9.80088 37.3311 10.4874 37.6426C10.9031 37.8314 11.3612 37.8156 11.7841 37.6589L11.5807 37.3183C11.2737 37.6051 11.0472 37.9673 10.9236 38.3688C10.8 38.7703 10.7836 39.1972 10.8762 39.607C11.0347 40.2972 11.5458 40.9702 12.2699 41.1118C12.7232 41.1998 13.1683 41.0741 13.5547 40.8352L13.2714 40.5585C12.6381 41.4197 12.5866 42.6202 13.2947 43.4569C13.5811 43.8015 13.9906 44.021 14.4361 44.0687C14.9673 44.1179 15.4525 43.87 15.8352 43.5191L15.5103 43.2747C15.0412 44.2053 15.1026 45.4058 15.9671 46.09C16.3158 46.3659 16.76 46.5174 17.206 46.464C17.7424 46.3997 18.1866 46.0762 18.5097 45.6551L18.1648 45.4594C17.9184 46.2432 18.0098 47.1386 18.6157 47.7372C19.1267 48.2445 19.9019 48.4014 20.5591 48.1009C21.0033 47.8982 21.3306 47.5177 21.5552 47.0922L21.18 46.9385C21.0623 47.7533 21.2718 48.6091 21.9928 49.0821C22.5944 49.4768 23.4075 49.4452 23.9868 49.0243C24.3991 48.7249 24.6618 48.2896 24.8209 47.8117L24.4175 47.7619C24.4332 48.5696 24.8024 49.3567 25.5955 49.6515C26.2748 49.9043 27.0534 49.6785 27.5499 49.1676C27.8989 48.8079 28.1 48.3327 28.1782 47.8422L27.7825 47.8469C27.9293 48.6185 28.4434 49.3003 29.2595 49.4063C30.0032 49.5034 30.7209 49.1121 31.1347 48.5042C31.4186 48.0864 31.5353 47.5791 31.5335 47.0789L31.131 47.1383C31.4104 47.87 32.0286 48.4381 32.8529 48.3694C33.6133 48.3058 34.2818 47.777 34.5868 47.0887C34.7963 46.6158 34.8323 46.109 34.7451 45.6032L34.3736 45.7654C34.7872 46.4367 35.515 46.8074 36.2944 46.5718C37.0273 46.3503 37.5936 45.7018 37.7921 44.9728C37.9177 44.4919 37.8926 43.9841 37.7202 43.518L37.38 43.7218C37.9279 44.3075 38.724 44.4558 39.4325 44.0684C40.1118 43.6977 40.5604 42.9564 40.6386 42.1952C40.6838 41.7076 40.572 41.2184 40.3195 40.7989L40.0429 41.0822C41.5342 42.1206 43.1443 40.3952 43.0189 38.8761C42.9791 38.3991 42.7828 37.9486 42.4604 37.5947L42.2155 37.9201C43.8832 38.6036 45.2295 36.6708 44.8427 35.1484C44.7235 34.6937 44.4475 34.2958 44.0635 34.025L43.9097 34.4002C45.6283 34.6872 46.702 32.5972 46.0557 31.1544C45.8706 30.7423 45.5381 30.4144 45.1235 30.2349C44.8833 30.1299 44.6789 30.4861 44.9205 30.5915C46.1755 31.1394 46.0651 33.0365 45.0349 33.767C44.8887 33.8716 44.7232 33.9462 44.548 33.9864C44.3728 34.0266 44.1914 34.0317 44.0142 34.0013C43.7804 33.9616 43.6717 34.2387 43.8605 34.3765C44.5666 34.8917 44.6468 35.8652 44.2973 36.6161C43.9629 37.3341 43.2242 37.889 42.417 37.5579C42.2064 37.4713 42.0085 37.6995 42.1721 37.8828C42.7686 38.5515 42.7172 39.5224 42.2338 40.2394C42.027 40.5461 41.724 40.8148 41.3669 40.9283C40.9676 41.0553 40.5818 40.9549 40.2444 40.72C40.0684 40.5975 39.8692 40.8378 39.9677 41.0033C40.4179 41.7703 40.2777 42.732 39.6646 43.3693C39.4138 43.6299 39.0807 43.8378 38.7143 43.8735C38.2989 43.9134 37.9438 43.7193 37.6663 43.4225C37.5292 43.2762 37.2567 43.4335 37.3262 43.6263C37.6226 44.4517 37.394 45.399 36.667 45.9257C36.3802 46.1326 36.0238 46.2665 35.6658 46.2241C35.2508 46.1745 34.9375 45.8926 34.7244 45.5488C34.5954 45.3394 34.3134 45.4912 34.3529 45.711C34.4988 46.5573 34.1264 47.4629 33.3192 47.8281C33.0072 47.969 32.6427 48.0079 32.3174 47.8867C31.9274 47.7439 31.6717 47.3946 31.5277 47.0178C31.4482 46.8097 31.1246 46.8359 31.1256 47.0772C31.1277 47.7613 30.8492 48.44 30.2402 48.7958C29.7656 49.0731 29.1372 49.0946 28.6993 48.7293C28.3967 48.4757 28.2495 48.106 28.1773 47.7269C28.1404 47.5318 27.8133 47.5348 27.7816 47.7316C27.6755 48.3863 27.322 49.0336 26.6596 49.259C26.1293 49.4398 25.5279 49.3014 25.1726 48.8566C24.9234 48.5441 24.8374 48.1429 24.8281 47.7514C24.8252 47.513 24.4982 47.486 24.4243 47.7021C24.1719 48.4597 23.4918 49.1133 22.6405 48.9125C21.7892 48.7117 21.4609 47.834 21.5774 47.0373C21.608 46.8237 21.3176 46.6615 21.2022 46.8836C20.8298 47.5881 20.0635 48.1012 19.2742 47.6999C18.4708 47.2941 18.3158 46.3495 18.5654 45.5559C18.6239 45.3686 18.3464 45.1955 18.2201 45.3603C17.9659 45.69 17.631 45.9824 17.2047 46.0449C17.0308 46.0672 16.8541 46.0535 16.6856 46.0049C16.5171 45.9563 16.3604 45.8736 16.225 45.7621C15.5258 45.2001 15.4899 44.2247 15.871 43.4687C15.8941 43.4254 15.9009 43.3754 15.8903 43.3275C15.8796 43.2796 15.8522 43.2371 15.8131 43.2076C15.7739 43.1782 15.7254 43.1636 15.6765 43.1667C15.6276 43.1698 15.5813 43.1902 15.5461 43.2243C15.2437 43.4995 14.855 43.7016 14.4353 43.6496C14.088 43.6071 13.7789 43.3994 13.5638 43.1285C13.0014 42.4164 13.1182 41.4513 13.6322 40.7526C13.758 40.5817 13.5119 40.3746 13.3488 40.476C13 40.6911 12.5925 40.8032 12.195 40.6568C11.8598 40.5338 11.6055 40.2582 11.4426 39.9479C11.0253 39.1544 11.244 38.2016 11.879 37.5976C12.023 37.4605 11.8694 37.1851 11.6757 37.257C11.2956 37.3978 10.8949 37.4142 10.5409 37.1963C10.2268 37.0031 10.0184 36.6681 9.91068 36.3222C9.64815 35.4787 9.94603 34.5483 10.6954 34.0666C10.8496 33.9668 10.8025 33.6542 10.5873 33.6857C9.12204 33.8987 8.65742 32.0752 9.26794 31.023C9.46183 30.6879 9.7636 30.4285 10.124 30.2871C10.1704 30.2721 10.21 30.2411 10.2358 30.1997C10.2616 30.1582 10.2718 30.109 10.2647 30.0607C10.2575 30.0124 10.2335 29.9682 10.1969 29.936C10.1603 29.9037 10.1134 29.8855 10.0646 29.8846C8.63846 29.7774 8.49619 27.8232 9.26445 26.9273C9.51374 26.6361 9.8592 26.4441 10.2381 26.386C10.4519 26.3508 10.409 26.0447 10.2334 25.9908C8.89321 25.5769 8.98439 23.632 9.92392 22.8526C10.2079 22.6211 10.5698 22.5072 10.9352 22.5344C11.1449 22.5459 11.2029 22.2479 11.0342 22.151C10.2593 21.7047 10.1141 20.7577 10.4015 19.9651C10.6822 19.1954 11.3957 18.6068 12.2396 18.8469C12.4339 18.9024 12.5872 18.6397 12.4352 18.5015C11.7747 17.8999 11.7381 16.9403 12.1589 16.1863C12.5555 15.4759 13.3391 15.0419 14.1104 15.463C14.2795 15.5543 14.5142 15.3527 14.3871 15.1797C13.8651 14.4597 13.9251 13.4981 14.476 12.8073C14.9855 12.1684 15.819 11.9321 16.475 12.5035C16.6575 12.6619 16.8917 12.4603 16.7945 12.2509C16.6162 11.862 16.5684 11.4258 16.6581 11.0075C16.7478 10.5891 16.9703 10.2109 17.2923 9.92924C17.5602 9.6927 17.9106 9.52799 18.2728 9.53021C18.6737 9.5329 19.0152 9.76171 19.2528 10.073C19.3874 10.2501 19.6886 10.1499 19.6242 9.91081C19.4022 9.06453 19.7071 8.13636 20.4845 7.68747C20.7885 7.51118 21.1553 7.42747 21.5008 7.51717C21.9095 7.62338 22.1826 7.94495 22.3629 8.31149C22.4514 8.49199 22.7611 8.40009 22.7438 8.20335C22.6707 7.35296 23.0623 6.45316 23.919 6.16574C24.2444 6.0564 24.6093 6.05159 24.9201 6.20937C25.3079 6.40683 25.5262 6.786 25.6407 7.19253C25.707 7.42509 26.0253 7.35502 26.0432 7.13312C26.1077 6.31517 26.6305 5.49688 27.5044 5.40107C28.3653 5.30682 28.9186 5.99935 29.0009 6.79736C29.0236 7.0155 29.346 7.08587 29.4047 6.84715C29.5997 6.05144 30.2294 5.3173 31.1198 5.43224C31.999 5.54544 32.3667 6.39746 32.3165 7.19891C32.3043 7.39507 32.6204 7.48464 32.7003 7.29795C33.0182 6.55164 33.7312 5.95465 34.5757 6.25355C35.4114 6.54929 35.6465 7.48409 35.4664 8.27309C35.4141 8.50333 35.7179 8.62292 35.8416 8.42683C36.2801 7.74209 37.0831 7.37085 37.8182 7.85026C38.5731 8.34298 38.6333 9.32046 38.3218 10.0891C38.2425 10.2842 38.5368 10.4268 38.6672 10.2847C38.9492 9.97754 39.3098 9.73057 39.741 9.72637C40.0947 9.72216 40.4238 9.88625 40.669 10.1353C41.3024 10.7765 41.2557 11.7492 40.8098 12.4774C40.7077 12.6443 40.9266 12.8811 41.0931 12.7541C41.4215 12.5061 41.8189 12.3338 42.2355 12.4311C42.5785 12.511 42.8646 12.7433 43.0547 13.0346C43.5448 13.7838 43.4079 14.7473 42.83 15.4053C42.7972 15.4415 42.7784 15.4881 42.7768 15.5369C42.7752 15.5856 42.7909 15.6334 42.8212 15.6717C42.8515 15.7099 42.8944 15.7362 42.9422 15.7459C42.9901 15.7555 43.0398 15.7478 43.0825 15.7243C43.4315 15.5535 43.8359 15.4974 44.1954 15.6709C44.524 15.8289 44.761 16.1309 44.8998 16.4638C45.0637 16.8601 45.0948 17.2988 44.9885 17.7142C44.8823 18.1297 44.6443 18.4995 44.3103 18.7684C44.1369 18.9053 44.2314 19.2034 44.4729 19.1398C45.905 18.7723 46.5004 20.5676 45.9714 21.6394C45.7936 21.9971 45.5041 22.287 45.1467 22.4655C44.964 22.561 45.058 22.8539 45.2549 22.8469C46.7202 22.7944 47.0038 24.7031 46.3154 25.6811C46.0933 25.9916 45.7701 26.215 45.4012 26.3132C45.2151 26.3653 45.2024 26.6702 45.4059 26.7089C46.8091 26.9722 46.8605 28.9 45.9967 29.7676C45.7372 30.0288 45.3896 30.184 45.0218 30.203C44.7584 30.2243 44.7633 30.6349 45.0268 30.6197Z" fill="#1E1E1E"/>
<path d="M46.2265 26.4933C46.8526 26.0392 47.2108 25.2793 47.212 24.4747C47.2126 23.9441 47.0666 23.3988 46.7298 22.9814C46.5432 22.7504 46.2999 22.5718 46.0236 22.4629C46.2883 22.1769 46.4837 21.8338 46.5947 21.4603C46.7057 21.0867 46.7294 20.6927 46.6639 20.3085C46.5809 19.7994 46.3433 19.293 45.9408 18.9585C45.7154 18.771 45.4438 18.6474 45.1543 18.6006C45.376 18.2702 45.515 17.8914 45.5596 17.496C45.6042 17.1007 45.5531 16.7004 45.4106 16.3289C45.2325 15.8718 44.92 15.456 44.4785 15.226C44.227 15.0948 43.9448 15.0337 43.6616 15.0491C43.9545 14.367 43.9708 13.5809 43.595 12.9054C43.3508 12.4663 42.9529 12.094 42.4635 11.9472C42.1798 11.8641 41.8789 11.8598 41.5929 11.9347C41.7573 11.2327 41.6451 10.4765 41.1641 9.89843C40.817 9.48253 40.2993 9.19933 39.7496 9.20028C39.4954 9.2025 39.2449 9.26162 39.0166 9.37329C39.0596 8.59105 38.7613 7.80634 38.0468 7.37475C37.6124 7.11251 37.071 7.02422 36.5827 7.17658C36.3812 7.24076 36.1921 7.33863 36.0233 7.46605C35.9402 6.75579 35.5722 6.10586 34.8531 5.80453C34.6155 5.70474 34.3599 5.65483 34.1021 5.6579C33.8444 5.66097 33.59 5.71695 33.3548 5.82237C33.1174 5.93162 32.9045 6.08765 32.7288 6.28112C32.5173 5.60506 32.0211 5.05 31.2519 4.92848C30.987 4.88839 30.7168 4.9024 30.4574 4.96966C30.1981 5.03692 29.9551 5.15603 29.7431 5.3198C29.5466 5.47325 29.3787 5.66008 29.247 5.87175C28.9281 5.26883 28.362 4.83922 27.5928 4.87078C27.0495 4.89888 26.5384 5.13669 26.167 5.53412C25.9767 5.73976 25.8262 5.97892 25.7231 6.23946C25.2998 5.72226 24.6561 5.43823 23.9268 5.61493C23.0455 5.82844 22.4734 6.54743 22.2808 7.37672C22.0103 7.15262 21.6794 7.01388 21.3301 6.97807C20.9807 6.94227 20.6285 7.01101 20.3182 7.1756C19.5199 7.57994 19.086 8.37989 19.0359 9.22475C18.8458 9.11841 18.6369 9.05005 18.4207 9.02346C17.9066 8.96191 17.4045 9.16017 17.0092 9.47943C16.3107 10.0426 16.0124 10.8914 16.1147 11.7274C15.8898 11.6572 15.6526 11.6354 15.4186 11.6634C14.898 11.7261 14.4368 12.0279 14.1055 12.4257C13.5474 13.096 13.3569 13.9888 13.6049 14.7904C12.8814 14.7463 12.2017 15.1548 11.7788 15.8216C11.2974 16.5806 11.2158 17.5285 11.6146 18.2933C10.8719 18.3997 10.2541 18.9583 9.94782 19.69C9.60475 20.5089 9.67193 21.4476 10.1979 22.1138C8.64685 22.6456 8.16841 25.0698 9.41827 26.1307C7.99688 26.9694 7.84188 29.434 9.30007 30.1975C9.01552 30.4494 8.7926 30.7633 8.64847 31.115C8.50434 31.4666 8.44286 31.8467 8.46876 32.2258C8.5209 33.1162 9.03305 33.9156 9.83024 34.1567C9.59093 34.4583 9.42404 34.8108 9.34243 35.187C9.26082 35.5633 9.26666 35.9532 9.35951 36.3269C9.47727 36.8094 9.73667 37.2726 10.1416 37.5702C10.3946 37.7549 10.6955 37.8629 11.0082 37.8814C10.6343 38.5813 10.5856 39.4294 10.957 40.1689C11.1741 40.6012 11.5337 40.9759 11.9917 41.1487C12.2485 41.2449 12.5257 41.2737 12.7968 41.2325C12.5573 41.9676 12.6385 42.7927 13.1268 43.4323C13.4431 43.8486 13.9104 44.1371 14.4351 44.1821C14.6734 44.2003 14.9129 44.1656 15.1362 44.0805C15.0356 44.7649 15.1869 45.4753 15.6911 45.9943C16.0809 46.3952 16.6419 46.6364 17.2049 46.5751C17.4617 46.5444 17.7088 46.4588 17.9295 46.3242C17.9525 47.0758 18.2887 47.798 19.0113 48.1604C19.2394 48.2766 19.489 48.3442 19.7446 48.3591C20.0001 48.374 20.2559 48.3357 20.4959 48.2468C20.7163 48.1603 20.919 48.0342 21.094 47.8747C21.2396 48.5758 21.666 49.1877 22.4269 49.4018C22.6891 49.4743 22.9638 49.4902 23.2326 49.4484C23.5014 49.4066 23.7583 49.308 23.9861 49.1592C24.1808 49.0286 24.3524 48.8665 24.4937 48.6794C24.7546 49.3059 25.2709 49.7903 26.0185 49.8593C26.9062 49.9421 27.6173 49.4202 28.0049 48.6946C28.3808 49.2641 29.0053 49.6221 29.7573 49.5138C30.6485 49.3832 31.2531 48.7301 31.512 47.9355C31.9868 48.4199 32.6642 48.6349 33.3895 48.3654C34.2495 48.0457 34.7455 47.2936 34.8662 46.4502C35.0364 46.5699 35.2273 46.6572 35.4293 46.7076C35.9198 46.8278 36.434 46.7036 36.8541 46.4354C37.6124 45.9522 38.0009 45.1122 37.9725 44.2557C38.6571 44.5224 39.4427 44.3422 40.0137 43.7689C40.3096 43.4724 40.5269 43.1068 40.646 42.7052C40.765 42.3036 40.7821 41.8786 40.6957 41.4688C41.4154 41.5895 42.1363 41.2299 42.6076 40.592C43.1454 39.864 43.2745 38.9506 42.9459 38.1611C43.6881 38.1322 44.3506 37.6464 44.7147 36.9406C45.1275 36.1423 45.1279 35.1949 44.6545 34.4776C45.6447 34.2325 46.3197 33.2234 46.3603 32.1639C46.3821 31.5654 46.1864 30.9647 45.7693 30.5399C46.4575 30.2152 46.931 29.5306 47.0588 28.7445C47.2039 27.8757 46.9187 26.9667 46.2265 26.4933ZM46.9776 24.5438C46.9588 25.2842 46.6058 25.9754 46.0042 26.3638C45.9412 26.333 45.8765 26.3055 45.8105 26.2817C45.8674 26.2522 45.9225 26.2193 45.9755 26.1831C46.1484 26.065 46.2987 25.9168 46.4192 25.7456C46.5791 25.5118 46.6892 25.2476 46.7428 24.9694C46.8556 24.416 46.7911 23.7801 46.4556 23.3109C46.3059 23.0978 46.098 22.9324 45.8567 22.8345C45.7945 22.8099 45.7304 22.7901 45.6652 22.7752C45.723 22.7344 45.779 22.6917 45.8321 22.6467C46.5875 22.9042 46.9992 23.6988 46.9776 24.5438ZM45.8743 19.2132C46.2133 19.5415 46.4018 20.0082 46.4535 20.472C46.4957 20.8212 46.4565 21.1755 46.339 21.5071C46.2215 21.8386 46.0289 22.1385 45.7762 22.3833C45.7055 22.366 45.6338 22.3529 45.5615 22.3438C46.0584 21.9379 46.3106 21.3222 46.2819 20.6785C46.257 20.1145 46.0299 19.5068 45.5417 19.1854C45.3372 19.0529 45.0988 18.9821 44.8551 18.9817C44.9058 18.9288 44.9541 18.8741 45.0001 18.8176C45.3285 18.8446 45.6373 18.9844 45.8743 19.2132ZM44.5006 15.5118C44.8731 15.7561 45.1234 16.1555 45.2493 16.5763C45.3503 16.915 45.3703 17.2726 45.3074 17.6204C45.2446 17.9682 45.1008 18.2962 44.8876 18.5781C44.8171 18.5766 44.7476 18.5798 44.6748 18.5844C44.7238 18.5281 44.7699 18.4693 44.8128 18.4082C45.26 17.7551 45.2954 16.846 44.8846 16.1672C44.676 15.822 44.3422 15.5389 43.9363 15.4709C43.7689 15.4445 43.598 15.4497 43.4325 15.4863C43.4728 15.4247 43.5113 15.3612 43.5465 15.2982C43.8798 15.2521 44.2187 15.328 44.5006 15.5118ZM44.6874 18.8171C44.6496 18.8572 44.61 18.8964 44.5689 18.9343L44.5267 18.8382C44.5807 18.8272 44.6343 18.8215 44.6874 18.8171ZM42.4074 12.1765C42.8589 12.3111 43.2179 12.6765 43.4287 13.0898C43.7536 13.7263 43.7013 14.4647 43.3941 15.0854C43.3195 15.0997 43.2457 15.1178 43.1731 15.1398C43.571 14.463 43.5871 13.5766 43.1224 12.9255C42.8852 12.5951 42.534 12.344 42.1233 12.2998C41.9359 12.281 41.7466 12.304 41.5691 12.3671C41.5227 12.3831 41.48 12.4013 41.4363 12.4205C41.4672 12.3497 41.4953 12.277 41.5201 12.2034C41.8056 12.101 42.1162 12.0916 42.4074 12.1765ZM43.235 15.3622C43.2011 15.413 43.1657 15.4629 43.1285 15.5109L43.0598 15.424C43.1178 15.4009 43.1759 15.3801 43.235 15.3622ZM38.9901 9.65549C39.2315 9.50941 39.509 9.43384 39.7911 9.43734C40.3009 9.44994 40.7702 9.7421 41.0653 10.1479C41.4667 10.6989 41.5202 11.3937 41.3331 12.0241C41.259 12.0539 41.1864 12.0876 41.1159 12.1252C41.1191 12.1163 41.1232 12.1078 41.1263 12.0989C41.1971 11.9062 41.2418 11.7049 41.2592 11.5004C41.2979 11.0943 41.2015 10.6868 40.985 10.3411C40.5229 9.62697 39.6414 9.40364 38.9425 9.8936C38.9615 9.81497 38.9773 9.7356 38.9901 9.65549ZM41.2187 12.3358C41.1951 12.3898 41.1696 12.4428 41.1427 12.4949L41.0695 12.4239C41.1186 12.3921 41.1682 12.3625 41.2187 12.3335L41.2187 12.3358ZM36.0436 7.7533C36.2273 7.58869 36.4449 7.46645 36.681 7.39522C37.1247 7.26719 37.6066 7.36413 37.9904 7.61625C38.6391 8.04442 38.8594 8.79225 38.7737 9.51572C38.7014 9.56295 38.6318 9.61411 38.5651 9.66895C38.5812 9.60979 38.5932 9.54961 38.6012 9.48883C38.6505 9.13738 38.6052 8.77915 38.4698 8.45107C38.1666 7.75463 37.3658 7.33199 36.6332 7.6156C36.4076 7.70556 36.2041 7.84313 36.0365 8.01893C36.0429 7.93019 36.0446 7.84149 36.0436 7.7533ZM38.7096 9.85017C38.6944 9.91009 38.6774 9.96956 38.658 10.0286L38.5664 9.97696C38.614 9.93299 38.662 9.89041 38.711 9.85015L38.7096 9.85017ZM38.5081 10.2119C38.4993 10.2123 38.4905 10.2102 38.4829 10.2058C38.4752 10.2015 38.469 10.195 38.4648 10.1872L38.5081 10.2119ZM33.3829 6.06892C33.6022 5.95825 33.8435 5.89803 34.0891 5.89268C34.3347 5.88733 34.5783 5.93699 34.8023 6.03802C35.4686 6.33951 35.7753 6.97851 35.8095 7.65342C35.7495 7.7106 35.6928 7.77101 35.6385 7.83372C35.6421 7.69781 35.6333 7.56186 35.6122 7.42754C35.4997 6.7209 34.9868 6.13243 34.2486 6.06841C33.8749 6.03553 33.5115 6.17053 33.2212 6.40407C33.0804 6.51888 32.9557 6.65207 32.8503 6.80005C32.8463 6.8057 32.8417 6.81275 32.8365 6.82121C32.8287 6.73305 32.8165 6.64535 32.7998 6.55844C32.9573 6.35528 33.1567 6.18833 33.3843 6.06891L33.3829 6.06892ZM35.8038 7.99697C35.7975 8.07203 35.7881 8.14681 35.7756 8.22132L35.6645 8.17598C35.71 8.11476 35.7559 8.05448 35.8052 7.99695L35.8038 7.99697ZM32.6138 7.04882L32.5089 7.02159C32.5386 6.96197 32.5705 6.90278 32.6044 6.84498C32.6117 6.91256 32.6149 6.98067 32.6152 7.0488L32.6138 7.04882ZM32.5394 7.27045C32.5298 7.27686 32.5185 7.28033 32.5069 7.28047C32.4953 7.2806 32.4839 7.2774 32.4741 7.27123C32.4659 7.26524 32.4591 7.25751 32.4542 7.2486L32.5394 7.27045ZM29.8927 5.50097C30.0853 5.35326 30.3065 5.2473 30.5423 5.18985C30.7781 5.1324 31.0233 5.12472 31.2622 5.1673C31.9779 5.30532 32.3985 5.8571 32.5494 6.50261C32.5003 6.5704 32.454 6.64376 32.4119 6.7138C32.3883 6.54637 32.3437 6.38258 32.2792 6.22628C32.1578 5.91677 31.9366 5.65661 31.6506 5.48704C30.9928 5.11778 30.1975 5.34846 29.7394 5.91255C29.6259 6.05171 29.5302 6.20444 29.4545 6.36724C29.4546 6.37051 29.4509 6.37522 29.4491 6.37944C29.4257 6.29478 29.4004 6.21155 29.3672 6.13074C29.4951 5.88507 29.6749 5.67017 29.8941 5.50095L29.8927 5.50097ZM29.2267 6.44229C29.2467 6.51533 29.2626 6.58981 29.2761 6.66479L29.1573 6.64987C29.1794 6.57913 29.2023 6.50979 29.2281 6.44134L29.2267 6.44229ZM27.5975 5.10826C28.3284 5.07856 28.8489 5.52086 29.1128 6.11976C29.0781 6.19111 29.0468 6.26382 29.0178 6.33791C28.9632 6.17517 28.8854 6.02113 28.787 5.88049C28.3631 5.28537 27.5944 5.12883 26.9482 5.45388C26.6241 5.62611 26.3602 5.89319 26.1919 6.21941C26.1129 6.36845 26.0505 6.52569 26.0057 6.68832C25.972 6.61845 25.9348 6.55036 25.8941 6.48431C26.1587 5.74097 26.748 5.14124 27.5989 5.10638L27.5975 5.10826ZM25.8031 6.80182C25.8318 6.86308 25.8578 6.92624 25.8814 6.99083L25.7659 7.00807C25.7772 6.937 25.7895 6.87011 25.8045 6.79993L25.8031 6.80182ZM23.9288 5.86132C24.6405 5.6629 25.2584 5.97011 25.6335 6.50888C25.612 6.58287 25.5932 6.65808 25.5774 6.7345C25.5702 6.71581 25.562 6.69753 25.5529 6.67972C25.4544 6.5047 25.3213 6.35161 25.1616 6.22982C24.815 5.97119 24.3678 5.9219 23.9571 6.03834C23.2185 6.24781 22.7472 6.925 22.6445 7.66361C22.6402 7.69306 22.6368 7.72298 22.6339 7.75288C22.5872 7.68831 22.5368 7.62657 22.4828 7.568C22.6205 6.78417 23.1134 6.08666 23.9302 5.85945L23.9288 5.86132ZM22.447 7.89465C22.4802 7.93968 22.5119 7.98597 22.542 8.03353L22.4453 8.06081C22.4451 8.00434 22.4458 7.9488 22.4484 7.89277L22.447 7.89465ZM22.604 8.2596C22.6 8.26684 22.5947 8.27323 22.5883 8.27838C22.5818 8.28354 22.5744 8.28736 22.5665 8.28963C22.5586 8.29189 22.5503 8.29255 22.5421 8.29158C22.5339 8.29061 22.526 8.28801 22.5189 8.28395L22.604 8.2596ZM20.385 7.41049C21.0453 7.05027 21.7474 7.18986 22.2337 7.65217C22.2247 7.72369 22.2181 7.79563 22.2143 7.86801C22.1015 7.72387 21.9595 7.6052 21.7976 7.51978C21.6357 7.43436 21.4576 7.38413 21.275 7.37237C20.4456 7.32857 19.7351 8.01561 19.5182 8.77331C19.4708 8.94281 19.4438 9.11735 19.4376 9.29324C19.4357 9.37422 19.4409 9.4552 19.4531 9.53527C19.3934 9.47897 19.3304 9.42627 19.2645 9.37744C19.2714 8.58117 19.6491 7.81081 20.3863 7.40861L20.385 7.41049ZM19.4164 9.82413L19.3152 9.86828C19.3037 9.81008 19.2946 9.75138 19.2874 9.69313C19.3336 9.73271 19.3766 9.77653 19.4177 9.82224L19.4164 9.82413ZM17.0818 9.73246C17.4147 9.43587 17.8501 9.23094 18.3025 9.25122C18.5663 9.26566 18.8212 9.35098 19.0405 9.49819C19.0414 9.56958 19.0492 9.64089 19.0576 9.71266C18.9201 9.60116 18.7621 9.5176 18.5926 9.46665C17.7684 9.22818 16.9643 9.90046 16.6634 10.62C16.513 10.9772 16.4643 11.3692 16.5229 11.7524C16.532 11.8116 16.5435 11.8703 16.5572 11.928C16.495 11.8905 16.4309 11.8564 16.3651 11.8257C16.2946 11.4444 16.3235 11.0513 16.449 10.6843C16.5745 10.3173 16.7924 9.98888 17.0818 9.73059L17.0818 9.73246ZM16.5751 12.2176L16.4924 12.283C16.4722 12.2314 16.4538 12.1789 16.4378 12.1264C16.4848 12.1529 16.5304 12.1831 16.5751 12.2157L16.5751 12.2176ZM14.2365 12.6468C14.5123 12.2977 14.8874 12.0104 15.3283 11.9193C15.609 11.8627 15.9001 11.8886 16.1664 11.9938C16.1817 12.0636 16.2003 12.1334 16.2217 12.2022C16.1652 12.175 16.1071 12.1516 16.0477 12.1319C15.2803 11.883 14.5212 12.4152 14.1683 13.0728C13.9719 13.434 13.8855 13.8448 13.9196 14.2546C13.9363 14.4416 13.9789 14.6253 14.046 14.8005C14.0581 14.8307 14.0715 14.8605 14.0844 14.8902C14.0147 14.8663 13.9435 14.8467 13.8714 14.8316C13.7404 14.4663 13.7051 14.0735 13.769 13.6907C13.8329 13.3079 13.9939 12.9479 14.2365 12.6449L14.2365 12.6468ZM14.116 15.1507L14.0551 15.213C14.0333 15.1773 14.0123 15.1412 13.9932 15.1045C14.0339 15.1162 14.0747 15.1302 14.116 15.1488L14.116 15.1507ZM11.9577 15.9912C12.3472 15.3467 13.0042 14.946 13.7007 15.0371C13.7309 15.1058 13.7639 15.1735 13.8007 15.2403C12.3184 14.9215 11.2737 16.9458 12.0307 18.1988C12.0502 18.2308 12.0711 18.2618 12.0925 18.2914C12.0212 18.283 11.9494 18.2787 11.8776 18.2785C11.4666 17.5843 11.5252 16.7062 11.9577 15.9894L11.9577 15.9912ZM12.1673 18.5402C12.1531 18.5646 12.1394 18.5872 12.1257 18.6135C12.0983 18.5835 12.0722 18.5534 12.0471 18.5211C12.0868 18.5253 12.1266 18.5313 12.1673 18.5383L12.1673 18.5402ZM10.1778 19.7624C10.4713 19.0854 11.0532 18.5731 11.7535 18.519C11.793 18.5768 11.8352 18.6328 11.8806 18.6878C11.8139 18.6865 11.7472 18.6901 11.681 18.6986C11.3361 18.7497 11.0178 18.9136 10.776 19.1649C10.2567 19.6872 10.0319 20.515 10.2093 21.2288C10.283 21.5305 10.4397 21.8056 10.6616 22.0229C10.5913 22.0291 10.5213 22.0391 10.452 22.0529C9.91033 21.441 9.84259 20.5336 10.1778 19.7605L10.1778 19.7624ZM10.38 22.3133C10.4304 22.3619 10.4833 22.408 10.5384 22.4514C10.4176 22.4735 10.2998 22.5101 10.1878 22.5606C9.6057 22.8233 9.25049 23.4463 9.14481 24.0562C9.04522 24.6286 9.14147 25.2649 9.54713 25.7044C9.63495 25.7988 9.73514 25.8808 9.84499 25.9482C9.77756 25.9691 9.71252 25.9937 9.6489 26.0206C8.39738 25.0941 8.88919 22.7342 10.3799 22.3114L10.38 22.3133ZM8.52239 27.9498C8.62652 27.2485 9.02399 26.6086 9.63579 26.2909C9.6941 26.3276 9.75517 26.3619 9.81902 26.3938C9.77908 26.4101 9.74009 26.4278 9.70158 26.447C9.51309 26.5408 9.34407 26.6695 9.20346 26.8263C8.49698 27.6183 8.43212 29.266 9.46144 29.8357C9.53203 29.8745 9.60599 29.9067 9.6824 29.932C9.624 29.9659 9.56749 30.0016 9.51287 30.0395C8.75316 29.693 8.39356 28.81 8.52237 27.9479L8.52239 27.9498ZM9.17578 33.4775C8.86626 33.1162 8.72143 32.6331 8.70604 32.1638C8.68149 31.4346 8.98545 30.7412 9.5403 30.3052C9.6054 30.3286 9.67169 30.3486 9.73889 30.3649C9.46463 30.5474 9.2444 30.8002 9.10123 31.0969C8.85088 31.6333 8.81901 32.246 9.01237 32.8056C9.19923 33.3302 9.60968 33.7412 10.1711 33.8143C10.1141 33.8635 10.0599 33.9146 10.0086 33.9675C9.68353 33.902 9.39007 33.7287 9.17576 33.4757L9.17578 33.4775ZM10.2016 37.3212C9.87155 37.0381 9.66832 36.6275 9.57648 36.2053C9.50016 35.8568 9.50706 35.4953 9.5966 35.15C9.68615 34.8048 9.85582 34.4854 10.0919 34.218C10.1646 34.2281 10.238 34.234 10.3114 34.2355C10.2824 34.2638 10.2528 34.2926 10.2257 34.3233C9.96435 34.617 9.7922 34.9791 9.72938 35.3671C9.61081 36.1092 9.88424 37.0454 10.6181 37.3769C10.8033 37.4597 11.0058 37.4965 11.2084 37.4842C11.234 37.4839 11.2597 37.4808 11.2853 37.4782C11.2387 37.536 11.1949 37.5954 11.1539 37.6566C10.8057 37.665 10.4665 37.5449 10.2011 37.3193L10.2016 37.3212ZM12.0272 40.9159C11.6177 40.7411 11.3105 40.3807 11.1293 39.9811C10.8159 39.288 10.9046 38.5113 11.2836 37.8861C11.3639 37.8798 11.4437 37.8688 11.5226 37.8529C11.48 37.9042 11.4413 37.9586 11.407 38.0157C11.3029 38.1937 11.2246 38.3856 11.1743 38.5856C10.9855 39.3429 11.2514 40.275 11.9568 40.6825C12.2815 40.8699 12.656 40.8855 13.0032 40.7736C12.9661 40.8413 12.9321 40.9106 12.9012 40.9816C12.6102 41.054 12.3037 41.0312 12.0267 40.9164L12.0272 40.9159ZM11.4667 37.6254C11.498 37.5862 11.5302 37.548 11.5643 37.5108L11.6119 37.5914C11.5635 37.6027 11.5151 37.6145 11.4662 37.6235L11.4667 37.6254ZM15.197 43.8123C14.9615 43.9259 14.6999 43.9743 14.4393 43.9525C13.9254 43.9026 13.4856 43.5755 13.2163 43.1475C12.8358 42.543 12.8229 41.816 13.0729 41.1769C13.1488 41.1548 13.2234 41.1285 13.2965 41.0982C13.2318 41.2336 13.1804 41.3748 13.1428 41.5201C12.9417 42.3093 13.2236 43.2459 13.9824 43.6345C14.1592 43.7251 14.3544 43.7738 14.5531 43.7769C14.7517 43.7799 14.9484 43.7372 15.1279 43.6521C15.1743 43.631 15.2207 43.6076 15.2628 43.5824C15.2362 43.6574 15.2156 43.7337 15.1965 43.8105L15.197 43.8123ZM13.2117 40.8813C13.2378 40.8343 13.2652 40.7873 13.2945 40.7403L13.3658 40.8099C13.3148 40.8338 13.2633 40.8578 13.2113 40.8794L13.2117 40.8813ZM17.9403 46.0487C17.7247 46.2083 17.4725 46.3111 17.2069 46.3478C16.6827 46.4133 16.1632 46.1735 15.8155 45.787C15.3658 45.2883 15.2634 44.6072 15.3949 43.9719C15.4654 43.9347 15.534 43.8942 15.6002 43.85C15.5885 43.8898 15.5778 43.9301 15.5685 43.9708C15.4067 44.6863 15.6037 45.475 16.2217 45.9147C16.5686 46.1612 17.0219 46.2533 17.431 46.1201C17.6068 46.0603 17.7704 45.9696 17.9141 45.8521C17.9326 45.8369 17.9502 45.8209 17.9682 45.8048C17.9575 45.8861 17.9481 45.9656 17.9421 46.0468L17.9403 46.0487ZM15.4848 43.6488C15.5074 43.5827 15.5323 43.518 15.56 43.4542L15.6542 43.5245C15.5991 43.5662 15.5432 43.608 15.4853 43.6469L15.4848 43.6488ZM20.4058 48.0407C20.1889 48.118 19.9582 48.1485 19.7287 48.1299C19.4992 48.1113 19.2764 48.0441 19.0748 47.9328C18.4115 47.5674 18.1442 46.8733 18.1671 46.1702C18.2315 46.1187 18.2932 46.0639 18.3519 46.006C18.3298 46.195 18.3321 46.386 18.3586 46.5744C18.4044 46.9235 18.5581 47.2497 18.7982 47.5072C19.3652 48.0927 20.2159 48.0859 20.8159 47.5653C20.8965 47.4951 20.9711 47.4183 21.0391 47.3359C21.0401 47.4241 21.044 47.5118 21.0529 47.5994C20.8742 47.7938 20.6528 47.9442 20.4062 48.0388L20.4058 48.0407ZM18.2022 45.8267C18.2131 45.7622 18.2264 45.6976 18.2419 45.634L18.3359 45.6865C18.2945 45.7351 18.2484 45.7819 18.2022 45.8267ZM18.3539 45.4296C18.3707 45.4252 18.3886 45.427 18.4043 45.4346C18.412 45.4391 18.4187 45.445 18.4241 45.4521C18.4295 45.4592 18.4334 45.4672 18.4356 45.4758L18.3539 45.4296ZM22.4924 49.1802C21.7717 48.9774 21.3933 48.3579 21.297 47.6782C21.3491 47.6183 21.3987 47.5565 21.4451 47.4921C21.4604 47.7601 21.5297 48.0224 21.6489 48.263C21.9791 48.9147 22.7695 49.246 23.4593 48.9732C23.7872 48.8437 24.0541 48.6011 24.2532 48.3141C24.2867 48.267 24.3169 48.2162 24.3448 48.1655C24.3591 48.2447 24.377 48.3222 24.3984 48.3982C23.9778 49.0151 23.2931 49.405 22.4929 49.1802L22.4924 49.1802ZM21.2719 47.3336C21.271 47.2566 21.2743 47.1795 21.2809 47.1029L21.392 47.1483C21.3549 47.2112 21.3146 47.2733 21.2724 47.3336L21.2719 47.3336ZM24.5455 47.8929L24.6637 47.9074C24.6362 47.9758 24.6059 48.0428 24.5728 48.1082C24.5604 48.0368 24.5512 47.965 24.545 47.8929L24.5455 47.8929ZM26.0881 49.6349C25.353 49.5919 24.8714 49.0796 24.6604 48.4469C24.7003 48.3802 24.7376 48.3117 24.7723 48.2416C24.9475 49.0077 25.5976 49.5568 26.4167 49.442C27.0881 49.3481 27.5534 48.8395 27.7768 48.2348C27.805 48.3098 27.837 48.3832 27.8727 48.4549C27.5502 49.1541 26.9232 49.6838 26.0881 49.6349ZM27.9917 48.1394C27.9705 48.0808 27.9516 48.0213 27.935 47.9608L28.04 47.9596C28.0235 48.0204 28.0074 48.0799 27.9894 48.1394L27.9917 48.1394ZM27.9322 47.7275C27.9548 47.7011 27.9855 47.6933 28.0298 47.7263L27.9322 47.7275ZM29.7643 49.2817C29.0331 49.4048 28.4545 49.0224 28.1307 48.4443C28.1594 48.3749 28.185 48.3041 28.2075 48.232C28.2609 48.3623 28.3307 48.4852 28.4153 48.5977C28.5312 48.7507 28.6788 48.8768 28.848 48.9674C29.0172 49.0579 29.204 49.1108 29.3956 49.1223C30.213 49.1793 30.8969 48.5705 31.1354 47.8242C31.1654 47.7297 31.1889 47.6332 31.2057 47.5354C31.2458 47.602 31.2895 47.6665 31.3363 47.7285C31.1359 48.4907 30.5976 49.1425 29.762 49.2818L29.7643 49.2817ZM31.3984 47.4109C31.3635 47.3521 31.3316 47.2915 31.3029 47.2295L31.417 47.2128C31.4108 47.2791 31.4046 47.345 31.396 47.4109L31.3984 47.4109ZM33.3294 48.1435C32.6427 48.3995 32.0062 48.1714 31.5873 47.6765C31.6028 47.6059 31.6155 47.5362 31.6258 47.4632C31.7971 47.7318 32.0571 47.9318 32.3606 48.0285C33.1512 48.2613 33.9702 47.714 34.2974 47.0114C34.4265 46.7324 34.4961 46.4296 34.502 46.1222C34.5521 46.1786 34.6049 46.2322 34.6602 46.2832C34.5859 47.0929 34.1365 47.8403 33.3271 48.1435L33.3294 48.1435ZM34.5524 45.8136L34.6555 45.7685C34.6622 45.8325 34.6667 45.8964 34.669 45.9602C34.626 45.9136 34.5871 45.8641 34.5501 45.8136L34.5524 45.8136ZM36.7935 46.2018C36.4231 46.4536 35.9683 46.5906 35.5242 46.4909C35.2934 46.4379 35.0783 46.3314 34.8961 46.1801C34.8999 46.1058 34.9004 46.0312 34.8981 45.956C34.9722 46.0309 35.0538 46.0978 35.1418 46.1557C35.8812 46.6388 36.8218 46.153 37.2498 45.4833C37.4482 45.1681 37.5592 44.8058 37.5714 44.4336C37.5763 44.2948 37.5681 44.1558 37.5469 44.0185C37.6071 44.0634 37.6699 44.1047 37.735 44.1423C37.8019 44.9363 37.4819 45.7316 36.7912 46.2019L36.7935 46.2018ZM37.4484 43.5451C37.4493 43.5357 37.4524 43.5266 37.4575 43.5187C37.4626 43.5108 37.4696 43.5043 37.4777 43.4996C37.4859 43.4949 37.4951 43.4923 37.5045 43.4919C37.5139 43.4915 37.5233 43.4934 37.5318 43.4974L37.4484 43.5451ZM37.5758 43.7409L37.6559 43.6933C37.6691 43.7398 37.6809 43.7864 37.6908 43.8329C37.6494 43.8049 37.6112 43.7741 37.5734 43.7391L37.5758 43.7409ZM37.4734 43.2591C37.4101 43.2711 37.3515 43.3009 37.3046 43.345C37.2577 43.3891 37.2243 43.4458 37.2085 43.5082C37.1759 43.6654 37.2807 43.8457 37.3077 43.9999C37.3485 44.2254 37.3497 44.4563 37.3112 44.6822C37.2401 45.1067 37.0195 45.4919 36.6894 45.7681C36.2882 46.0996 35.7151 46.2553 35.256 45.9527C35.0627 45.8262 34.9518 45.6474 34.812 45.4712C34.7306 45.3686 34.6174 45.313 34.4839 45.3473C34.1164 45.445 34.2756 45.8874 34.2662 46.1517C34.2552 46.5745 34.1016 46.9812 33.8305 47.3058C33.5152 47.6718 33.0141 47.9195 32.5248 47.8282C32.2947 47.7834 32.0863 47.6628 31.9327 47.4857C31.7799 47.3153 31.7303 47.1059 31.6072 46.9226C31.4761 46.7267 31.1543 46.7053 31.0417 46.9344C30.9666 47.0889 31.0056 47.3124 30.9764 47.4798C30.9371 47.7158 30.855 47.9427 30.7342 48.1492C30.2382 48.9797 28.9632 49.2166 28.4691 48.2508C28.3702 48.0583 28.3642 47.832 28.272 47.6465C28.2427 47.5896 28.1971 47.5427 28.141 47.512C28.0849 47.4813 28.0209 47.4682 27.9572 47.4743C27.6098 47.4999 27.6361 47.9448 27.5457 48.1932C27.3928 48.6001 27.1041 48.9681 26.6921 49.1321C26.2588 49.3048 25.7399 49.2405 25.3903 48.9217C25.2145 48.7545 25.0882 48.5421 25.0255 48.3077C24.9885 48.1758 24.9649 48.0405 24.9554 47.9039C24.9487 47.8153 24.9583 47.7204 24.9237 47.6364C24.831 47.4121 24.5156 47.3846 24.3713 47.573C24.2578 47.7218 24.2188 47.9346 24.1195 48.0977C24.0052 48.2892 23.8549 48.4568 23.6769 48.5912C23.5106 48.716 23.3153 48.7963 23.1093 48.8246C22.9034 48.8528 22.6936 48.8281 22.4999 48.7527C22.1206 48.606 21.8646 48.2697 21.7513 47.8884C21.6983 47.7068 21.6727 47.5183 21.6756 47.3292C21.677 47.1719 21.7365 46.9943 21.6572 46.8483C21.6302 46.7986 21.5914 46.7563 21.5442 46.7251C21.4971 46.6939 21.443 46.6746 21.3868 46.669C21.2261 46.6565 21.1443 46.7652 21.0706 46.8907C20.8419 47.2757 20.4969 47.6242 20.042 47.7122C19.5871 47.8003 19.1031 47.5624 18.8405 47.1852C18.6193 46.8672 18.552 46.468 18.5815 46.0873C18.6039 45.8108 18.8407 45.3935 18.5012 45.2239C18.4499 45.1965 18.3917 45.1846 18.3337 45.1897C18.2757 45.1949 18.2205 45.2169 18.1749 45.253C17.9983 45.3951 17.8864 45.5972 17.6938 45.7311C16.8046 46.3484 15.8054 45.5244 15.753 44.5753C15.7424 44.3717 15.7629 44.1676 15.814 43.9702C15.8585 43.7867 15.9851 43.6083 16.01 43.4241C16.0531 43.1268 15.7171 42.9716 15.489 43.133C15.2835 43.2783 15.1191 43.4296 14.8708 43.504C14.7384 43.5437 14.5993 43.5564 14.4619 43.5413C14.3245 43.5263 14.1915 43.4838 14.0708 43.4164C13.6344 43.178 13.3593 42.695 13.3181 42.2064C13.2876 41.7555 13.4075 41.3073 13.659 40.9319C13.7442 40.8007 13.8306 40.6886 13.7531 40.5309C13.7222 40.4705 13.6741 40.4206 13.6149 40.3875C13.5558 40.3543 13.4881 40.3393 13.4205 40.3444C13.2182 40.365 13.0368 40.5357 12.8335 40.5848C12.6956 40.619 12.5521 40.6245 12.412 40.6008C12.2719 40.5771 12.1382 40.5247 12.0193 40.447C11.6308 40.1916 11.3987 39.7132 11.356 39.2592C11.3189 38.8102 11.4415 38.3625 11.7021 37.995C11.8536 37.7776 12.2621 37.481 11.9308 37.2101C11.8163 37.1181 11.7055 37.1423 11.5748 37.1807C11.3111 37.2571 11.0409 37.2916 10.7769 37.1925C10.28 37.0062 10.0116 36.4549 9.95063 35.9577C9.89911 35.5442 9.98479 35.1252 10.1945 34.7652C10.2954 34.5943 10.424 34.4413 10.5751 34.3126C10.698 34.208 10.8605 34.1426 10.8977 33.9704C10.9106 33.9141 10.9091 33.8555 10.8935 33.7999C10.8778 33.7443 10.8484 33.6935 10.808 33.6522C10.6858 33.537 10.5236 33.5954 10.3743 33.5967C10.2218 33.6001 10.0702 33.5721 9.92899 33.5146C9.78775 33.457 9.65981 33.3711 9.55311 33.2621C9.11698 32.8118 9.03962 32.0763 9.20535 31.4928C9.31055 31.1064 9.55296 30.7717 9.88719 30.5513C10.0988 30.4143 10.5292 30.3009 10.3514 29.9516C10.2778 29.8073 10.1404 29.7912 9.99689 29.7691C9.83689 29.7478 9.6828 29.6945 9.54372 29.6126C9.29869 29.4552 9.11628 29.2172 9.02794 28.9397C8.93105 28.6469 8.89983 28.3364 8.93652 28.0301C8.9732 27.7239 9.07688 27.4295 9.2402 27.1679C9.34228 27.0097 9.47392 26.8726 9.62789 26.7643C9.83247 26.6218 10.0456 26.5726 10.2782 26.5068C10.3349 26.4901 10.3858 26.458 10.4254 26.4141C10.465 26.3702 10.4916 26.3162 10.5024 26.2581C10.5131 26.2 10.5076 26.14 10.4864 26.0848C10.4651 26.0297 10.4291 25.9815 10.3821 25.9456C10.2695 25.8536 10.1059 25.8298 9.97988 25.7534C9.83864 25.6679 9.71655 25.5541 9.62121 25.4193C9.45046 25.1661 9.35591 24.8692 9.34874 24.5638C9.32054 23.9206 9.59398 23.1711 10.1724 22.8324C10.3854 22.713 10.6261 22.6518 10.8703 22.6551C11.0103 22.6534 11.1376 22.6417 11.2143 22.5035C11.4012 22.1676 10.9925 22.018 10.8083 21.8331C10.2207 21.2436 10.2983 20.2379 10.7348 19.5859C10.9719 19.2325 11.3433 18.9528 11.7779 18.9201C12.0484 18.9005 12.5234 19.1277 12.6123 18.7174C12.6442 18.5723 12.5702 18.4775 12.4753 18.3797C12.3099 18.2146 12.1825 18.0154 12.102 17.7961C11.9571 17.3913 11.9845 16.9439 12.1337 16.5445C12.2892 16.1226 12.5907 15.7265 13.0084 15.533C13.1957 15.444 13.4036 15.407 13.6101 15.426C13.7444 15.4416 13.8752 15.4792 13.9974 15.5371C14.0697 15.5699 14.135 15.6097 14.2167 15.6087C14.28 15.6066 14.3416 15.5873 14.3948 15.553C14.4481 15.5187 14.491 15.4706 14.5191 15.4138C14.5992 15.2411 14.4867 15.1225 14.4015 14.9793C14.1613 14.571 14.0921 14.0844 14.2089 13.6253C14.4237 12.7743 15.3791 11.914 16.2595 12.4808C16.3935 12.567 16.4954 12.6983 16.6702 12.6738C16.7392 12.6622 16.8028 12.6286 16.8513 12.5781C16.8999 12.5276 16.9309 12.4629 16.9398 12.3934C16.9607 12.2275 16.8426 12.0632 16.802 11.9073C16.7419 11.6872 16.7234 11.4578 16.7473 11.2308C16.8431 10.3429 17.8207 9.23129 18.7742 9.78931C18.958 9.89679 19.0575 10.0613 19.2131 10.1943C19.2615 10.2369 19.3208 10.265 19.3844 10.2754C19.448 10.2859 19.5132 10.2783 19.5727 10.2535C19.6292 10.2294 19.6771 10.1889 19.7103 10.1373C19.7435 10.0856 19.7603 10.0252 19.7587 9.9638C19.7591 9.76031 19.6778 9.55733 19.6795 9.34777C19.6863 8.47122 20.4226 7.43712 21.4048 7.61537C21.6407 7.66207 21.8539 7.78717 22.0097 7.97033C22.136 8.11257 22.2008 8.34421 22.3422 8.46153C22.5307 8.61423 22.8367 8.48505 22.8656 8.24762C22.8877 8.06348 22.8528 7.87442 22.88 7.68741C22.9107 7.46847 22.9772 7.25608 23.0769 7.05876C23.1717 6.86693 23.3051 6.69673 23.4688 6.55883C23.6324 6.42093 23.8227 6.31827 24.0278 6.25731C24.5502 6.11108 25.0612 6.30101 25.3406 6.76625C25.4773 6.99284 25.511 7.51094 25.8818 7.44959C26.2288 7.39272 26.173 6.94395 26.2498 6.69056C26.3666 6.30554 26.6002 5.93966 26.9439 5.72182C27.3011 5.49449 27.7777 5.43187 28.1632 5.62563C28.5191 5.80434 28.7432 6.1615 28.841 6.53789C28.9036 6.77843 28.9119 7.16243 29.2725 7.11007C29.3955 7.09227 29.4697 7.01438 29.5141 6.90138C29.5925 6.70537 29.6368 6.50742 29.7433 6.32087C29.9449 5.96751 30.2615 5.66505 30.6678 5.56967C30.867 5.52199 31.075 5.526 31.2722 5.58132C31.4694 5.63664 31.6491 5.74143 31.7944 5.88575C32.0651 6.16255 32.1875 6.56292 32.207 6.94352C32.2142 7.08344 32.1724 7.25382 32.2588 7.37693C32.296 7.42616 32.3455 7.46468 32.4023 7.48859C32.4591 7.51251 32.5213 7.52096 32.5825 7.51309C32.7171 7.49608 32.7763 7.4095 32.8324 7.29683C32.9267 7.09435 33.0502 6.90686 33.1991 6.74036C33.506 6.41329 33.9345 6.21823 34.3851 6.31927C35.248 6.50921 35.5024 7.41438 35.3697 8.18835C35.3465 8.32163 35.3373 8.44308 35.4412 8.54639C35.4854 8.59021 35.5412 8.6205 35.602 8.63367C35.6629 8.64683 35.7262 8.64234 35.7846 8.62071C35.9463 8.55858 36.0233 8.36399 36.1334 8.2432C36.2886 8.06608 36.4822 7.92666 36.6993 7.83556C37.6125 7.4742 38.3801 8.32285 38.3876 9.18942C38.3889 9.38809 38.3627 9.58598 38.3097 9.77746C38.2695 9.92682 38.1572 10.0994 38.2178 10.2546C38.2407 10.3072 38.2766 10.3531 38.3222 10.3879C38.3678 10.4228 38.4215 10.4454 38.4783 10.4536C38.6508 10.4809 38.7401 10.3772 38.8536 10.2666C39.2444 9.88862 39.7804 9.70768 40.2868 9.98447C40.6992 10.2106 40.9677 10.654 41.0222 11.1163C41.0742 11.5582 40.9522 11.9759 40.7477 12.3634C40.6788 12.4939 40.6415 12.6115 40.7271 12.7472C40.7626 12.8074 40.8169 12.8542 40.8816 12.8805C40.9464 12.9068 41.018 12.9111 41.0854 12.8928C41.1579 12.8714 41.2165 12.8119 41.2785 12.771C41.3898 12.6954 41.5099 12.6338 41.6362 12.5875C41.7641 12.5402 41.9001 12.5186 42.0363 12.5242C42.1726 12.5298 42.3064 12.5624 42.43 12.6201C42.8472 12.8195 43.1174 13.2513 43.2086 13.6945C43.2991 14.1718 43.2027 14.6657 42.9394 15.074C42.8542 15.2094 42.6868 15.3421 42.6669 15.5089C42.6594 15.5788 42.6751 15.6493 42.7116 15.7094C42.748 15.7695 42.8033 15.816 42.8687 15.8416C43.038 15.9087 43.1795 15.801 43.3343 15.7493C43.623 15.6525 43.9315 15.6567 44.2026 15.8043C44.6362 16.0408 44.8798 16.5509 44.9275 17.0273C44.9703 17.4506 44.8699 17.8762 44.6422 18.2357C44.5273 18.4172 44.3784 18.538 44.2308 18.6877C44.1313 18.7897 44.0792 18.9228 44.1289 19.0622C44.2477 19.3973 44.6411 19.2013 44.8923 19.2114C45.0402 19.2186 45.185 19.2566 45.3173 19.3231C45.4496 19.3896 45.5665 19.4831 45.6605 19.5975C46.0656 20.0753 46.1459 20.8168 45.9507 21.3983C45.8123 21.8088 45.5173 22.1194 45.1503 22.3366C45.0293 22.408 44.9373 22.4791 44.9373 22.6336C44.9371 22.697 44.9549 22.7592 44.9886 22.813C45.0223 22.8668 45.0704 22.9099 45.1276 22.9375C45.2632 22.9984 45.4349 22.96 45.5804 22.99C45.731 23.02 45.8737 23.0811 45.9993 23.1693C46.2347 23.3369 46.3894 23.5969 46.4744 23.8693C46.651 24.4408 46.5706 25.1348 46.2181 25.6258C46.0859 25.808 45.9145 25.9582 45.7165 26.0653C45.5667 26.1478 45.3331 26.1669 45.2209 26.3045C45.185 26.3496 45.1609 26.4028 45.1509 26.4595C45.1409 26.5162 45.1453 26.5746 45.1636 26.6291C45.212 26.7723 45.3239 26.8055 45.4569 26.8408C46.1002 27.0128 46.4364 27.5833 46.4534 28.2267C46.4711 28.8476 46.2171 29.5437 45.6709 29.8844C45.4495 30.0224 45.2388 30.0468 44.9902 30.0936C44.9368 30.1005 44.8861 30.1208 44.8428 30.1526C44.7994 30.1843 44.7648 30.2266 44.7422 30.2753C44.7394 30.2805 44.7367 30.2847 44.7344 30.2899C44.6643 30.4349 44.7004 30.5321 44.7784 30.6086C44.8136 30.6519 44.8593 30.6854 44.9111 30.706C44.9873 30.7517 45.0704 30.7927 45.1353 30.8396C45.6936 31.2445 45.8199 32.0089 45.651 32.6424C45.5691 32.9602 45.4065 33.2515 45.179 33.488C45.0412 33.6316 44.8742 33.7437 44.6891 33.8168C44.5658 33.8635 44.4359 33.8903 44.3041 33.8961C44.1828 33.9017 44.0601 33.8654 43.9408 33.8775C43.881 33.884 43.8241 33.9071 43.7768 33.9443C43.7294 33.9815 43.6935 34.0312 43.673 34.0878C43.6525 34.1444 43.6483 34.2056 43.6609 34.2645C43.6735 34.3234 43.7024 34.3775 43.7443 34.4208C43.8748 34.5653 44.0299 34.661 44.1398 34.83C44.2516 35.0051 44.3266 35.2011 44.3604 35.4061C44.5012 36.2207 44.0408 37.2567 43.1989 37.493C42.9962 37.5493 42.7817 37.5468 42.5804 37.4859C42.4141 37.437 42.2649 37.3711 42.1138 37.4966C41.7963 37.7599 42.2459 38.1218 42.3576 38.3697C42.7259 39.2016 42.3283 40.3377 41.5075 40.7441C41.2611 40.8683 40.9767 40.8937 40.7122 40.8152C40.5248 40.7596 40.3268 40.5524 40.1291 40.5678C40.0683 40.5742 40.0105 40.5974 39.9621 40.6348C39.9138 40.6722 39.8768 40.7224 39.8554 40.7797C39.7815 40.9672 39.9111 41.109 39.9802 41.2729C40.3366 42.1227 39.9708 43.1865 39.1471 43.6163C38.6656 43.8666 38.1793 43.744 37.7993 43.3822C37.7007 43.3003 37.6108 43.2318 37.4711 43.2592L37.4734 43.2591ZM13.4729 40.5883C13.484 40.5914 13.4942 40.5972 13.5025 40.6052C13.5107 40.6133 13.5168 40.6234 13.5201 40.6345L13.4729 40.5883ZM11.7712 37.4042C11.7803 37.4077 11.788 37.4142 11.7929 37.4226C11.7978 37.4311 11.7998 37.4409 11.7983 37.4506L11.7712 37.4042ZM10.3081 33.9998C10.3423 33.97 10.3779 33.9406 10.4144 33.9127C10.4227 33.941 10.4305 33.9694 10.4388 33.9978C10.3968 34.0002 10.353 34.0007 10.31 33.9998L10.3081 33.9998ZM10.6381 33.8451C10.6465 33.851 10.6535 33.8586 10.6584 33.8675C10.6634 33.8765 10.6662 33.8864 10.6667 33.8966C10.6673 33.9073 10.6655 33.918 10.6615 33.9279L10.6381 33.8451ZM9.78564 30.1362C9.82782 30.1119 9.87141 30.0885 9.9155 30.0674C9.92056 30.1005 9.92562 30.1336 9.93022 30.1666C9.88251 30.1585 9.83494 30.1483 9.78751 30.1361L9.78564 30.1362ZM9.90137 26.1758C9.93669 26.1637 9.97297 26.1534 10.0093 26.1437L10.0102 26.2253C9.97504 26.2094 9.93845 26.1935 9.90323 26.1758L9.90137 26.1758ZM10.2439 26.2543L10.2427 26.1554C10.2518 26.1639 10.2587 26.1746 10.2627 26.1864C10.2666 26.1983 10.2676 26.2109 10.2655 26.2232C10.2624 26.2354 10.2555 26.2463 10.2458 26.2543L10.2439 26.2543ZM10.663 22.2562C10.7008 22.2525 10.739 22.2497 10.7773 22.2483C10.7706 22.2745 10.7639 22.3008 10.7567 22.3275C10.7289 22.3044 10.6974 22.2806 10.6672 22.2562L10.663 22.2562ZM10.9811 22.3924C10.9887 22.3639 10.9958 22.3349 11.0034 22.3058C11.0081 22.3127 11.0114 22.3204 11.0131 22.3285C11.0148 22.3367 11.0148 22.3451 11.0131 22.3532C11.0114 22.3614 11.008 22.3691 11.0033 22.3759C10.9985 22.3827 10.9924 22.3885 10.9853 22.3929L10.9811 22.3924ZM12.3304 18.7156L12.3587 18.6653C12.3586 18.675 12.3564 18.6846 12.3523 18.6933C12.3481 18.7021 12.3421 18.7098 12.3346 18.716L12.3304 18.7156ZM40.971 12.6566C40.9535 12.6558 40.9368 12.6486 40.9242 12.6364C40.9116 12.6241 40.9039 12.6077 40.9026 12.5902L40.971 12.6566ZM45.5349 22.577C45.5007 22.6012 45.4655 22.6245 45.4293 22.6474C45.4215 22.6194 45.4133 22.5915 45.4055 22.5641C45.4536 22.5673 45.497 22.5714 45.5391 22.5774L45.5349 22.577ZM45.2056 22.7135C45.1969 22.7086 45.1892 22.702 45.1831 22.694C45.177 22.6861 45.1726 22.677 45.1701 22.6672C45.1662 22.6493 45.1688 22.6306 45.1774 22.6144C45.1909 22.6469 45.2006 22.6813 45.2099 22.7139L45.2056 22.7135ZM45.738 26.5061C45.7023 26.5224 45.6656 26.5373 45.628 26.5517L45.627 26.4687C45.6691 26.4808 45.7061 26.4929 45.7408 26.5065L45.738 26.5061ZM45.3937 26.4719L45.3947 26.5545C45.3851 26.5426 45.3802 26.5276 45.3808 26.5124C45.3813 26.4971 45.3874 26.4825 45.3979 26.4714L45.3937 26.4719ZM45.3072 30.4595C45.2131 30.4811 45.1175 30.4955 45.0212 30.5026C45.0168 30.5029 45.0125 30.5029 45.0081 30.5027C44.9896 30.4919 44.9743 30.4764 44.9638 30.4577C44.9532 30.4391 44.9478 30.418 44.948 30.3966C44.9513 30.3877 44.9556 30.3792 44.9608 30.3712C44.9774 30.3591 44.9966 30.3509 45.0169 30.3473C45.0371 30.3438 45.0579 30.3449 45.0777 30.3507C45.1624 30.3704 45.242 30.4076 45.3114 30.4599L45.3072 30.4595ZM44.2101 34.307C44.1634 34.3075 44.1167 34.3053 44.07 34.3016L44.1067 34.212C44.1482 34.2433 44.1822 34.2751 44.2143 34.3074L44.2101 34.307ZM42.5451 37.8928C42.4983 37.8831 42.4515 37.872 42.4047 37.8581L42.464 37.7799C42.4924 37.8179 42.5199 37.8553 42.5451 37.8928ZM40.3494 41.1191C40.3086 41.0996 40.2687 41.0786 40.2287 41.0562L40.2919 40.9915C40.3134 41.0346 40.3317 41.0773 40.3494 41.1201L40.3494 41.1191ZM40.1174 40.8367L40.0768 40.8783C40.0786 40.8682 40.0834 40.8588 40.0907 40.8516C40.0979 40.8443 40.1073 40.8394 40.1174 40.8377L40.1174 40.8367ZM39.8955 43.5598C39.359 44.1304 38.5975 44.3019 37.9535 43.9931C37.9443 43.9232 37.9323 43.8534 37.917 43.7836C38.5672 44.187 39.3465 43.9383 39.8398 43.3532C40.074 43.0776 40.2339 42.7466 40.3043 42.3917C40.3746 42.0369 40.3531 41.67 40.2417 41.3258C40.308 41.3571 40.3761 41.3843 40.4457 41.4073C40.5447 41.7834 40.5461 42.1786 40.4498 42.5554C40.3535 42.9322 40.1627 43.2782 39.8955 43.5607L39.8955 43.5598ZM42.4418 40.4306C42.1889 40.7836 41.8336 41.0851 41.4137 41.2133C41.1601 41.2903 40.8898 41.2936 40.6344 41.2226C40.6126 41.1524 40.5861 41.0832 40.5587 41.0144C40.7463 41.0855 40.9479 41.1124 41.1476 41.0928C41.5737 41.0481 41.9509 40.7874 42.2135 40.4613C42.7029 39.8581 42.8853 38.9893 42.5608 38.2674C42.5378 38.2168 42.5129 38.1667 42.4853 38.1185C42.554 38.1333 42.6234 38.1443 42.6933 38.1515C43.0413 38.8838 42.9331 39.7471 42.4419 40.4315L42.4418 40.4306ZM44.5145 36.8268C44.1669 37.5006 43.5417 37.9458 42.8349 37.9267C42.8043 37.8715 42.772 37.8173 42.7363 37.7636C42.8111 37.7733 42.8865 37.7764 42.9618 37.7731C43.335 37.7542 43.6754 37.5779 43.9412 37.3222C44.4811 36.8057 44.7337 35.9906 44.5654 35.2613C44.5038 34.9925 44.3771 34.7428 44.1964 34.5344C44.2647 34.5346 44.3329 34.5313 44.4007 34.5245C44.8846 35.1815 44.9073 36.066 44.5145 36.8277L44.5145 36.8268ZM46.0771 31.5811C46.3369 32.7089 45.6466 34.0756 44.508 34.281C44.4649 34.2302 44.4195 34.1808 44.3709 34.1328C44.5589 34.1164 44.7422 34.0645 44.9109 33.9799C45.495 33.6878 45.85 33.0441 45.9325 32.414C46.01 31.8242 45.8595 31.181 45.4075 30.7691C45.3783 30.743 45.3478 30.7184 45.3161 30.6955C45.3905 30.6799 45.464 30.66 45.5361 30.636C45.8094 30.8879 45.9983 31.2179 46.0771 31.5811ZM46.8242 28.7548C46.6881 29.4756 46.2392 30.1077 45.5834 30.3741C45.5665 30.3612 45.5504 30.3474 45.5335 30.335C45.4986 30.3102 45.4591 30.2831 45.4168 30.2566C45.5813 30.207 45.7364 30.1307 45.8761 30.0308C46.1314 29.842 46.3339 29.5908 46.4644 29.3014C46.711 28.7697 46.7723 28.1188 46.5618 27.565C46.4685 27.3076 46.3086 27.0795 46.0984 26.9041C46.0116 26.8346 45.9169 26.7756 45.8163 26.7282C45.8813 26.6995 45.9447 26.6676 46.0065 26.6326C46.7045 27.0481 46.981 27.9255 46.8242 28.7548Z" fill="#1E1E1E"/>
<path d="M38.2155 26.3655C36.7228 25.288 35.3294 24.087 34.2645 22.4176C33.166 20.6955 32.0401 20.3692 30.3406 21.327C29.1891 21.9754 28.2282 21.8679 27.2058 21.054C25.855 19.9789 24.6024 20.0582 23.4399 21.4358C21.9 23.2612 20.0097 24.3408 18.0292 25.2935C17.9808 25.413 17.932 25.5326 17.8827 25.6523C18.036 25.8694 18.1682 26.1091 18.345 26.3002C19.398 27.4502 20.4602 28.5894 21.5197 29.7318C22.695 30.998 24.0888 32.0419 25.6344 32.8135C27.0472 33.5247 28.4864 33.7904 30.0182 33.2854C31.5876 32.7683 33.0962 32.124 34.4674 31.0632C35.7525 30.0678 37.0324 29.0674 38.2861 28.0206C39.2703 27.1977 39.2516 27.1135 38.2155 26.3655ZM29.6591 26.6863C28.7628 27.1754 27.9862 27.0591 27.1752 26.4825C26.8208 26.2319 26.3696 26.1594 25.8155 25.9504C26.6989 25.6729 27.4316 25.5512 28.17 25.8757C28.3469 25.9538 28.5054 26.0611 28.7131 25.9807C29.5493 25.6576 30.3221 25.9662 31.2513 26.3141C30.6191 26.4541 30.0913 26.4506 29.6591 26.6863Z" fill="#1E1E1E"/>
<path d="M36.018 28.805C34.1824 30.2923 32.3269 31.7108 30.1066 32.3649C28.7389 32.7676 27.4806 32.686 26.1576 32.1025C23.6307 30.9887 21.8094 28.8533 19.9336 26.7657C20.9704 26.9475 21.9923 27.2009 23.004 26.9191C24.2413 26.5753 25.4157 26.7854 26.5961 27.1512C27.1054 27.3021 27.5721 27.5704 27.9589 27.9344C28.2251 28.1875 28.4565 28.1815 28.7838 27.996C30.3651 27.1017 32.0038 26.9972 33.6543 27.6421C34.6999 28.0497 35.7735 28.0271 37.0444 27.9574C36.6104 28.3159 36.3161 28.5635 36.018 28.805Z" fill="#FB5018"/>
<path d="M32.9531 26.2999C31.9942 25.6392 30.9586 25.0953 29.822 25C27.673 24.8203 25.5413 24.7533 23.4757 25.8508C22.1771 26.5411 20.8284 26.0354 19.387 25.6195C19.8907 25.3199 20.2856 25.0893 20.6766 24.8513C21.7961 24.1701 22.8344 23.3765 23.7205 22.3052C24.7547 21.0556 25.5094 20.8637 26.7438 21.7969C28.1641 22.8702 29.4869 22.8866 30.9624 21.9623C31.8787 21.388 32.755 21.6142 33.3908 22.6054C34.5078 24.3436 35.9012 25.7024 37.6006 26.9702C35.8715 27.2069 34.3648 27.2729 32.9531 26.2999Z" fill="#FB5018"/>
<path d="M29.6591 26.6863C28.7628 27.1754 27.9863 27.0591 27.1753 26.4825C26.8209 26.2319 26.3696 26.1594 25.8155 25.9504C26.6989 25.6729 27.4316 25.5512 28.17 25.8757C28.3469 25.9538 28.5055 26.0611 28.7131 25.9807C29.5494 25.6576 30.3222 25.9662 31.2513 26.3141C30.6192 26.4541 30.0913 26.4506 29.6591 26.6863Z" fill="white"/>
</svg>
