<svg width="69" height="56" viewBox="0 0 69 56" fill="none" xmlns="http://www.w3.org/2000/svg">
<path d="M16.3877 0.862305C20.4864 0.862393 24.3487 3.66604 27.2334 8.52441C30.107 13.3642 31.912 20.1061 31.9121 27.5996C31.9121 35.0933 30.1071 41.8359 27.2334 46.6758C24.3487 51.5341 20.4864 54.3378 16.3877 54.3379C12.2889 54.3379 8.42572 51.5342 5.54102 46.6758C2.66743 41.836 0.862305 35.0932 0.862305 27.5996C0.862367 20.1063 2.66753 13.3641 5.54102 8.52441C8.42572 3.66597 12.2889 0.862305 16.3877 0.862305Z" fill="white" stroke="#2C2C2C" stroke-width="1.725"/>
<path d="M22.4246 12.9375C24.8395 12.9375 27.1951 14.659 28.9949 17.8086C30.7805 20.9337 31.9128 25.3085 31.9128 30.1875C31.9128 35.0668 30.7807 39.4422 28.9949 42.5674C27.1951 45.717 24.8395 47.4375 22.4246 47.4375C20.0097 47.4373 17.6549 45.7167 15.8552 42.5674C14.0694 39.4422 12.9373 35.0668 12.9373 30.1875C12.9373 25.3084 14.0695 20.9337 15.8552 17.8086C17.6549 14.6591 20.0097 12.9377 22.4246 12.9375Z" fill="#2C2C2C" stroke="#2C2C2C" stroke-width="1.725"/>
<path d="M52.6127 0.862305C56.7115 0.862393 60.5738 3.66604 63.4584 8.52441C66.332 13.3642 68.1371 20.1061 68.1371 27.5996C68.1371 35.0933 66.3321 41.8359 63.4584 46.6758C60.5738 51.5341 56.7114 54.3378 52.6127 54.3379C48.5139 54.3379 44.6508 51.5342 41.7661 46.6758C38.8925 41.836 37.0873 35.0932 37.0873 27.5996C37.0874 20.1063 38.8926 13.3641 41.7661 8.52441C44.6508 3.66597 48.5139 0.862305 52.6127 0.862305Z" fill="white" stroke="#2C2C2C" stroke-width="1.725"/>
<path d="M58.6496 12.9375C61.0646 12.9375 63.4201 14.659 65.2199 17.8086C67.0056 20.9337 68.1378 25.3085 68.1379 30.1875C68.1379 35.0668 67.0057 39.4422 65.2199 42.5674C63.4201 45.717 61.0646 47.4375 58.6496 47.4375C56.2348 47.4373 53.8799 45.7167 52.0803 42.5674C50.2944 39.4422 49.1623 35.0668 49.1623 30.1875C49.1623 25.3084 50.2946 20.9337 52.0803 17.8086C53.8799 14.6591 56.2347 12.9377 58.6496 12.9375Z" fill="#2C2C2C" stroke="#2C2C2C" stroke-width="1.725"/>
</svg>
