<svg width="89" height="79" viewBox="0 0 89 79" fill="none" xmlns="http://www.w3.org/2000/svg">
<path d="M79.0715 50.088C78.9991 49.9045 78.9426 49.7606 78.8773 49.5965C78.9188 49.4448 78.9771 49.2842 79.0053 49.1183C79.0309 48.9671 79.0371 48.8132 79.0238 48.6604C78.9841 48.2395 78.8888 47.8186 78.8915 47.3986C78.8915 47.0148 78.8315 46.6707 78.6074 46.3495C78.7212 45.4954 78.5191 44.7172 78.0921 44.1305C78.0188 43.7396 78.0038 43.4643 77.9156 43.2172C77.7533 42.7761 77.3306 42.4928 77.1824 42.0367C77.1483 41.9734 77.0934 41.9239 77.0271 41.8964C76.6433 41.6901 76.3299 41.374 76.1271 40.9884L75.4618 40.5887C75.0207 39.9896 74.3704 39.7161 73.8674 39.2273C73.9715 39.0508 74.1207 38.8585 74.2027 38.6405C74.291 38.4058 74.3166 38.1482 74.3704 37.9003C74.3766 37.8729 74.3915 37.8473 74.3995 37.82C74.5583 37.2747 74.9174 36.8256 75.1371 36.2679C75.1451 36.1524 75.1557 35.9979 75.1654 35.8621L75.4803 35.495V35.0538C75.5509 34.7891 75.6454 34.5968 75.6409 34.408C75.6252 34.1323 75.7084 33.8601 75.8756 33.6403C75.8324 33.2574 76.0018 32.8754 75.7045 32.5515C75.7565 32.1554 75.8077 31.7645 75.8624 31.3436C75.7239 31.0983 75.7168 30.8239 75.7962 30.5133C75.8933 30.1357 75.7504 29.781 75.4901 29.4978C75.3081 29.3007 75.1793 29.0605 75.116 28.7998C75.0727 28.634 74.9589 28.4875 74.8512 28.2872C74.8557 28.229 74.8654 28.1028 74.8751 27.981C74.5557 27.5831 74.4992 26.999 73.9389 26.8137C73.8974 26.6999 73.8595 26.5931 73.8216 26.4872L73.7836 26.4625C73.6695 26.3193 73.5654 26.1684 73.4721 26.0108C73.3602 25.7645 73.1833 25.5534 72.9604 25.4002C72.8087 25.2947 72.6708 25.1705 72.5501 25.0305C72.1081 24.5361 71.6213 24.0836 71.096 23.6787C70.7016 23.3814 70.3354 23.047 69.934 22.7082L69.5457 22.6499C69.3605 22.5546 69.2175 22.4479 69.0578 22.4073C68.8899 22.3794 68.7197 22.3687 68.5496 22.3755L67.909 21.8567C67.4008 22.057 67.0214 21.8841 66.7284 21.5161C66.574 21.5082 66.4161 21.5488 66.3261 21.4879C66.0402 21.2929 65.7235 21.3397 65.4182 21.337C64.9108 21.3317 64.4035 21.36 63.8953 21.3741C63.6067 21.3661 63.3147 21.2788 63.0235 21.2806C62.5823 21.2806 62.1235 21.1411 61.6877 21.3626C61.5112 21.4508 61.3285 21.4191 61.1468 21.2629C61.0162 20.8685 61.025 20.3806 60.6412 20.0973C60.6341 19.9394 60.628 19.8123 60.6191 19.6085L59.9195 19.0429C59.8215 18.5532 59.6689 18.1474 59.4783 17.9435C59.2621 17.7141 59.0521 17.4927 58.9665 17.1759C58.9471 17.1062 58.8509 17.0577 58.7839 16.9942C58.3304 16.9624 57.9792 16.7797 57.7595 16.3527C57.6849 16.2067 57.58 16.0785 57.4517 15.9765C57.3234 15.8745 57.1747 15.8012 57.0157 15.7615C56.833 15.7086 56.6751 15.5665 56.5057 15.4642L55.6745 14.9551C55.5633 14.8033 55.2969 14.6551 54.9784 14.5915C54.9228 14.5831 54.87 14.562 54.824 14.5298C54.7284 14.4536 54.6157 14.4018 54.4956 14.3788C54.3756 14.3559 54.2517 14.3626 54.1348 14.3983L53.5499 14.2766C53.3028 13.6589 52.746 13.8027 52.3393 13.7401L51.7375 13.4357C51.4481 13.4904 51.2531 13.5619 51.0617 13.5548C50.6955 13.5416 50.3302 13.4895 49.9667 13.441C49.7704 13.4229 49.577 13.3815 49.3905 13.3175C49.2599 13.262 49.119 13.2351 48.9772 13.2386C48.8353 13.2421 48.6959 13.2759 48.5682 13.3377C48.4658 13.3854 48.3458 13.4613 48.2497 13.4436C47.8667 13.3704 47.4979 13.4436 47.1194 13.4727C46.5404 13.5084 45.9725 13.648 45.4429 13.8848C45.1644 14.0266 44.8564 14.101 44.5438 14.1018C44.3365 14.0948 44.1274 14.1521 43.9191 14.1813C43.9271 14.2077 43.9359 14.2333 43.9447 14.2598L42.855 14.768L42.6142 15.1024C42.2612 15.2021 41.8527 15.2436 41.7318 15.6115C40.7912 16.2221 40.0898 17.0039 39.2789 17.6621C39.2007 17.9174 39.051 18.1449 38.8475 18.3177C38.6145 18.525 38.4619 18.8365 38.3181 19.1232C38.1416 19.4594 38.0163 19.8185 37.8663 20.1662C37.8456 20.2035 37.8204 20.2382 37.7913 20.2694L37.4048 20.7485C37.2284 20.6938 37.0934 20.5429 36.9522 20.4141C36.8389 20.3093 36.6987 20.2381 36.5472 20.2085C36.1943 20.13 35.8493 20.0276 35.4328 19.9165C35.2431 19.8732 34.9811 19.8282 34.7269 19.7497C34.6475 19.72 34.5626 19.7074 34.4779 19.7127C34.3932 19.718 34.3106 19.7412 34.2355 19.7806C34.1472 19.8265 34.059 19.8635 33.9787 19.8997C33.5181 19.755 33.0708 19.7841 32.619 19.8591C32.1767 19.9458 31.7294 20.0048 31.2796 20.0356C30.8014 20.055 30.3717 20.2491 29.9359 20.3823C29.4788 20.5226 29.0218 20.76 28.7059 21.1456C28.3062 21.0573 28.2982 21.0485 28.0044 21.2426C27.8174 21.3661 27.6515 21.5197 27.475 21.6617C27.2986 21.8038 27.1291 22.0147 26.92 22.1029C26.6262 22.2379 26.4718 22.4355 26.4365 22.7338C26.0986 23.0355 25.8003 23.3514 25.6071 23.7555C25.4253 24.1376 25.0777 24.4173 24.933 24.8267C24.9203 24.8523 24.9015 24.8744 24.8783 24.8911C24.5748 25.1558 24.5007 25.4778 24.6418 25.8264C24.4707 26.3028 24.4018 26.7793 24.1936 27.2196C24.0974 27.4225 24.1354 27.689 24.1107 27.9457C23.6633 28.3534 23.5927 28.8439 23.8865 29.3822C23.7939 29.6636 23.7057 29.9319 23.6174 30.2019C23.8821 30.7683 23.853 31.3551 23.7674 31.9436C23.7439 32.139 23.7786 32.337 23.8671 32.5127C23.9933 32.7951 24.123 33.0748 24.2554 33.3668C24.1786 33.4233 24.1274 33.4886 24.0674 33.4992C23.6704 33.568 23.3227 33.7559 22.9627 33.9209C22.728 34.0277 22.4563 34.0524 22.2013 34.1133C22.0248 34.1609 21.8801 34.2774 21.7107 34.3418C21.5413 34.4062 21.3163 34.3992 21.1451 34.4812C20.8672 34.6127 20.5372 34.7283 20.4163 35.0327C20.3201 35.2762 20.1393 35.4209 19.9752 35.5912C19.7934 35.7809 19.5878 35.9485 19.3919 36.1259C18.7796 36.5185 18.6393 36.6712 18.2978 37.3673C18.2571 37.4574 18.202 37.5403 18.1346 37.6126C17.987 37.7595 17.8995 37.9561 17.8893 38.1641L17.502 38.6935C17.5117 39.117 17.2099 39.4505 17.1931 39.8776C17.1764 40.2826 17.0731 40.684 17.0052 41.1076C17.0564 41.4852 17.1102 41.8867 17.1817 42.409C17.1267 42.5713 17.1155 42.7453 17.1491 42.9133C17.1827 43.0814 17.26 43.2376 17.3731 43.3663C17.4434 43.4375 17.4862 43.5313 17.494 43.631C17.4667 43.924 17.6502 44.1049 17.8169 44.3016C17.8434 44.6193 17.6458 44.9193 17.8425 45.2554C18.0066 45.5343 17.9511 45.926 18.2502 46.1378C18.2811 46.4545 18.2899 46.7413 18.454 47.0201C18.6049 47.2698 18.6622 47.5742 18.7725 47.8504C18.8151 47.9236 18.8667 47.9912 18.926 48.0516C19.1528 48.3533 19.279 48.7257 19.5587 48.9904C19.5832 49.0251 19.6014 49.064 19.6125 49.1051C19.789 49.4907 19.9584 49.8789 20.1419 50.2583C20.2009 50.3549 20.2775 50.4397 20.3678 50.508C20.5778 50.6933 20.794 50.8715 21.0075 51.0524L20.9784 51.0868L21.3613 51.28C21.5625 51.5121 21.738 51.715 21.948 51.9594L21.7178 52.7888C21.4107 53.0588 21.3648 53.3862 21.4636 53.7868C21.5272 54.0515 21.4742 54.3479 21.4636 54.6303C21.4583 54.8226 21.4416 55.0141 21.4301 55.2064C21.4107 55.3661 21.3242 55.5241 21.3119 55.6882C21.2609 56.2407 21.3696 56.7962 21.6251 57.2888C21.7401 57.4848 21.7802 57.7157 21.7381 57.939C21.6789 58.2276 21.7592 58.4605 21.9198 58.6934C22.0437 58.8825 22.152 59.0814 22.2436 59.2881C22.3319 59.4787 22.3848 59.6878 22.4792 59.8758C22.5913 60.1008 22.7519 60.3028 22.8542 60.5313C22.9919 60.8428 23.1136 61.156 23.3836 61.3846C23.4561 61.4509 23.5145 61.531 23.5557 61.6201C23.7436 62.0048 23.9818 62.326 24.438 62.3701L24.6771 62.7231L25.2798 63.1034C25.4236 63.4563 25.4236 63.4563 25.6865 63.5789L25.9653 63.9539L26.3915 64.0139C26.4797 64.133 26.5512 64.2539 26.6421 64.3607C26.7222 64.4599 26.8144 64.5489 26.9165 64.6254C27.093 64.7463 27.2959 64.8248 27.4459 64.9642C27.7185 65.2121 27.9982 65.3542 28.3468 65.1839L28.8082 65.5889L29.3465 65.5121C29.7223 65.7689 30.0832 65.993 30.5217 66.0177C30.7322 66.0243 30.9404 66.0626 31.1393 66.1315C31.3143 66.1866 31.5009 66.1933 31.6793 66.1509C32.3138 66.0133 32.9438 66.151 33.5649 66.113C33.6443 66.3777 33.3761 66.4448 33.3681 66.6256V68.3621C33.2728 68.5889 33.1873 68.8915 33.3937 69.2144C33.4405 69.2868 33.4202 69.4068 33.422 69.5056C33.422 69.8144 33.422 70.1232 33.422 70.3985C33.7555 70.9517 33.8261 71.4723 33.7034 71.8861C33.7917 72.4297 33.8799 72.9714 33.9778 73.537C34.4737 73.9782 35.1469 74.0585 35.6305 74.3099C35.9296 74.3708 36.1369 74.4061 36.3363 74.4555C36.7581 74.557 37.1498 74.8023 37.6104 74.7096C37.6533 74.7052 37.6963 74.7158 37.7322 74.7396C38.0278 74.9161 38.3692 74.7829 38.6772 74.8817C38.7337 74.89 38.7914 74.8805 38.8422 74.8543C39.1397 74.751 39.4624 74.7454 39.7633 74.8385C40.2442 74.9655 40.6995 74.8385 41.1424 74.7502C41.6127 74.662 42.068 74.4987 42.5356 74.5455C42.9203 74.2967 43.2909 74.0973 43.7418 74.1043C43.8277 74.1043 43.9121 74.0821 43.9869 74.0399C44.0617 73.9977 44.1244 73.9369 44.1688 73.8635C44.2613 73.7406 44.3602 73.6228 44.4653 73.5105H45.2021C45.6882 73.1047 46.3844 73.0217 46.6844 72.4023C47.0541 72.4155 47.3382 72.2956 47.535 71.9903C47.5798 71.9171 47.6492 71.8623 47.7308 71.8359C47.9735 71.7873 48.0679 71.5967 48.1561 71.4291L48.5179 71.2526C48.7517 70.9218 48.9899 70.6032 49.3349 70.4868C49.6358 70.1153 49.882 69.7668 50.1749 69.4632C50.5783 69.0491 50.9168 68.5765 51.179 68.0612C51.3272 67.7683 51.5249 67.4992 51.7331 67.1683L53.046 68.9921L53.9963 69.3988C54.4542 69.8532 54.8566 70.3782 55.5589 70.4806C55.7354 70.5062 55.9013 70.6094 56.0698 70.6826C56.1872 70.7338 56.2957 70.8273 56.4157 70.8432C56.6828 70.8848 56.9289 71.0128 57.1163 71.2076C57.2744 71.1974 57.4331 71.1992 57.591 71.2129C57.7551 71.2376 57.951 71.2588 58.0665 71.3585C58.186 71.4676 58.3331 71.5417 58.4918 71.5729C58.6505 71.604 58.8147 71.5909 58.9665 71.535L60.5724 71.8376C60.8591 71.8376 61.0735 71.8023 61.2721 71.8447C61.6726 71.9329 62.0556 71.9567 62.4085 71.7326C62.7879 71.9188 63.08 71.7097 63.41 71.5561C63.5142 71.5511 63.6187 71.56 63.7206 71.5826C63.8473 71.6292 63.9831 71.6459 64.1175 71.6317C64.2518 71.6175 64.381 71.5726 64.4952 71.5006C64.5964 71.4503 64.7053 71.4172 64.8173 71.4026C65.0661 71.3541 65.3167 71.3144 65.5805 71.2703C65.6811 71.1362 65.7826 71.0056 65.8964 70.8494C66.2723 70.6606 66.6632 70.4594 67.0593 70.2679C67.324 70.1391 67.5526 69.9829 67.5773 69.6715C67.6828 69.5875 67.7816 69.4955 67.8728 69.3962C68.1375 69.0512 68.4164 68.7106 68.6466 68.3427C68.7378 68.1859 68.8392 68.0352 68.9502 67.8918C69.3913 67.3527 69.8131 66.7951 69.7566 66.1059L70.4087 64.7507C70.4378 64.2875 70.3822 63.9045 70.5578 63.5436C70.6037 63.4492 70.5896 63.3231 70.5984 63.211C70.5989 63.0406 70.6092 62.8703 70.6293 62.701C70.7431 62.0957 70.7793 61.4975 70.5172 60.886C70.8375 60.6408 70.6769 60.3319 70.5993 60.0319L70.7254 59.7196C70.8581 59.6593 70.9957 59.6103 71.1366 59.5731C71.4024 59.5237 71.6478 59.3973 71.8425 59.2096C72.0692 59.0067 72.3454 58.8567 72.6039 58.6917C72.6534 58.6633 72.708 58.645 72.7645 58.6378C73.2057 58.5575 73.5807 58.3361 73.9522 58.0881C74.2495 58.084 74.5378 57.9861 74.7762 57.8085C75.0409 57.6029 75.3268 57.414 75.6065 57.2226C75.7259 57.1232 75.8587 57.0413 76.0009 56.9791C76.1619 56.9355 76.3097 56.8531 76.4314 56.7391C76.553 56.6251 76.6449 56.483 76.6989 56.3252C77.3244 56.0032 77.5 55.7897 77.6377 55.2205L78.1512 54.7653C78.3585 54.0726 78.5783 53.4418 78.5615 52.7765C78.67 52.6115 78.7706 52.4571 78.8677 52.3079C78.9621 51.8385 78.7441 51.4115 78.7115 50.9844L79.0715 50.088ZM51.8893 64.2169C51.7411 64.4463 51.5928 64.658 51.5981 64.9527C51.5981 65.1821 51.4746 65.3595 51.3061 65.4971C51.0414 65.7142 50.9117 65.9948 50.8058 66.3133C50.7281 66.5471 50.5605 66.7545 50.422 66.9645C50.3452 67.0818 50.2455 67.1868 50.1282 67.3377C49.7814 67.4259 49.604 67.7462 49.4117 68.0665C49.1532 68.4997 48.9238 68.9638 48.4482 69.2197C48.3836 69.2516 48.334 69.3073 48.3096 69.375C48.2541 69.6688 48.0167 69.7871 47.7979 69.9044C47.4688 70.0809 47.2261 70.365 46.9456 70.6006C46.7754 70.7534 46.5879 70.8857 46.387 70.995L46.1726 71.4159C45.4156 71.7141 44.6612 72.0459 44.0171 72.5858C43.5565 72.5197 43.1347 72.5982 42.758 72.9079L42.2903 72.8788L41.6339 73.2591C41.3295 73.2723 41.0242 73.2485 40.7224 73.3896C40.546 73.4779 40.3033 73.4426 40.0916 73.4329C39.8798 73.4232 39.6636 73.4179 39.511 73.6094C39.1501 73.552 38.8051 73.4946 38.4522 73.4426C38.3686 73.4258 38.2829 73.4216 38.198 73.4302C37.861 73.4805 37.554 73.3782 37.2469 73.2652C37.0087 73.177 36.7775 73.0826 36.5137 73.0649C36.3549 73.0544 36.2057 72.9291 36.0487 72.8647C35.829 72.7764 35.6075 72.6935 35.3711 72.6C35.2687 72.3979 35.1505 72.1588 35.0181 71.8941C35.0237 71.8377 35.0392 71.7827 35.064 71.7317C35.2855 71.392 35.1761 71.0753 35.064 70.7241C34.8875 70.1947 34.7111 69.6653 34.7111 69.0935C34.7111 68.8835 34.6281 68.6727 34.6316 68.4636C34.6405 67.92 34.6528 67.3774 34.8081 66.8462C34.8787 66.6062 34.8717 66.3442 34.9043 66.0521C35.2987 65.7151 35.2846 65.2077 35.3137 64.7948C35.4902 64.4542 35.6278 64.1772 35.7699 63.9045C35.7796 63.8777 35.7949 63.8533 35.8149 63.833C36.1784 63.5472 36.3875 63.1351 36.6663 62.7813C36.6986 62.7348 36.7412 62.6965 36.7907 62.6692C36.9384 62.612 37.0682 62.5164 37.1667 62.3924C37.2651 62.2683 37.3288 62.1202 37.351 61.9634L38.1531 61.5037C38.1619 61.5169 38.1698 61.5301 38.1778 61.5434L38.9789 60.8472L39.8613 60.3125C40.321 60.2587 40.7877 59.814 41.3983 59.8546L41.7451 59.5493C42.0045 59.5133 42.2405 59.3798 42.4051 59.1761C42.6256 58.9167 42.8983 58.6952 43.3059 58.6731C43.4976 58.5895 43.6849 58.4961 43.8671 58.3934C44.25 58.1526 44.6294 57.9064 44.9947 57.6399C45.2329 57.4635 45.4359 57.249 45.6662 57.0602C45.7575 56.992 45.8554 56.9329 45.9582 56.8838C46.1559 56.7805 46.357 56.6817 46.627 56.5458C47.0682 56.5864 47.2985 56.1611 47.5808 55.847C47.775 55.6317 47.9488 55.4235 48.2364 55.3344C48.3249 55.2927 48.4079 55.2403 48.4835 55.1782C48.8408 54.9506 49.1558 54.6832 49.3579 54.2959C49.3896 54.2311 49.44 54.1773 49.5026 54.1415C49.8396 53.9765 50.0055 53.6526 50.2261 53.3791C50.3433 53.2197 50.4685 53.0663 50.6011 52.9194C50.7105 52.8305 50.8288 52.753 50.954 52.6882L51.2002 52.1641L51.4446 52.5012C51.6369 53.14 51.8293 53.7365 52.1866 54.3276V55.1817L52.4266 55.5691L52.3869 55.5805C52.4522 55.8223 52.5202 56.065 52.5828 56.3085C52.6087 56.3892 52.6218 56.4734 52.6216 56.5582C52.6005 56.8599 52.6781 57.1202 52.9384 57.3196C52.8558 57.6072 52.85 57.9114 52.9216 58.202C53.001 58.5216 52.9776 58.8582 52.8546 59.1637C52.7997 59.2733 52.7711 59.3941 52.7711 59.5167C52.7711 59.6392 52.7997 59.76 52.8546 59.8696C52.6397 60.7221 52.5417 61.5998 52.5634 62.4787C52.4584 62.8139 52.3684 63.1545 52.2431 63.4819C52.1515 63.7387 52.0329 63.9851 51.8893 64.2169ZM34.4287 55.682C34.4393 55.6714 34.449 55.66 34.4587 55.6485C34.202 55.3732 33.969 55.067 33.6787 54.8314C33.5838 54.7597 33.5041 54.6697 33.4443 54.5669C33.3844 54.464 33.3457 54.3503 33.3302 54.2323C33.2986 54.1113 33.2567 53.9932 33.2049 53.8794L32.7717 53.6756C32.6587 53.3579 32.5467 53.0412 32.432 52.7244C32.3693 52.548 32.3323 52.36 32.229 52.2162C32.1117 52.0521 31.9326 51.933 31.7711 51.8068C31.5369 51.5408 31.3887 51.2101 31.3458 50.8583C31.2999 50.4745 31.075 50.1833 30.8014 49.9486C30.7726 49.5076 30.6568 49.0767 30.4608 48.6807C30.362 48.2245 30.34 47.8777 30.2076 47.5804C30.0523 47.2164 29.961 46.8284 29.9376 46.4333C29.9235 46.3573 29.902 46.2828 29.8732 46.211L30.1282 45.5484C29.8935 45.1954 29.9376 44.7737 29.9297 44.3502C29.9111 44.1595 29.843 43.9769 29.732 43.8207C29.7708 43.5146 29.7973 43.2031 29.8547 42.904C29.8863 42.7655 29.9464 42.6351 30.0311 42.5211C30.1988 42.2811 30.2535 42.0358 30.1397 41.7587C30.1227 41.7011 30.1108 41.642 30.1044 41.5823C30.2667 41.2637 30.5058 40.9505 30.2808 40.5667C30.6408 40.1361 30.677 39.6191 30.7564 39.1099C31.0723 38.8329 31.3132 38.5117 31.3291 38.0838L31.5885 37.8014C31.7473 37.3788 31.8135 36.9385 32.0764 36.575C32.1197 36.5189 32.1499 36.4537 32.1646 36.3844C32.2309 36.0329 32.4182 35.7157 32.694 35.4879C32.7999 35.3935 32.8405 35.2233 32.9587 35.008C33.2631 34.7486 33.4881 34.3286 33.6646 33.8309C33.7802 33.7427 33.9293 33.6262 34.0652 33.508C34.1465 33.4516 34.2158 33.3796 34.269 33.2962C34.4353 32.9794 34.6817 32.7116 34.9837 32.5198L35.5078 31.7204L36.4069 30.981C36.4555 30.8707 36.5507 30.6519 36.601 30.5398L37.3325 30.0104C37.3941 29.9521 37.4632 29.9022 37.5381 29.8622C37.9907 29.6972 38.2898 29.3328 38.6542 29.046C38.9743 28.813 39.3111 28.604 39.6619 28.4204C39.8798 28.2978 40.0863 28.1557 40.343 28.0931C40.5195 28.0481 40.6668 27.8778 40.8724 27.7348C41.2474 27.6528 41.3859 27.5796 41.9806 27.1304H42.4147C42.743 26.7863 43.1709 26.7087 43.6403 26.6893C43.9112 26.6805 44.1794 26.5658 44.5474 26.474C44.8206 26.5759 45.122 26.5722 45.3926 26.4634C45.8567 26.5516 46.3015 26.2278 46.77 26.3981C47.1882 26.2305 47.632 26.4299 48.0644 26.2931C48.2902 26.2216 48.5655 26.3055 48.9043 26.324L49.2758 26.1802L49.6367 26.2569L50.3346 26.0337C50.7511 26.3469 51.2567 26.3346 51.7463 26.3575C52.0331 26.3708 52.3111 26.3778 52.5766 26.4969C52.8132 26.5953 53.0692 26.6382 53.3249 26.6222C53.4926 26.6235 53.6591 26.6515 53.8181 26.7052C54.3969 26.8816 54.9722 27.0643 55.603 27.2619L55.8369 27.4525H56.2736L57.7295 28.0895L57.9483 28.2934L58.9798 28.6145C59.6247 28.9675 60.1603 29.5189 60.695 30.0536C61.265 30.6236 61.9303 31.0886 62.4518 31.708C62.5449 31.8132 62.6315 31.924 62.7112 32.0398C62.832 32.2286 62.9326 32.4307 63.0553 32.6177C63.1779 32.8048 63.3156 32.9839 63.5061 33.2477C63.582 33.5336 63.7973 33.8653 63.9835 34.2121C64.2482 34.7159 64.5394 35.2224 64.6664 35.8003C64.7427 36.0879 64.8343 36.3713 64.9408 36.6491C64.9999 36.8256 65.0661 36.9914 65.15 37.2182L65.4879 37.58V38.352L65.794 38.8108L66.0067 41.149L66.2052 41.5064C66.1717 41.6546 66.1376 41.8043 66.1029 41.9555H66.1479V42.7814C66.2767 43.0002 66.2864 43.301 66.199 43.6399C66.1121 44.0388 66.0532 44.4433 66.0226 44.8504C65.9688 45.3419 65.9343 45.836 65.8761 46.4598C65.7402 46.7572 65.5373 47.1172 65.5867 47.5777C65.6176 47.8619 65.5082 48.161 65.4561 48.4866C64.9364 49.2233 64.8985 49.3865 65.1305 49.9512C64.6488 50.3924 64.6276 50.3845 64.4459 51.0983C64.3497 51.4777 64.1626 51.7971 63.9923 52.1385C63.7717 52.5797 63.5141 52.9988 63.2723 53.4268C63.2106 53.5371 63.177 53.6623 63.1082 53.7673C62.9847 53.9517 62.8665 54.1397 62.7368 54.3188C62.6282 54.4679 62.4782 54.5914 62.3962 54.7511C62.1692 55.2049 61.8694 55.6183 61.5085 55.975C61.4658 56.023 61.4355 56.0809 61.4203 56.1435L60.4312 56.9888C60.3633 57.4414 59.84 57.5852 59.6953 58.0087C59.2003 58.097 58.9277 58.4437 58.6736 58.8231C58.2615 58.8231 57.9562 59.0173 57.703 59.3411C57.5772 59.476 57.4216 59.5797 57.2486 59.6437C56.7598 59.8581 56.2622 60.0531 55.6869 60.2887H55.2457L54.8928 60.616H54.179C54.1728 60.4396 54.1719 60.2631 54.1595 60.0866C54.1322 59.6781 54.0898 59.2705 54.0713 58.8611C54.0546 58.4808 54.0007 58.0899 54.2751 57.7652L54.0607 57.2799C54.2584 56.9208 54.1075 56.5211 54.0448 56.1461C53.9566 55.6352 53.7563 55.1429 53.586 54.6461C53.5202 54.4892 53.4351 54.341 53.3328 54.205C53.1426 53.9374 53.063 53.6068 53.1104 53.2821C52.8951 52.8612 52.664 52.4421 52.4672 52.008C52.394 51.8474 52.3922 51.6497 52.379 51.468C52.3625 51.2625 52.2952 51.0643 52.1833 50.8912C52.0713 50.7182 51.9182 50.5756 51.7375 50.4762C51.4278 50.2997 51.0802 50.3386 50.767 50.5247C50.7197 50.5569 50.677 50.5952 50.6399 50.6386C50.294 51.0047 49.8979 51.3277 49.6208 51.7556C49.5276 51.9134 49.4533 52.0816 49.3993 52.2568C49.3393 52.4332 49.3023 52.6097 49.2608 52.7677C49.0093 53.0324 48.8091 53.3191 48.4446 53.3906C47.9294 53.7965 47.2491 54.017 46.9773 54.7044L46.5811 54.7759L45.885 55.502L45.3741 55.7164L45.1782 56.0041L44.588 56.342C44.0047 56.4399 43.4744 56.7691 43.2803 57.1635L42.045 57.8446L42.0645 57.8887L41.5298 57.9117C41.4486 58.0264 41.3401 58.1764 41.2315 58.3273C41.213 58.3017 41.1936 58.277 41.1742 58.2514L40.2574 58.6696C40.0801 58.6844 39.9077 58.7356 39.7512 58.8202C39.5946 58.9048 39.4573 59.0208 39.3477 59.1611L39.0407 59.2493L38.0472 58.7914L37.7401 58.3502L37.1498 58.0908C36.7925 57.9223 36.5428 57.6249 36.3213 57.3214C36.1449 57.0805 35.9808 56.8723 35.6808 56.8449C35.6216 56.7108 35.5766 56.6094 35.5307 56.507L35.4593 56.5793L34.9246 56.1673L35.064 56.0279L34.4287 55.682ZM77.425 52.6079L76.5533 54.745C76.2886 54.9788 75.9533 55.2938 75.5995 55.592C75.4364 55.7221 75.2587 55.8328 75.0701 55.922C74.8448 56.1599 74.556 56.3283 74.238 56.4073C73.923 56.4955 73.7086 56.7232 73.5525 56.8793L72.3339 57.3567L72.0419 57.6285L71.5451 57.6708L70.0452 58.6678L69.5846 58.6899C69.1434 59.0367 69.0437 59.5617 69.2863 60.0593C69.3172 60.4061 69.3446 60.7131 69.3843 61.1516C69.0393 61.839 69.1558 62.7116 69.1513 63.6098C68.9846 63.7704 68.929 63.9936 68.8946 64.2601C68.8531 64.5813 68.8275 64.9024 68.7931 65.2245C68.7719 65.4257 68.6661 65.6224 68.5778 65.8121C68.4587 66.068 68.3219 66.3151 68.187 66.563C68.1526 66.6247 68.1085 66.6804 68.0564 66.728C67.9707 66.7999 67.9005 66.8884 67.85 66.9882C67.7995 67.088 67.7697 67.197 67.7625 67.3086C67.5975 67.5503 67.4714 67.7497 67.3214 67.943C67.2356 68.0358 67.1407 68.1197 67.0381 68.1936C66.8352 68.37 66.597 68.5156 66.5776 68.7556L65.4182 69.7624C65.2222 69.7873 65.0279 69.8229 64.8358 69.8691C64.6445 69.9372 64.4574 70.0168 64.2755 70.1073C63.8017 70.1382 63.7338 70.1647 63.2997 70.5362H62.4809C62.4809 70.5503 62.4809 70.5644 62.4809 70.5794L61.5244 70.3006C61.1097 70.4003 60.6615 70.3826 60.2089 70.3297C59.9442 70.2997 59.6794 70.3076 59.4192 70.2882C59.3214 70.2808 59.2258 70.256 59.1368 70.215C58.8615 70.0853 58.5818 70.0059 58.2765 70.1135L57.7224 69.7685L57.3042 69.7447L55.7583 68.9983C55.6472 68.7883 55.4134 68.6647 55.1107 68.6197C54.9764 68.6027 54.8472 68.5577 54.7315 68.4874C54.6158 68.4172 54.5163 68.3234 54.4392 68.2121C54.3335 68.0808 54.2082 67.9665 54.0678 67.8733C53.8487 67.7174 53.657 67.5263 53.5004 67.3077C53.3981 67.1595 53.1881 67.0845 52.9666 66.9371C52.9155 66.7845 52.8387 66.5577 52.7619 66.3309L52.4646 66.0839C52.5828 65.8192 52.6596 65.5457 52.8837 65.3471C52.9636 65.2662 53.0123 65.1596 53.0213 65.0463C53.0628 64.3836 53.3513 63.7933 53.5551 63.1448L53.4793 62.7919C53.5985 62.6784 53.7086 62.5557 53.8084 62.4248C53.8949 62.2691 53.9698 62.1072 54.0325 61.9404C54.3025 62.034 54.5442 61.9475 54.7481 61.7551C54.9581 61.7551 55.1566 61.7551 55.3551 61.7551C55.4821 61.7571 55.6089 61.7462 55.7337 61.7225C55.9648 61.6713 56.1916 61.6016 56.3636 61.554C56.7069 61.4349 56.998 61.336 57.2865 61.2301C57.3915 61.1913 57.5169 61.1578 57.5857 61.0802C57.9386 60.6849 58.4274 60.5322 58.8765 60.3055C58.9515 60.2675 59.0336 60.2419 59.1262 60.2058C59.3027 59.9093 59.5771 59.7169 59.8912 59.5722C59.932 59.5599 59.9705 59.5408 60.005 59.5158C60.1921 59.3234 60.3518 59.0949 60.5662 58.9431C60.7806 58.7914 61.0012 58.637 61.1547 58.4031C61.2493 58.2616 61.3651 58.1355 61.4979 58.029C61.8315 57.7685 62.1028 57.437 62.292 57.0585C62.6706 56.7214 63.1488 56.5361 63.1973 55.9767L63.6826 55.5479C63.8891 55.1067 64.0823 54.6858 64.2879 54.2694C64.3645 54.1346 64.4494 54.0046 64.542 53.8803C64.6955 53.6447 64.8852 53.4312 64.9188 53.1294C64.9473 53.0199 64.9997 52.918 65.0723 52.8312C65.3088 52.4782 65.5514 52.1368 65.8214 51.7477V51.4344C66.019 51.0956 66.192 50.7674 66.0288 50.3615C66.2511 50.0306 66.4752 49.6945 66.694 49.3689C66.627 49.2154 66.5758 49.0989 66.5176 48.9665C66.6543 48.7186 66.7955 48.4601 66.9464 48.1857C66.9305 47.921 66.9358 47.6369 67.0796 47.3748C67.1099 47.295 67.1203 47.2089 67.1096 47.1242C67.0946 46.8529 67.1755 46.5849 67.3381 46.3672C67.3912 46.2909 67.4281 46.2046 67.4465 46.1136C67.4648 46.0225 67.4643 45.9286 67.4449 45.8378C67.3858 45.4204 67.4934 45.0269 67.6214 44.6396C67.7096 44.3572 67.744 44.081 67.6037 43.8155C67.509 43.622 67.4904 43.4 67.5517 43.1934C67.6646 42.7152 67.6143 42.2334 67.6055 41.7534C67.6055 41.6043 67.5234 41.457 67.4652 41.2576C67.5737 40.9602 67.5429 40.6205 67.4237 40.2711C67.3611 40.0946 67.3743 39.8785 67.3787 39.6808C67.3971 39.468 67.3484 39.2548 67.2393 39.0711C67.0859 38.8305 67.009 38.549 67.0187 38.2638C67.0208 38.072 66.9838 37.8817 66.9099 37.7047C66.8361 37.5277 66.7269 37.3675 66.589 37.2341C66.6596 36.8097 66.4699 36.4479 66.3332 36.0871C66.1964 35.7262 65.9802 35.3812 65.7499 34.9294C65.7446 34.7062 65.6238 34.4071 65.4164 34.1186C65.24 33.8715 65.1605 33.5574 65.0123 33.2874C64.8709 33.0307 64.6968 32.7934 64.4944 32.5815L64.3011 31.8907C63.9076 31.7389 63.785 31.3683 63.5759 31.0727C63.3667 30.7772 63.0394 30.5654 63.0226 30.2848C62.7579 30.0201 62.5762 29.8322 62.3856 29.6513C62.1209 29.3989 61.8562 29.1457 61.5703 28.911C61.4918 28.8448 61.3603 28.8413 61.2509 28.8087C60.9182 28.529 60.6235 28.191 60.1683 28.0587L60.0015 27.794C59.5533 27.6175 59.5533 27.6175 59.2286 27.1516C58.6418 27.0499 58.0839 26.823 57.5927 26.4863L56.8445 26.3672C56.601 26.1228 56.3319 25.9605 55.9789 25.9516C55.8507 25.9475 55.7271 25.9027 55.626 25.8237C55.4072 25.6393 55.1345 25.6137 54.8831 25.5272C54.7474 25.493 54.6151 25.4467 54.4878 25.3887C54.379 25.3191 54.2549 25.2772 54.1262 25.2664C53.9975 25.2556 53.8681 25.2764 53.7493 25.327C53.3769 25.1434 52.9984 25.0217 52.5678 25.1011C52.2872 25.1447 52 25.1058 51.7411 24.989C51.552 24.9638 51.3617 24.9482 51.1711 24.9423C51.0037 24.9336 50.8362 24.9561 50.677 25.0084C50.4279 25.1161 50.1495 25.1351 49.8882 25.0623C49.7641 25.0371 49.6385 25.02 49.5123 25.0111C49.4143 24.9996 49.2961 25.0208 49.2202 24.9731C49.0937 24.8843 48.9415 24.8395 48.7871 24.8456C48.6326 24.8516 48.4844 24.9082 48.3652 25.0067L47.4255 24.8708L46.3403 25.0914C46.0464 24.9502 45.7429 24.9855 45.4368 25.1099C45.0838 24.9458 44.7803 25.0111 44.5094 25.2917C44.4362 25.3675 44.3127 25.3958 44.2085 25.447C44.1161 25.4062 44.0184 25.3788 43.9183 25.3658C43.7524 25.3658 43.5468 25.349 43.4294 25.4364C43.0668 25.7011 42.6565 25.754 42.2347 25.799C42.1494 25.8034 42.0662 25.8279 41.9921 25.8705C41.6586 26.1025 41.2748 26.1758 40.8909 26.2719C40.498 26.377 40.1143 26.5142 39.7439 26.6822C39.5983 26.7458 39.4942 26.9019 39.3504 27.0352L38.9154 27.0722C38.8051 27.2037 38.6807 27.3537 38.5563 27.5037L38.5351 27.4728C38.3257 27.6116 38.1163 27.7498 37.9069 27.8875C37.862 27.9225 37.8131 27.9521 37.7613 27.9757C37.2592 28.1522 36.9531 28.5616 36.6143 28.9331C36.4254 29.1395 36.2216 29.3336 36.0302 29.5375C35.874 29.7033 35.7284 29.8728 35.4849 29.9213C35.3919 29.9557 35.3068 30.0082 35.2343 30.0757C35.064 30.1992 34.8972 30.328 34.6484 30.5169C34.3581 30.928 34.0387 31.4504 33.5111 31.7901C33.4441 31.8428 33.3908 31.9109 33.3558 31.9886C33.3245 32.0597 33.3 32.1335 33.2826 32.2092C33.122 32.3601 32.9782 32.496 32.8352 32.6292C32.8264 32.8162 32.8176 32.9821 32.807 33.1912C32.6746 33.3033 32.5423 33.4736 32.3702 33.5442C32.0658 33.673 31.9485 33.8971 31.9008 34.1953C31.892 34.2509 31.8823 34.3056 31.8726 34.3718C31.6882 34.52 31.4385 34.6136 31.412 34.9083C31.427 35.0177 31.4447 35.1421 31.4623 35.2665C31.2038 35.5824 30.9205 35.87 30.8579 36.2794L30.5164 36.5794C30.4176 36.9465 30.3347 37.2588 30.2429 37.6012C29.972 37.715 29.867 37.9779 29.7806 38.2135C29.8106 38.4429 29.8361 38.6361 29.8644 38.8479C29.6796 39.0249 29.5046 39.212 29.3403 39.4082C29.2374 39.5692 29.1488 39.739 29.0756 39.9155C29.1126 40.0682 29.1417 40.1908 29.1806 40.3496L28.9326 40.7634L28.9635 40.774C28.8753 41.0255 28.8082 41.2831 28.7059 41.5284C28.5294 41.959 28.5885 42.3852 28.6917 42.8149C28.7209 42.9375 28.7667 43.0566 28.8056 43.1784C28.7173 43.406 28.5647 43.6196 28.7235 43.8419C28.5921 44.0563 28.4756 44.2452 28.3644 44.4278C28.4403 44.6096 28.4994 44.7525 28.5603 44.9007C28.5603 45.1654 28.5488 45.4301 28.5647 45.7037C28.5803 45.8711 28.6122 46.0365 28.66 46.1978C28.7659 46.6054 28.8788 47.0113 28.9741 47.3607C28.8991 47.6139 28.84 47.8124 28.7888 47.9871C29.1276 48.4504 29.2203 48.9577 29.3111 49.4518C29.3389 49.6467 29.4071 49.8337 29.5114 50.0006C29.6437 50.217 29.7335 50.4566 29.7761 50.7065C29.8926 51.2447 29.8397 51.3091 30.2112 51.5818C30.3647 51.8165 30.4758 51.9718 30.5702 52.1377C30.6514 52.2824 30.7564 52.4377 30.7652 52.5921C30.7802 52.8049 30.8525 53.0098 30.9744 53.185C31.1094 53.3844 31.2602 53.5726 31.4252 53.7479C31.5876 53.9244 31.7694 54.0832 31.9961 54.3012C32.0164 54.3947 32.0526 54.5579 32.102 54.7847L32.5537 55.172C32.6367 55.3485 32.709 55.5073 32.7929 55.6635C32.8767 55.8197 32.9773 55.9785 33.0929 56.1752L33.4723 56.4002C33.579 56.6129 33.6946 56.8414 33.7978 57.047L34.8134 57.7449L34.9184 58.0979L35.889 58.7199L36.114 59.1117L36.4872 59.2687C36.7334 59.6217 36.7334 59.6217 37.2196 59.7981L37.5028 60.1069C37.0166 60.6363 36.5781 61.1975 35.8854 61.4693C35.8131 61.6325 35.7452 61.7869 35.6516 61.9987C35.6437 62.0048 35.5916 62.0525 35.5352 62.0957C35.1335 62.3867 34.8369 62.8 34.6899 63.2736C34.6502 63.4034 34.5487 63.5136 34.4631 63.6531C34.4564 63.8281 34.4112 63.9995 34.3307 64.1551C34.2501 64.3106 34.1363 64.4465 33.9973 64.553C33.6505 64.5663 33.2993 64.5689 32.9499 64.598C32.814 64.6086 32.6852 64.681 32.5485 64.718C32.4117 64.7551 32.2432 64.8407 32.1073 64.8186C31.7755 64.7666 31.4367 64.7595 31.1138 64.6271C30.8861 64.5501 30.6482 64.5076 30.4079 64.501C30.1679 64.4807 29.9253 64.501 29.8008 64.501C29.4753 64.366 29.2485 64.2892 29.0376 64.1807C28.7726 64.0513 28.519 63.8995 28.2797 63.7272C28.0926 63.586 27.9224 63.4457 27.685 63.4784C27.5066 63.3089 27.2899 63.1851 27.0533 63.1175C26.778 63.0398 26.5406 62.8281 26.2865 62.6763C26.1294 62.5828 25.9706 62.4919 25.8727 62.4345L25.1712 61.5116C25.0724 61.2469 25.0424 60.7758 24.5651 60.6655L23.9554 59.6067C23.8283 59.3861 23.6968 59.1655 23.5768 58.9431C23.5196 58.8452 23.479 58.7385 23.4569 58.6273C23.384 58.2002 23.188 57.8037 22.893 57.4864C22.7413 56.747 22.7995 55.9979 22.5295 55.2947C22.5463 54.9197 22.563 54.5341 22.5772 54.2023C22.7042 54.0259 22.7977 53.8979 22.8816 53.7665C22.9345 53.6782 23.0148 53.59 23.0077 53.5018C22.9777 53.1612 23.156 52.8727 23.2177 52.5312L23.5707 52.3168C23.8468 51.9638 23.673 51.6241 23.5477 51.2827L22.1563 50.2195C21.9357 49.9856 21.7151 49.7854 21.5387 49.5559C21.3714 49.3186 21.2162 49.073 21.0737 48.8201L20.5187 48.5024C20.5001 48.326 20.4842 48.1742 20.4666 48.0066L20.2901 47.7992C20.2036 47.6044 20.1305 47.404 20.0713 47.1992C19.9817 46.7957 19.7855 46.4237 19.5031 46.1219C19.2499 45.8395 19.1696 45.5042 19.1113 45.1513C19.0769 44.9422 19.0496 44.7322 19.0152 44.5037L18.7134 44.2663C18.6896 44.0131 18.6657 43.7475 18.6349 43.4096C18.7063 43.0672 18.7575 42.6596 18.6199 42.2334C18.5223 41.926 18.4685 41.6064 18.4602 41.284C18.4531 41.0352 18.5299 40.7811 18.5925 40.5349C18.649 40.3135 18.7513 40.0999 18.5731 39.8917C18.6922 39.6799 18.7963 39.4964 18.8687 39.3685C18.904 39.0782 18.9331 38.8452 18.9569 38.615C19.4413 38.0803 19.8922 37.5376 20.1384 36.905C20.591 36.3271 21.2042 36.0809 21.8748 35.8876L22.1078 35.6053L22.1483 35.6618C22.3619 35.5294 22.601 35.4253 22.7827 35.2594C23.0051 35.0565 23.2239 34.9506 23.4886 35.0768C23.7815 34.9886 24.0542 34.9135 24.3224 34.8271C24.6207 34.7318 24.9162 34.6418 25.0283 34.2836C25.0609 34.1795 25.2048 34.1071 25.3256 33.9924C25.3053 33.5212 25.1359 33.0086 25.3936 32.5859C25.2851 32.0565 25.1871 31.5871 25.0971 31.116C25.0751 31.0333 25.0804 30.9457 25.1121 30.8663C25.2745 30.5786 25.21 30.2725 25.1395 29.9989C25.0106 29.5022 25.0821 29.0751 25.3856 28.7337C25.4677 28.4328 25.33 28.2457 25.188 28.0348C25.5462 27.7551 25.458 27.3652 25.4192 27.0802C25.5453 26.7793 25.6362 26.5605 25.7642 26.2525C25.9662 26.0893 26.1312 25.7964 26.2777 25.4584C26.4727 25.0173 26.7815 24.6167 27.0718 24.2232L27.2527 23.6232C27.5288 23.3982 27.7362 23.2288 27.9435 23.0611C28.0251 22.9836 28.1137 22.9139 28.2082 22.8529C28.6282 22.6279 28.7897 22.492 29.0985 22.0702L29.9994 21.9502C30.0293 21.9509 30.0591 21.9467 30.0876 21.9379C30.49 21.7129 30.9435 21.6511 31.3767 21.525C31.5109 21.486 31.6477 21.4565 31.7861 21.4367C32.1785 21.3874 32.5677 21.3152 32.9517 21.2206L33.3214 21.3573C33.6743 21.225 34.0202 20.9038 34.3802 21.255L35.5519 21.3802L37.2381 22.4585C37.3856 22.4537 37.5332 22.462 37.6792 22.4832C38.0366 22.5714 38.3269 22.4126 38.5739 22.2061C38.7086 22.0809 38.7901 21.9088 38.8016 21.7252C38.8076 21.4424 38.8675 21.1633 38.978 20.9029C38.9975 20.8353 39.0053 20.7649 39.001 20.6947L39.3822 20.227L39.4492 19.8159C39.5103 19.7774 39.574 19.7432 39.6398 19.7135C39.7488 19.6786 39.846 19.6141 39.9205 19.5271C39.9949 19.4402 40.0438 19.3343 40.0616 19.2212C40.1251 18.8576 40.3527 18.6035 40.6377 18.4138C40.8644 18.2671 41.0444 18.0586 41.1565 17.813C41.2933 17.5059 41.5095 17.3497 41.7874 17.2253C41.9956 16.9377 42.1862 16.6448 42.5815 16.5592C42.7156 16.53 42.8215 16.3695 42.9345 16.2662C43.2635 15.9758 43.6725 15.7913 44.108 15.7368C44.3472 15.7167 44.5774 15.636 44.7768 15.5021C45.0662 15.2895 45.36 15.1007 45.8356 15.1051L46.1214 15.2189L46.5556 14.993C46.5556 14.9992 46.5556 15.0062 46.5556 15.0133L47.2005 14.8236C47.3223 14.7883 47.4503 14.7151 47.5676 14.7292C47.9735 14.7768 48.3741 14.7213 48.7773 14.7221C49.014 14.7335 49.2497 14.7594 49.4832 14.7998C50.0011 14.588 50.0011 14.588 50.8817 14.6295C51.2222 15.0707 51.7702 14.9365 52.274 15.0786C52.4813 15.2551 52.7249 15.3742 53.0575 15.2304C53.1872 15.1748 53.3787 15.2586 53.4987 15.2736L53.8975 15.7854L53.9416 15.7271L55.5792 16.5759L55.5554 16.6209L56.2683 16.7621C56.4369 17.1027 56.7333 17.2447 57.0757 17.3365C57.366 17.415 57.3615 17.4247 57.6192 17.6894C57.6633 17.9912 57.8018 18.2612 58.1151 18.4103C58.176 18.8824 58.468 19.1779 58.8756 19.4232C58.9489 19.6368 59.0292 19.8759 59.1147 20.1141C59.1536 20.22 59.1756 20.3514 59.2515 20.4211C59.4924 20.6417 59.5295 20.9417 59.5903 21.2267C59.6927 21.7032 59.9018 22.0905 60.3192 22.3738C60.478 22.4796 60.5838 22.6693 60.6994 22.8079C61.3047 22.7832 61.8535 22.8961 62.3988 22.7311C62.5224 22.6952 62.6541 22.6973 62.7765 22.7373C63.1656 22.8785 63.4982 22.7673 63.8432 22.5211L64.265 22.7267H64.7388C64.9232 22.9032 65.1579 22.9235 65.4235 22.8291C65.5341 22.8026 65.6501 22.8093 65.757 22.8485C66.1488 22.9685 66.5361 22.9217 66.9667 22.8352L67.4423 23.2146L68.2258 23.3135L68.8593 23.744C69.003 24.0104 69.2433 24.2115 69.5308 24.3061C69.6858 24.3719 69.8213 24.4764 69.9243 24.6096C70.103 24.809 70.3085 24.9827 70.5349 25.1258C70.8433 25.3184 71.1166 25.5622 71.3431 25.8467C71.4604 25.9958 71.6501 26.0875 71.861 26.2446L72.1945 26.8375L72.5801 26.9399C72.8348 27.1502 73.0194 27.433 73.1095 27.7507C73.1307 27.8537 73.1778 27.9495 73.2463 28.0292C73.3149 28.1089 73.4026 28.1697 73.5013 28.206C73.5613 28.3596 73.6116 28.491 73.6716 28.6472L73.9698 28.8598L74.276 29.5401C74.148 30.0395 74.321 30.4983 74.4065 30.966C74.4242 31.0621 74.4489 31.1574 74.4648 31.2536C74.4872 31.4631 74.522 31.6711 74.5689 31.8765C74.6488 32.1467 74.6663 32.4315 74.6201 32.7095C74.5654 33.0712 74.546 33.4392 74.5054 33.8671C74.3289 34.0436 74.2318 34.3083 74.1807 34.6374C74.1359 35.0012 74.0182 35.3523 73.8348 35.6697C73.5119 36.1912 73.3769 36.7956 73.1775 37.37C73.1175 37.542 73.0354 37.7062 72.9692 37.8764C72.8669 38.1367 72.761 38.3961 72.6719 38.6608C72.5739 38.9547 72.4901 39.2529 72.4072 39.5511C72.3639 39.7099 72.3375 39.8732 72.311 39.9967C72.5333 40.3276 72.7725 40.4996 73.121 40.5843C73.4986 40.6726 73.7563 40.9964 74.0033 41.2902C74.1113 41.4372 74.2597 41.5497 74.4304 41.614C74.5539 41.6481 74.6633 41.7208 74.7427 41.8214C74.9104 42.0949 75.1671 42.2361 75.4442 42.3437C75.5385 42.3756 75.6226 42.432 75.6877 42.5072C75.7529 42.5825 75.7967 42.6738 75.8148 42.7716C75.8617 42.9504 75.9588 43.112 76.0945 43.2375C76.2082 43.3632 76.3117 43.4978 76.4042 43.6399C76.5489 43.8463 76.6503 44.081 76.8833 44.2249C76.9535 44.2742 77.01 44.3405 77.0476 44.4177C77.0851 44.4949 77.1023 44.5803 77.0977 44.666C77.0947 44.8366 77.1024 45.0073 77.1206 45.1769C77.1409 45.3431 77.1787 45.5067 77.2336 45.6648C77.3289 45.9295 77.4453 46.1819 77.5547 46.4439C77.4841 46.6151 77.4162 46.7827 77.3439 46.9575C77.5203 47.2151 77.5742 47.4727 77.4594 47.7657C77.4189 47.888 77.417 48.0199 77.4541 48.1433C77.6086 48.6727 77.5097 49.2171 77.5318 49.7527C77.545 50.0712 77.5459 50.3703 77.7197 50.6483C77.7605 50.7358 77.7924 50.8271 77.815 50.9209C77.3747 51.4239 77.4056 52.0671 77.425 52.6079Z" fill="#2C2C2C"/>
<path d="M67.0435 15.8392C67.2782 16.0236 67.5526 15.9583 67.7352 15.9522L68.6114 15.5675L69.3835 14.5687C69.3993 13.9228 69.3358 13.7578 68.9123 13.3696C68.7146 13.1878 68.4976 13.0263 68.3123 12.834C68.1994 12.701 68.0465 12.6082 67.8764 12.5693L67.1309 12.6452C66.6182 13.006 66.3623 13.5204 66.1082 14.0569C66.1964 14.3825 66.2617 14.6887 66.3729 14.9772C66.5139 15.3202 66.7457 15.6182 67.0435 15.8392Z" fill="#2C2C2C"/>
<path d="M37.1631 38.4306C37.1763 38.5771 37.1878 38.7032 37.1984 38.8232C37.2803 38.924 37.3572 39.0289 37.4286 39.1374C37.7075 39.5949 38.0932 39.9779 38.5527 40.2535C38.6013 40.2809 38.6683 40.295 38.6975 40.3356C38.9675 40.7097 39.3477 40.865 39.7942 40.8756C39.9927 41.1403 40.1471 41.4561 40.5662 41.4588L40.9465 41.3044C41.5642 41.607 42.1703 41.8338 42.84 41.5603C42.878 41.5453 42.9283 41.5603 42.9662 41.5444C43.1524 41.4853 43.3394 41.4261 43.523 41.3582C43.6527 41.3097 43.778 41.2497 43.9033 41.1906C44.3762 40.9682 44.8571 40.7494 45.1103 40.3223C45.7464 39.8194 46.1567 39.2353 46.3182 38.4871C46.3357 38.3755 46.3628 38.2657 46.3994 38.1588C46.4926 37.9499 46.503 37.7134 46.4285 37.4971C46.397 37.4106 46.3853 37.3182 46.3942 37.2266C46.403 37.135 46.4322 37.0465 46.4797 36.9677C46.5418 36.859 46.564 36.7319 46.5423 36.6086C46.489 36.4187 46.415 36.2353 46.3217 36.0615C46.1859 35.7818 46.0138 35.5171 45.9035 35.2277C45.8159 34.9878 45.6578 34.7799 45.45 34.6313C45.3337 34.5515 45.2299 34.4548 45.1421 34.3445C44.9497 34.0842 44.7759 33.8151 44.595 33.5433C44.3646 33.4275 44.1413 33.2982 43.9262 33.156C43.695 33.021 43.4621 32.8692 43.2088 32.8031C42.4926 32.5894 41.7598 32.4362 41.018 32.3451C40.4551 32.286 39.9266 32.4448 39.3848 32.5216C39.3298 32.5369 39.2777 32.5611 39.2304 32.5931L38.6375 32.9028C38.4936 32.9822 38.3551 33.073 38.2148 33.1604C38.0745 33.2478 37.9263 33.3369 37.7807 33.4251C37.7286 33.561 37.6775 33.6898 37.6342 33.8036C37.6002 33.8402 37.5624 33.8731 37.5213 33.9016C37.3782 33.9675 37.2599 34.0773 37.1832 34.215C37.1066 34.3526 37.0758 34.5111 37.0951 34.6674C37.1066 34.8721 37.1278 35.1086 37.0475 35.2851C36.8578 35.7015 36.8763 36.1339 36.8499 36.568C36.8349 36.8203 36.7837 37.0709 36.7669 37.3242C36.7528 37.5492 36.7669 37.775 36.7669 37.9991L37.1631 38.4306ZM39.7624 38.9318L41.0056 39.3324C41.4186 39.0818 41.7212 38.7747 42.1756 38.803C42.3971 38.5894 42.5056 38.2356 42.915 38.2736L43.2883 37.708C43.3347 37.6212 43.3897 37.5394 43.4524 37.4636C43.5589 37.3691 43.6417 37.2509 43.694 37.1184C43.7463 36.9859 43.7666 36.843 43.7533 36.7012C43.7416 36.6308 43.7493 36.5586 43.7753 36.4921C43.8271 36.3927 43.8531 36.282 43.8511 36.1699C43.8491 36.0579 43.8191 35.9481 43.7638 35.8506C43.7965 35.6054 43.8221 35.4095 43.8353 35.316C43.7744 35.0221 43.4709 34.9471 43.5706 34.6507C43.8909 34.8474 44.1688 35.0407 44.34 35.3698C44.5112 35.6989 44.7088 36.0015 44.9329 36.3809C44.94 36.6518 44.8818 37.0197 45.172 37.3092L44.9488 37.7159C44.9698 37.9019 44.9458 38.0903 44.8787 38.2651C44.8116 38.4398 44.7034 38.5959 44.5632 38.72C44.4925 38.7905 44.4382 38.8758 44.4044 38.9697C44.2482 39.3853 43.8865 39.5874 43.5468 39.8088C43.4314 39.8937 43.3207 39.9847 43.215 40.0815H42.8233C42.5586 40.3594 42.2524 40.28 41.9471 40.0903L41.3718 40.2853C41.0383 39.9818 40.6227 39.9182 40.186 39.8944C40.0977 39.7594 40.0183 39.6297 39.9071 39.4532L39.3777 39.2618L39.3283 39.14C39.4324 38.9265 39.6574 39.0465 39.7624 38.9318Z" fill="#2C2C2C"/>
<path d="M51.5195 39.8706C51.5627 40.1353 51.5883 40.4 51.6227 40.677L52.2598 41.2153C52.2968 41.4253 52.348 41.6282 52.4654 41.7711C52.6816 42.0306 52.9674 42.2326 53.0574 42.5847C53.0806 42.6368 53.116 42.6825 53.1606 42.7179C53.5674 43.1405 54.0915 43.3302 54.6509 43.4238C54.8314 43.4437 55.0052 43.504 55.1592 43.6002C55.277 43.6755 55.4087 43.7264 55.5465 43.7502C55.7359 43.7729 55.9266 43.7841 56.1174 43.7838C56.4324 43.4846 56.7615 43.8446 57.1215 43.9346L57.5282 43.7123L58.7538 43.5896C58.8817 43.3991 58.9894 43.2367 59.097 43.0752C60.0764 42.4929 60.5635 41.6114 60.672 40.4353L60.8811 40.0982C60.9189 39.5431 60.8479 38.9859 60.672 38.458C60.6316 38.3219 60.6184 38.1792 60.6332 38.038C60.6508 37.7918 60.5449 37.6153 60.4038 37.4203C60.0738 36.9677 59.5567 36.7718 59.1358 36.4498C58.9135 36.2786 58.6479 36.1665 58.49 35.9124C58.4269 35.8364 58.3488 35.7743 58.2606 35.7298C58.1088 35.6301 57.9562 35.5312 57.7965 35.4439C57.6612 35.3673 57.5198 35.3021 57.3738 35.2489C57.1624 35.1691 56.9457 35.1043 56.7253 35.0548C56.51 35.0107 56.2841 35.0186 56.0706 34.9736C55.7953 34.9163 55.528 34.828 55.25 34.7513C54.8697 34.896 54.5141 34.6569 54.103 34.6551L53.7606 34.851L53.1845 34.9683L52.9268 35.4413L52.5598 35.706L52.363 36.0783C51.9218 36.3889 51.6377 36.7462 51.5954 37.2642C51.5645 37.6436 51.5327 38.0239 51.4851 38.4015C51.4507 38.6794 51.3819 38.953 51.3466 39.2309C51.3465 39.3286 51.3653 39.4254 51.4022 39.5159C51.4478 39.6318 51.487 39.7503 51.5195 39.8706ZM55.243 41.3309C55.5553 41.2047 55.9427 41.2982 56.2735 41.1376C56.5762 40.9912 56.8912 40.8597 57.1824 40.7264C57.5494 40.452 57.9076 40.1803 58.2703 39.9138C58.542 39.7135 58.7512 39.4841 58.7732 39.1197C58.7803 39.0024 58.8711 38.8912 58.9364 38.7491L58.7697 38.2806L58.9691 37.9462C59.2903 38.1712 59.3079 38.533 59.5329 38.7897C59.4588 39.2927 59.3855 39.7929 59.3158 40.2641C59.2126 40.5359 59.097 40.7794 59.0282 41.0362C58.9594 41.2929 58.8041 41.4526 58.6188 41.6114C58.4816 41.7307 58.3536 41.8602 58.2359 41.9988C57.8935 42.2105 57.4709 42.3094 57.2768 42.6932L56.5815 42.8132C56.4412 42.7611 56.2347 42.7249 56.0768 42.6164C55.9699 42.5349 55.8453 42.4798 55.7132 42.4556C55.581 42.4314 55.445 42.4387 55.3162 42.477L55.0568 42.1426C54.4392 41.8673 54.4295 41.8629 54.2503 41.4888C54.5821 41.4279 54.9139 41.4632 55.243 41.3309Z" fill="#2C2C2C"/>
<path d="M45.9872 45.799L44.6496 46.2075C44.4485 46.3989 44.2685 46.5745 44.0849 46.7457C44.0091 46.8197 43.9507 46.9096 43.914 47.009C43.8772 47.1083 43.8629 47.2146 43.8723 47.3201C43.8732 47.4475 43.8879 47.5744 43.9164 47.6986C44.0143 48.0789 44.0655 48.4839 44.4661 48.7054C44.7864 48.8818 45.0731 49.1218 45.4367 49.2057C45.7014 49.2657 45.9573 49.331 46.1814 49.3821C46.6587 49.3354 46.9455 49.0204 47.3064 48.7645C47.4467 48.5086 47.6478 48.2413 47.7475 47.9395C47.8472 47.6377 47.8358 47.3051 47.8755 46.9751C47.4811 46.6919 47.5393 46.1334 47.069 45.8881C46.7152 45.8775 46.3128 46.0028 45.9872 45.799Z" fill="#2C2C2C"/>
<path d="M32.1089 64.9642C31.6995 64.876 31.291 64.7816 30.8816 64.6942C30.7603 64.659 30.6347 64.6412 30.5084 64.6413C29.5528 64.7136 28.8002 64.2619 28.0528 63.7501C27.7431 63.5384 27.347 63.4625 27.017 63.2701C26.5405 62.9904 26.0464 62.7134 25.6502 62.3357C25.3317 62.0287 24.962 61.6907 24.9355 61.171C24.9355 61.104 24.8473 61.0255 24.7758 60.9796C24.2773 60.639 24.0532 60.1034 23.8 59.5952C23.5908 59.1752 23.4311 58.7305 23.2494 58.2973C23.2444 58.284 23.2376 58.2715 23.2291 58.2602C22.6053 57.5941 22.6864 56.7355 22.5806 55.9255C22.5294 55.532 22.3785 55.1429 22.382 54.7529C22.382 54.4397 22.5462 54.1247 22.6529 53.8159C22.7067 53.6588 22.8435 53.5194 22.8603 53.3632C22.9123 52.8824 23.0517 52.4686 23.4559 52.158C23.7038 51.9674 23.5917 51.4521 23.3156 51.2589C22.4535 50.6545 21.5932 50.0448 21.0735 49.0848C21.0674 49.0724 21.0594 49.0566 21.048 49.0521C20.5185 48.8333 20.395 48.3154 20.1815 47.8645C20.0871 47.6651 19.9944 47.4639 19.8983 47.2645C19.7218 46.8913 19.5153 46.5278 19.3618 46.144C19.1977 45.7354 19.0794 45.3075 18.9409 44.8884C18.9021 44.7728 18.895 44.5928 18.8174 44.5531C18.4724 44.3766 18.5139 44.081 18.5201 43.7872C18.5342 42.9728 18.5254 42.1628 18.3436 41.3582C18.2915 41.1243 18.3568 40.8543 18.4071 40.6082C18.5359 39.9808 18.6718 39.3535 18.8359 38.7358C18.9003 38.5038 19.0627 38.2947 19.1933 38.0856C19.4192 37.7194 19.6344 37.3462 19.893 37.0012C20.1047 36.7144 20.3218 36.3924 20.6147 36.2132C21.1115 35.9106 21.6735 35.7147 22.2029 35.4606C22.3527 35.3833 22.4918 35.2869 22.6168 35.1739C22.8347 34.9833 23.0323 34.7936 23.3667 34.9418C23.455 34.9824 23.6059 34.9047 23.7197 34.8686C23.9464 34.798 24.1661 34.7062 24.3947 34.6453C24.6726 34.5721 25.1649 33.9703 25.1605 33.6959C25.1561 33.4215 25.172 33.1215 25.1605 32.8348C25.1447 32.4818 25.1014 32.1289 25.0855 31.7689C25.0688 31.3683 25.0723 30.966 25.0617 30.5645C25.0631 30.3812 25.0507 30.198 25.0247 30.0166C24.9488 29.5922 24.9197 29.1872 25.1367 28.7813C25.2108 28.6428 25.1473 28.4284 25.1367 28.2519C25.1314 28.1707 25.0485 28.0666 25.0776 28.0163C25.4764 27.3263 25.2267 26.3964 25.9379 25.8043C26.1717 25.6093 26.2555 25.2343 26.409 24.9423C26.6455 24.4887 26.8705 24.0282 27.1272 23.5852C27.2084 23.4458 27.3708 23.3505 27.5005 23.2402C27.9813 22.8326 28.4631 22.425 28.9484 22.0226C29.0225 21.9596 29.1086 21.9125 29.2016 21.8841C29.956 21.6794 30.7016 21.4429 31.4701 21.2964C32.0516 21.187 32.656 21.2082 33.2498 21.1579C33.3724 21.1482 33.4907 21.0803 33.6142 21.0697C33.8316 21.0305 34.0529 21.0184 34.2733 21.0335C34.7021 21.09 35.1424 21.1403 35.5448 21.2859C35.9275 21.4409 36.2889 21.644 36.6203 21.8903C37.2309 22.3111 37.8671 22.5635 38.4177 22.1117C38.5059 22.0469 38.5741 21.9585 38.6144 21.8567C38.7141 21.4958 38.7353 21.1041 38.8853 20.7688C39.0865 20.317 39.15 19.7541 39.697 19.5194C39.7588 19.4938 39.847 19.4312 39.8523 19.3844C39.9256 18.6097 40.6464 18.2938 41.0258 17.7353C41.3117 17.3109 41.6505 16.853 42.0785 16.6112C42.7843 16.2115 43.3808 15.5524 44.2843 15.5524C44.4467 15.5524 44.6373 15.4298 44.7661 15.3142C45.1358 14.9904 45.5496 14.9798 46.0163 14.9939C46.3693 15.0054 46.7222 14.8174 47.0857 14.7363C47.3504 14.6789 47.6284 14.6974 47.8798 14.6145C48.5142 14.4054 49.1557 14.776 49.821 14.4936C50.0579 14.3904 50.3193 14.3572 50.5745 14.3978C50.8297 14.4385 51.0679 14.5513 51.2609 14.723C51.4612 14.8995 51.8345 14.8774 52.1292 14.9498C52.4724 15.0336 52.8006 15.1668 53.1765 15.0663C53.3115 15.0301 53.5718 15.1042 53.6327 15.2092C53.9768 15.8083 54.6403 15.8912 55.1591 16.1957C55.4971 16.3933 55.9091 16.4603 56.2762 16.6156C56.375 16.6571 56.412 16.8301 56.5091 16.8892C56.7349 17.025 56.9709 17.143 57.215 17.2421C57.4603 17.3418 57.7444 17.3797 57.7373 17.7415C57.7463 17.8116 57.7744 17.8778 57.8185 17.933C58.0761 18.3168 58.2667 18.788 58.6126 19.0606C59.2646 19.5732 59.4005 20.3391 59.6167 21.0123C59.8329 21.6856 60.2193 22.1241 60.7028 22.5379C60.8604 22.6561 61.053 22.7183 61.2499 22.7144C61.879 22.7082 62.5081 22.6667 63.1363 22.6261C63.2572 22.6182 63.3719 22.5494 63.4893 22.5299C63.6931 22.4982 63.9049 22.4417 64.1069 22.47C64.5869 22.5326 65.0581 22.6641 65.5389 22.7152C65.9369 22.7576 66.3427 22.7267 66.7451 22.7232C66.9966 22.7232 67.241 22.687 67.383 22.9879C67.4245 23.0761 67.6292 23.1467 67.7474 23.1326C68.3262 23.0629 68.688 23.3814 69.0471 23.7635C69.2121 23.9399 69.4583 24.0343 69.6568 24.1808C69.8917 24.3495 70.1179 24.53 70.3345 24.7217C70.983 25.3102 71.7515 25.7805 72.2094 26.564C72.2668 26.6628 72.4176 26.7016 72.505 26.789C72.7113 26.9833 72.9038 27.1917 73.0812 27.4128C73.4006 27.8346 73.712 28.2651 73.997 28.7107C74.2159 29.0548 74.4973 29.3698 74.3703 29.8578C74.3014 30.1225 74.4082 30.4401 74.4479 30.7322C74.5361 31.3586 74.6614 31.9815 74.7047 32.6098C74.7419 33.0467 74.7068 33.4867 74.6005 33.9121C74.4161 34.5756 74.1426 35.2153 73.8947 35.8594C73.7023 36.3553 73.4915 36.8441 73.2868 37.3347C73.1641 37.6303 73.0159 37.917 72.9171 38.217C72.7556 38.7076 72.6171 39.2061 72.4838 39.7055C72.4026 40.0055 72.6656 40.3902 73.0547 40.4176C73.5929 40.4555 73.7826 40.8967 74.1135 41.1799C74.1858 41.2417 74.2423 41.322 74.3155 41.3793C74.5538 41.5655 74.7717 41.809 75.0426 41.9167C76.142 42.3578 76.2779 43.6302 77.1302 44.2752C77.2185 44.3405 77.2449 44.5319 77.2387 44.6625C77.201 45.2114 77.3358 45.7584 77.6243 46.2269C77.6409 46.2503 77.651 46.2777 77.6534 46.3063C77.6299 46.7563 77.6046 47.2066 77.5775 47.6572C77.5554 47.795 77.5419 47.9341 77.537 48.0736C77.5723 48.5907 77.6093 49.1077 77.6711 49.6221C77.7126 49.9662 77.8193 50.3042 77.8537 50.6483C77.8613 50.8592 77.8356 51.07 77.7778 51.273C77.7081 51.5809 77.544 51.8836 77.544 52.1888C77.544 52.728 77.3729 53.2 77.1443 53.6659C77.0873 53.7638 77.0411 53.8676 77.0067 53.9756C76.7014 55.2991 75.5949 55.847 74.5758 56.4549C73.7923 56.9235 72.9876 57.4255 72.1265 57.6717C71.4947 57.8543 71.0544 58.2452 70.533 58.5461C70.2577 58.7049 70.0186 58.8699 69.6692 58.8549C69.4106 58.8434 69.2156 59.4302 69.3101 59.7743C69.4998 60.4625 69.6171 61.1366 69.3462 61.8549C69.2086 62.2201 69.2853 62.6622 69.2403 63.0672C69.1953 63.4722 69.1327 63.8692 69.0515 64.2654C68.9333 64.8477 68.875 65.4645 68.6386 65.9965C68.3151 66.6966 67.9144 67.3584 67.4439 67.9695C67.0716 68.4618 66.4813 68.7971 66.1442 69.3053C65.7375 69.923 65.1057 69.9821 64.5366 70.1435C64.1254 70.26 63.7743 70.5009 63.3949 70.5944C62.9466 70.7038 62.4393 70.5618 61.9575 70.5415C61.504 70.5229 61.0408 70.5724 60.597 70.4991C60.0084 70.4021 59.4076 70.5335 58.8191 70.2679C58.3461 70.0544 57.7753 70.0703 57.2723 69.908C56.8515 69.773 56.4615 69.5347 56.0644 69.3291C55.6021 69.0891 55.2103 68.738 54.6677 68.6233C54.4303 68.5721 54.2477 68.2589 54.05 68.0586C53.8242 67.8345 53.6433 67.4939 53.3733 67.3986C52.7971 67.1956 52.8077 66.5798 52.438 66.2383C52.3498 66.1501 52.4309 65.7248 52.5668 65.5721C52.8545 65.2492 52.8721 64.8663 52.9692 64.493C53.0424 64.2089 53.1501 63.9336 53.2409 63.6531C53.2895 63.5066 53.3989 63.3442 53.3697 63.2119C53.2418 62.6516 53.7359 62.3701 53.8992 61.944C53.9055 61.9247 53.9158 61.9069 53.9293 61.8918C53.9428 61.8766 53.9593 61.8643 53.9777 61.8557C54.3227 61.7675 54.6659 61.6352 55.0162 61.6131C55.6112 61.5736 56.1978 61.451 56.7588 61.2487C57.575 60.9637 58.2032 60.3893 58.9867 60.0637C59.4852 59.8564 59.8814 59.3799 60.2934 58.9925C60.8449 58.4755 61.3681 57.9285 61.9028 57.3929C62.2558 57.0399 62.6537 56.717 62.9475 56.3191C63.3004 55.8461 63.5546 55.307 63.8537 54.7979C64.0592 54.445 64.2754 54.1026 64.4713 53.7479C64.7554 53.2388 64.9663 52.675 65.3228 52.225C65.6245 51.8439 65.7207 51.4115 65.8963 50.9968C65.9157 50.9588 65.9262 50.9168 65.9272 50.8742C65.8822 50.3448 66.0154 49.8868 66.4169 49.518C66.4389 49.4905 66.4538 49.458 66.4602 49.4234C66.4667 49.3888 66.4645 49.3531 66.4539 49.3195C66.2007 49.0213 66.4266 48.7018 66.5642 48.558C66.8872 48.2183 66.8245 47.8027 66.9401 47.4269C67.0751 46.9857 67.1977 46.5445 67.293 46.0972C67.3376 45.8725 67.3527 45.6429 67.338 45.4143C67.3124 44.8266 67.713 44.2866 67.413 43.6399C67.2577 43.3037 67.4774 42.8105 67.4598 42.3914C67.4201 41.4208 67.3636 40.4502 67.2613 39.4797C67.2224 39.1152 67.0266 38.7738 66.9216 38.4094C66.8166 38.045 66.8457 37.6453 66.4804 37.3638C66.3666 37.2756 66.4804 36.942 66.3992 36.7559C66.1795 36.2212 65.9086 35.7085 65.6748 35.18C65.5345 34.8641 65.4534 34.5209 65.2972 34.2156C65.0325 33.6959 64.6592 33.2212 64.4545 32.6804C64.1722 31.9348 63.5484 31.4583 63.1584 30.8195C62.7322 30.1207 62.1225 29.6372 61.5446 29.1148C61.1564 28.7619 60.6543 28.5431 60.2211 28.2325C59.8867 27.9934 59.5823 27.7119 59.2646 27.4499C59.1685 27.3705 59.0882 27.2611 58.977 27.2143C58.6832 27.0899 58.3779 26.9937 58.0779 26.8834C57.2838 26.5887 56.4897 26.3002 55.6956 25.9958C55.2306 25.8193 54.7771 25.6067 54.313 25.4249C54.198 25.3944 54.0786 25.3837 53.96 25.3931C53.8206 25.3931 53.6468 25.4523 53.5453 25.3931C52.9198 25.0111 52.2112 25.2723 51.5539 25.1161C51.2265 25.0384 50.848 25.1858 50.4951 25.1823C50.0451 25.1823 49.596 25.094 49.146 25.094C48.291 25.0879 47.436 25.1143 46.5801 25.1249C46.1143 25.1311 45.6475 25.1249 45.1817 25.1417C45.0537 25.1417 44.879 25.1478 44.8102 25.2299C44.5614 25.5105 44.2578 25.5449 43.9217 25.5114C43.8546 25.5043 43.7787 25.4717 43.7214 25.4911C43.0676 25.717 42.4191 25.9561 41.7644 26.1767C41.5685 26.2428 41.3408 26.2261 41.1555 26.3081C40.5873 26.5622 40.0517 26.8984 39.4685 27.1022C38.6982 27.374 38.1644 28.0031 37.4338 28.3304C37.1771 28.446 36.9697 28.7081 36.7836 28.9384C36.3168 29.5119 35.7398 29.9513 35.1512 30.3854C34.891 30.5926 34.6468 30.8191 34.4207 31.063C34.2927 31.1919 34.1948 31.3498 34.0739 31.4866C33.7262 31.881 33.2348 32.2189 33.0583 32.6777C32.8642 33.1859 32.491 33.478 32.2307 33.868C31.9589 34.2739 31.5592 34.708 31.5248 35.3168C31.5045 35.6697 31.194 36.0227 30.9513 36.3279C30.7114 36.6152 30.5403 36.9535 30.451 37.3171C30.4007 37.5226 30.1907 37.6841 30.0857 37.8826C30.0098 38.0264 29.9093 38.2267 29.9551 38.3529C30.1175 38.8003 29.8775 39.0844 29.6128 39.3623C29.3816 39.6049 29.1619 39.8317 29.3154 40.2102C29.3406 40.3069 29.3322 40.4092 29.2916 40.5005C29.0993 41.0061 28.8575 41.4958 28.7137 42.0137C28.6555 42.2255 28.8346 42.4911 28.8496 42.7364C28.8813 43.2296 29.0366 43.7449 28.6475 44.1887C28.5805 44.2798 28.5517 44.3934 28.5672 44.5055C28.7128 45.3878 28.8778 46.2639 29.0234 47.1445C29.0384 47.3207 29.0369 47.498 29.019 47.6739C29.019 47.7727 28.9793 47.8822 29.0093 47.9686C29.266 48.6992 29.5387 49.4245 29.8034 50.1542C29.8599 50.3112 29.8775 50.4842 29.9437 50.6368C30.061 50.9086 30.2022 51.1662 30.3337 51.4362C30.5146 51.7997 30.6672 52.1818 30.8834 52.5233C31.1939 53.0156 31.5531 53.4779 31.8875 53.9562C31.9845 54.0965 32.0639 54.2465 32.1522 54.3973C32.2007 54.4856 32.2131 54.617 32.2836 54.662C32.7354 54.9347 32.783 55.4844 33.1095 55.8382C33.6336 56.4055 34.0615 57.0514 34.6977 57.5305C35.2589 57.9549 35.7265 58.5011 36.2612 58.9643C36.5609 59.224 36.8899 59.4479 37.2415 59.6314C37.6421 59.8378 37.7144 60.1396 37.4047 60.4528C37.013 60.8481 36.5145 61.1587 36.1615 61.5399C35.5606 62.1946 34.8998 62.8572 34.6271 63.7748C34.3792 64.606 34.1727 64.7207 33.323 64.7401C33.1154 64.7498 32.9088 64.776 32.7054 64.8186C32.5033 64.8486 32.3163 64.9086 32.1089 64.9642Z" fill="#FF7FEC"/>
<path d="M55.5209 60.4184C55.4089 60.452 55.2333 60.4537 55.1971 60.5252C54.9818 60.9505 54.6033 60.7846 54.2901 60.7775C54.1886 60.7775 54.0183 60.5737 54.0059 60.4511C53.9459 59.8387 53.9177 59.2229 53.9001 58.6079C53.8948 58.4032 53.9724 58.1976 53.9883 57.9902C53.9937 57.8234 53.9854 57.6563 53.9636 57.4908C53.9557 57.4105 53.8904 57.3214 53.9098 57.2535C54.2045 56.2282 53.6812 55.3467 53.3309 54.4732C53.1809 54.0974 53.0389 53.7215 52.9083 53.3341C52.7398 52.8347 52.491 52.3636 52.2907 51.8712C52.1945 51.6312 52.1654 51.3612 52.0542 51.1301C51.6757 50.3465 51.2275 50.3007 50.5834 50.8909C50.3066 51.1601 50.0634 51.4617 49.859 51.7892C49.7028 52.0239 49.6392 52.3186 49.4928 52.5603C49.3234 52.8427 49.161 53.178 48.9034 53.3491C48.2566 53.7903 47.4916 54.0647 47.0743 54.7873C46.4214 54.895 46.1664 55.5753 45.5964 55.8135C45.4058 55.8929 45.2796 56.117 45.0935 56.2185C44.6849 56.4408 44.2455 56.6076 43.8414 56.8361C43.665 56.9358 43.5485 57.1379 43.4003 57.2844C43.3279 57.3481 43.2472 57.4015 43.1603 57.4432C42.9494 57.5517 42.7376 57.6611 42.5197 57.7546C42.3017 57.8482 42.0891 57.9161 41.8738 57.9982C41.7688 58.0388 41.6391 58.0599 41.5659 58.134C41.1185 58.5902 40.5071 58.7067 39.9503 58.9282C39.8241 58.9784 39.7085 59.057 39.5841 59.1143C39.4077 59.1955 39.2021 59.3693 39.0547 59.3279C38.5624 59.1884 38.0383 59.1082 37.6933 58.622C37.5309 58.3926 37.1868 58.3008 36.9565 58.1085C36.6698 57.8693 36.4174 57.5888 36.1457 57.3302C35.7089 56.9138 35.2721 56.4973 34.8292 56.087C34.3395 55.6344 33.8375 55.195 33.3531 54.7362C33.2834 54.67 33.294 54.5253 33.2507 54.4247C33.1845 54.2721 33.1413 54.0444 33.0231 53.9915C32.4707 53.7409 32.499 53.1974 32.3049 52.7562C32.1822 52.48 31.9431 52.2568 31.7755 52C31.5987 51.7464 31.4392 51.4811 31.2981 51.2059C31.1772 50.9571 31.1781 50.6112 30.999 50.4374C30.6831 50.1304 30.646 49.7563 30.5455 49.3786C30.3505 48.6727 30.0919 47.9757 29.9375 47.261C29.8387 46.7978 29.8767 46.3037 29.8573 45.8228C29.8493 45.6357 29.8519 45.4478 29.8467 45.2599C29.8414 45.0834 29.8317 44.9122 29.8228 44.7393C29.814 44.5663 29.859 44.3475 29.7831 44.2011C29.4496 43.5596 29.6146 42.9746 29.9208 42.3923C29.9278 42.3799 29.9481 42.3684 29.9464 42.3596C29.8581 41.7782 30.2366 41.2549 30.1546 40.6717C30.1455 40.5639 30.1637 40.4556 30.2075 40.3567C30.2896 40.1573 30.4722 39.9641 30.4722 39.7708C30.4625 39.2414 30.8437 38.9053 31.0352 38.4791C31.2557 37.9885 31.4805 37.5003 31.7093 37.0144C31.9863 36.425 32.1663 35.8038 32.6295 35.2894C32.9966 34.8818 33.1898 34.3189 33.4625 33.823C33.4886 33.7742 33.5203 33.7286 33.5569 33.6871C34.1533 33.021 34.7427 32.3486 35.3533 31.6957C35.5792 31.4548 35.8563 31.2625 36.1112 31.0489C36.1527 31.0136 36.226 30.9942 36.2401 30.9528C36.4889 30.1966 37.2107 29.9822 37.778 29.5825C38.1865 29.2948 38.5615 28.9578 38.9815 28.6887C39.4015 28.4196 39.8709 28.1999 40.3165 27.9555C40.7082 27.741 41.0973 27.5222 41.4882 27.3061C41.7326 27.1711 41.9135 26.9708 42.2691 26.9919C42.5435 27.0078 42.8311 26.639 43.1179 26.6275C43.7285 26.6125 44.2923 26.2631 44.9329 26.4396C45.1826 26.5084 45.4843 26.3858 45.7632 26.3567C46.0984 26.3231 46.4355 26.2975 46.7708 26.2684C47.2314 26.2261 47.6963 26.114 48.149 26.152C48.8646 26.2128 49.5404 26.0328 50.2348 25.9631C50.5481 25.9314 50.8781 26.0902 51.2054 26.152C51.4516 26.1996 51.6995 26.2402 51.9474 26.2667C52.0877 26.2843 52.2333 26.2614 52.3719 26.287C52.9895 26.4034 53.6142 26.4881 54.2133 26.6655C54.7753 26.8322 55.3083 27.1013 55.8536 27.3255C55.9047 27.3458 55.9559 27.389 56.0062 27.3881C56.8338 27.3705 57.4726 27.8293 58.1406 28.2219C58.2514 28.2799 58.3704 28.3207 58.4935 28.3428C59.187 28.4972 59.7023 28.881 60.1699 29.4219C60.6111 29.931 61.2367 30.2813 61.7158 30.7666C62.214 31.2723 62.6675 31.8202 63.0711 32.4042C63.497 33.0201 63.8726 33.6692 64.1943 34.3453C64.5111 35.0115 64.7166 35.7306 64.9928 36.4171C65.1243 36.7462 65.3043 37.055 65.4657 37.3709C65.4975 37.4326 65.5875 37.4944 65.5778 37.5421C65.4728 38.0873 65.801 38.5012 65.989 38.9538C66.019 39.0186 66.0264 39.0916 66.0102 39.1611C65.7799 39.8317 66.0984 40.4573 66.1663 41.1023C66.2104 41.5355 66.3375 41.967 66.326 42.3967C66.3092 43.2884 66.2467 44.1786 66.139 45.064C65.9943 46.196 65.7913 47.3228 65.5769 48.4442C65.5257 48.7089 65.2937 48.9339 65.2072 49.1977C65.1516 49.3663 65.2152 49.5727 65.2143 49.7615C65.2143 49.8957 65.2381 50.1145 65.1772 50.148C64.7493 50.358 64.7025 50.7657 64.5472 51.1468C64.2581 51.8557 63.9303 52.5482 63.5652 53.2212C63.1713 53.9542 62.7356 54.6638 62.2602 55.3467C61.947 55.7879 61.5164 56.147 61.1449 56.5476C60.7735 56.9482 60.402 57.3929 60.005 57.7891C59.7403 58.0538 59.4076 58.2567 59.1341 58.517C58.8782 58.7614 58.7141 59.0984 58.2659 59.0817C58.1291 59.0817 57.9932 59.304 57.8432 59.4029C57.5944 59.567 57.3394 59.7249 57.0756 59.8634C56.8118 60.002 56.525 60.122 56.2462 60.2437C56.0194 60.3425 55.7874 60.4317 55.558 60.5261C55.5456 60.4872 55.5333 60.4528 55.5209 60.4184ZM41.0118 32.4863C40.05 32.4863 39.9238 32.5551 38.8712 32.9663C38.1653 33.2424 37.7947 33.8486 37.3006 34.3339C37.253 34.3869 37.2222 34.453 37.2124 34.5236C37.1374 35.0195 37.0624 35.5162 37.0042 36.0156C36.9486 36.4877 36.9115 36.9615 36.8736 37.4362C36.8621 37.5765 36.833 37.7397 36.8877 37.8571C37.0474 38.2029 37.2406 38.532 37.4295 38.8656C37.5318 39.0491 37.6006 39.2847 37.7568 39.395C38.4433 39.8952 38.9418 40.6929 39.8965 40.7838C39.9441 40.7838 39.9847 40.8791 40.0271 40.9302C40.2335 41.1782 40.4338 41.397 40.8212 41.2108C40.9297 41.1579 41.1159 41.2523 41.2623 41.2911C41.6153 41.3846 41.9894 41.6229 42.3017 41.5558C42.9529 41.4146 43.6191 41.1967 44.1838 40.8499C44.729 40.5191 45.1649 40.0011 45.6299 39.5467C46.1911 38.9979 46.282 38.2762 46.3137 37.5412C46.3217 37.355 46.3217 37.1679 46.3234 36.9809C46.3234 36.7647 46.3817 36.5274 46.3102 36.3377C46.1558 35.9265 46.0173 35.4553 45.7234 35.1589C45.074 34.4953 44.6135 33.6501 43.7523 33.1807C42.8161 32.6795 41.805 32.6045 41.0118 32.4863ZM51.4939 39.1523C51.546 39.3906 51.6633 39.7426 51.6872 40.1008C51.7101 40.4361 51.7692 40.692 52.0886 40.8711C52.2342 40.9532 52.3304 41.1358 52.431 41.2832C52.7389 41.7349 52.9983 42.2264 53.3521 42.6367C53.6009 42.9261 53.9804 43.062 54.3553 43.2225C55.2474 43.6046 56.2003 43.497 57.0906 43.7519C57.1232 43.7617 57.1682 43.7246 57.2088 43.7175C57.4824 43.669 57.7541 43.6081 58.0303 43.5781C58.3779 43.5393 58.6991 43.4811 58.8756 43.1228C58.9272 43.0211 59.0056 42.9354 59.1023 42.8749C60.3252 42.1329 60.5547 40.8861 60.7082 39.6306C60.7594 39.2159 60.5264 38.7703 60.5511 38.3467C60.5846 37.7609 60.2397 37.4335 59.87 37.1256C59.3485 36.6906 58.7891 36.2997 58.2359 35.9036C57.9712 35.7165 57.7065 35.4844 57.4109 35.4033C56.1509 35.0645 54.8865 34.6392 53.5604 35.068C53.4033 35.1183 53.2736 35.2647 53.1421 35.3794C53.079 35.4534 53.0201 35.5309 52.9657 35.6115C52.6074 36.0112 52.2404 36.4056 51.8901 36.8097C51.7963 36.9148 51.7331 37.0436 51.7075 37.1821C51.6298 37.7971 51.5733 38.4147 51.4939 39.1523ZM47.6805 47.4145L47.7908 47.351C47.669 47.126 47.5446 46.9019 47.4263 46.6742C47.392 46.5992 47.3625 46.522 47.3381 46.4431C47.2269 46.1281 47.054 45.9384 46.6746 46.0478C46.5218 46.0821 46.3633 46.0821 46.2105 46.0478C45.5328 45.9225 44.384 46.4448 44.0461 47.0572C44.0079 47.1575 43.9931 47.2653 44.0029 47.3722C43.9817 48.2439 44.5235 48.6957 45.2479 48.9816C45.5787 49.1122 45.9793 49.3107 46.2793 49.2277C46.9746 49.0336 47.7696 48.2669 47.6805 47.4145Z" fill="#FEDC57"/>
<path d="M51.1357 52.0618C51.4348 51.9903 51.5037 52.2982 51.5989 52.5285C51.7754 52.9697 51.8636 53.4523 52.1098 53.852C52.3207 54.1962 52.3154 54.5314 52.3551 54.8914C52.4029 55.2738 52.4859 55.651 52.603 56.0182C52.7283 56.4355 52.9745 56.8291 53.0283 57.2535C53.1024 57.842 53.0698 58.4481 53.0389 59.0446C53.0107 59.5802 52.9295 60.114 52.8625 60.6478C52.8078 61.0616 52.7328 61.4728 52.6666 61.8831C52.6622 61.9113 52.6392 61.9457 52.6489 61.9643C52.8986 62.4363 52.5969 62.8192 52.4486 63.2269C52.3401 63.5233 52.2386 63.8216 52.1266 64.1163C51.9925 64.4692 51.8619 64.8151 51.7066 65.1539C51.6263 65.3304 51.4851 65.476 51.3881 65.6445C51.2178 65.9383 51.0695 66.2454 50.894 66.5348C50.661 66.9177 50.4907 67.3377 50.0381 67.5671C49.8246 67.6765 49.7072 67.9686 49.5378 68.1706C49.2157 68.5527 48.7949 68.8835 48.5814 69.3177C48.2064 70.08 47.3787 70.2962 46.8714 70.9121C46.4108 71.4706 45.7702 71.9488 44.9867 72.0997C44.9241 72.1111 44.8702 72.1711 44.8102 72.21C44.4017 72.4835 44.0267 72.7394 43.4708 72.7676C42.9361 72.7985 42.4297 73.1664 41.8923 73.3217C41.4671 73.4444 41.0153 73.4805 40.5733 73.5361C40.2468 73.5776 39.9336 73.5264 39.6027 73.7126C39.3689 73.8423 38.978 73.702 38.6604 73.6588C38.2174 73.6082 37.7773 73.5342 37.3421 73.4373C36.9115 73.3323 36.496 73.1726 36.0742 73.0288C35.8095 72.9405 35.551 72.8523 35.3092 72.7641C35.2113 72.5876 35.0798 72.4261 35.0233 72.2347C34.9625 72.0317 34.8928 71.7723 34.9704 71.6029C35.0922 71.3382 35.0348 71.1538 34.9554 70.897C34.7922 70.3676 34.7145 69.8118 34.6166 69.2638C34.5601 68.9488 34.4816 68.625 34.501 68.31C34.5451 67.598 34.5363 66.8542 34.7534 66.1924C34.9192 65.6851 35.0375 65.1636 35.2122 64.681C35.378 64.223 35.5651 63.6469 36.0998 63.3469C36.2842 63.2428 36.3319 62.9145 36.5101 62.7804C37.0651 62.3604 37.3139 61.5998 38.078 61.4075C38.2545 61.3625 38.4106 61.1746 38.5527 61.0299C39.2859 60.2869 40.2441 60.0213 41.1997 59.7222C41.5588 59.6093 41.8703 59.3464 42.2056 59.1549C42.6009 58.9299 43.0138 58.7323 43.3923 58.4817C44.1776 57.9602 44.9346 57.3964 45.7234 56.882C46.0305 56.6817 46.4143 56.5979 46.7249 56.4011C47.0108 56.2246 47.2358 55.9458 47.5058 55.7358C47.8905 55.4341 48.2919 55.1517 48.6872 54.8641C48.7616 54.8264 48.8322 54.7818 48.8981 54.7309C49.3851 54.1767 49.8687 53.6165 50.3513 53.0615C50.4678 52.9282 50.616 52.8179 50.7237 52.6794C50.8498 52.5127 50.9566 52.3291 51.1357 52.0618Z" fill="#FB5018"/>
</svg>
