<svg width="77" height="77" viewBox="0 0 77 77" fill="none" xmlns="http://www.w3.org/2000/svg">
<g clip-path="url(#clip0_167_3578)">
<path d="M36.2496 71.8011C55.8819 71.8011 71.797 55.886 71.797 36.2537C71.797 16.6214 55.8819 0.706299 36.2496 0.706299C16.6173 0.706299 0.702179 16.6214 0.702179 36.2537C0.702179 55.886 16.6173 71.8011 36.2496 71.8011Z" fill="#FFEFB3"/>
<path d="M36.2495 60.6695C30.1672 60.6732 24.3024 58.407 19.803 54.3143C15.3036 50.2217 12.4934 44.5972 11.9225 38.5418L13.3266 38.4106C13.8696 44.1147 16.5194 49.4114 20.7586 53.2663C24.9978 57.1211 30.5218 59.2572 36.2516 59.2572C41.9814 59.2572 47.5054 57.1211 51.7446 53.2663C55.9838 49.4114 58.6337 44.1147 59.1766 38.4106L60.5808 38.5418C60.0097 44.5979 57.199 50.223 52.6987 54.3157C48.1984 58.4085 42.3325 60.6743 36.2495 60.6695Z" fill="#1E1E1E"/>
<path d="M4.67359 28.0828C3.27994 27.2372 2.16844 25.9972 1.47976 24.5198C0.791072 23.0423 0.556156 21.3937 0.804738 19.7827C1.05332 18.1717 1.77423 16.6706 2.87623 15.4694C3.97822 14.2683 5.41178 13.421 6.99548 13.0349C7.63929 12.8781 8.29949 12.7986 8.96211 12.798C10.4673 12.7993 11.9432 13.2132 13.2295 13.9949L16.0462 15.6866L17.7379 12.8699C18.8753 10.9984 20.7096 9.65533 22.8372 9.13621C23.8907 8.87917 24.9845 8.83215 26.0562 8.99783C27.1279 9.16351 28.1564 9.53865 29.0831 10.1018C30.0098 10.665 30.8165 11.4052 31.4571 12.2801C32.0977 13.1551 32.5597 14.1476 32.8168 15.2011C33.0738 16.2546 33.1208 17.3484 32.9552 18.4201C32.7895 19.4917 32.4143 20.5203 31.8512 21.447L30.5062 23.6843L21.5697 38.3558L4.67359 28.0828Z" fill="#C1BEF3"/>
<path d="M41.9973 23.6842L40.6523 21.468C39.5619 19.6004 39.2487 17.3793 39.7802 15.283C40.3116 13.1867 41.6452 11.383 43.4937 10.2605C45.3422 9.13797 47.5576 8.78645 49.6628 9.28163C51.768 9.77681 53.5944 11.0791 54.7486 12.9079L56.4404 15.7246L59.2571 14.0329C60.5432 13.2508 62.0193 12.8368 63.5245 12.836C64.1871 12.8365 64.8473 12.9161 65.4911 13.0728C67.0748 13.459 68.5084 14.3063 69.6104 15.5074C70.7124 16.7086 71.4333 18.2097 71.6819 19.8207C71.9304 21.4317 71.6955 23.0803 71.0068 24.5578C70.3181 26.0352 69.2066 27.2752 67.813 28.1207L50.8957 38.3938L41.9973 23.6842Z" fill="#C1BEF3"/>
<path d="M74.6432 29.6052C75.3296 28.5699 75.7924 27.4028 76.0022 26.1784C76.212 24.9541 76.1641 23.6995 75.8616 22.4947C75.5591 21.29 75.0087 20.1615 74.2454 19.1815C73.4822 18.2015 72.523 17.3914 71.429 16.8031C71.3528 16.6677 71.2809 16.5324 71.2006 16.3801C70.5908 15.3754 69.7886 14.501 68.84 13.8071C67.8914 13.1133 66.8151 12.6137 65.6729 12.3369C64.9807 12.1677 64.2708 12.0811 63.5582 12.0789H63.2748C59.8796 8.27384 55.7185 5.2292 51.0644 3.14451C46.4103 1.05983 41.3682 -0.0178223 36.2686 -0.0178223C31.1689 -0.0178223 26.1268 1.05983 21.4727 3.14451C16.8186 5.2292 12.6575 8.27384 9.26226 12.0789H8.9789C8.25924 12.0797 7.54225 12.1664 6.8431 12.3369C5.44629 12.6756 4.15155 13.3456 3.06831 14.2903C1.98507 15.235 1.14518 16.4265 0.61962 17.7643C0.094059 19.102 -0.101722 20.5467 0.0488257 21.976C0.199373 23.4054 0.691823 24.7775 1.48455 25.9765C-0.487897 32.6535 -0.494568 39.7576 1.46534 46.4384C3.42525 53.1192 7.26871 59.0937 12.5358 63.647C17.9638 69.8907 25.3647 74.0892 33.5089 75.5451C41.6531 77.0009 50.0503 75.6264 57.3053 71.6499C64.5603 67.6733 70.2363 61.3342 73.3903 53.6857C76.5443 46.0372 76.9865 37.5397 74.6432 29.6052ZM62.6616 13.555C62.9533 13.5175 63.2472 13.4992 63.5413 13.5C63.8624 13.5001 64.1831 13.5212 64.5013 13.5634C64.7866 13.596 65.0692 13.6483 65.3472 13.7199C66.4224 13.9814 67.4268 14.4768 68.2886 15.1709C69.1505 15.8649 69.8486 16.7406 70.3333 17.7354C70.818 18.7302 71.0772 19.8196 71.0926 20.9261C71.108 22.0326 70.8792 23.1288 70.4224 24.1367C70.1751 24.7004 69.8552 25.2293 69.4708 25.71C68.9138 26.4196 68.2332 27.0228 67.4619 27.4906L65.2499 28.8355L51.1748 37.3872L42.5977 23.2993L41.257 21.0789C40.7143 20.2328 40.3463 19.2867 40.1746 18.2963C40.003 17.3058 40.0313 16.291 40.2577 15.3117C40.4842 14.3323 40.9043 13.4081 41.4933 12.5935C42.0823 11.779 42.8283 11.0904 43.6873 10.5685C44.5464 10.0466 45.5012 9.70174 46.4956 9.55435C47.4899 9.40697 48.5037 9.45999 49.4773 9.71029C50.4508 9.96059 51.3645 10.4031 52.1644 11.0118C52.9644 11.6205 53.6345 12.3831 54.1353 13.2547L55.4802 15.4666L56.2119 16.672L57.4172 15.9403L59.6334 14.5954C60.5558 14.034 61.5889 13.679 62.6616 13.555ZM2.50805 17.1245C3.02036 16.278 3.69522 15.5413 4.49371 14.957C5.29219 14.3726 6.19848 13.9522 7.16029 13.7199C7.43834 13.6485 7.72096 13.5962 8.00616 13.5634C8.32586 13.5212 8.64797 13.5 8.97044 13.5C9.26455 13.4993 9.5584 13.5177 9.85014 13.555C10.9214 13.6796 11.9529 14.0346 12.8741 14.5954L15.086 15.9403L16.2914 16.672L17.0231 15.4666L18.368 13.2547C19.4055 11.5458 21.0794 10.3191 23.0215 9.84437C23.9831 9.60932 24.9815 9.56597 25.9599 9.7168C26.9382 9.86763 27.8773 10.2097 28.7235 10.7234C29.5696 11.2372 30.3063 11.9126 30.8914 12.711C31.4766 13.5095 31.8987 14.4153 32.1338 15.3769C32.3688 16.3385 32.4122 17.337 32.2613 18.3153C32.1105 19.2937 31.7684 20.2328 31.2547 21.0789L29.914 23.2951L21.3454 37.3872L7.25334 28.827L5.03718 27.4906C4.27224 27.0208 3.59642 26.4194 3.04094 25.7142C2.65665 25.2311 2.33546 24.701 2.08512 24.1367C1.58055 23.0215 1.35537 21.8001 1.42906 20.5783C1.50275 19.3565 1.8731 18.171 2.50805 17.1245ZM2.57572 27.3214C3.09431 27.8457 3.67524 28.3045 4.30551 28.6875L6.52167 30.0281L21.8233 39.3326L31.1278 24.0437L32.4727 21.8233C33.7066 19.7941 34.0838 17.358 33.5215 15.0507C32.9592 12.7434 31.5033 10.754 29.4742 9.52019C27.445 8.28634 25.0089 7.90909 22.7016 8.47143C20.3943 9.03378 18.4049 10.4897 17.1711 12.5188L15.8262 14.7349L13.6142 13.3858C12.7969 12.8904 11.9061 12.5278 10.9751 12.3115C14.2257 8.86674 18.1457 6.12229 22.4947 4.24651C26.8437 2.37074 31.5301 1.40318 36.2664 1.40318C41.0028 1.40318 45.6891 2.37074 50.0382 4.24651C54.3872 6.12229 58.3072 8.86674 61.5577 12.3115C60.6284 12.5286 59.7391 12.8911 58.9229 13.3858L56.7109 14.7349L55.366 12.5188C54.7551 11.5143 53.9523 10.6401 53.0035 9.94587C52.0546 9.25168 50.9784 8.75118 49.8361 8.47293C48.6939 8.19468 47.508 8.14414 46.3462 8.32419C45.1844 8.50425 44.0695 8.91137 43.0651 9.52231C42.0606 10.1332 41.1863 10.936 40.4922 11.8849C39.798 12.8337 39.2975 13.9099 39.0192 15.0522C38.741 16.1945 38.6904 17.3803 38.8705 18.5421C39.0505 19.7039 39.4576 20.8188 40.0686 21.8233L41.4093 24.0437L50.7138 39.3326L65.9774 30.0281L68.1935 28.6875C68.8253 28.3067 69.4065 27.8477 69.9233 27.3214C71.1956 32.112 71.4311 37.1189 70.614 42.0077C69.7969 46.8966 67.9461 51.5548 65.1852 55.6713C62.4242 59.7879 58.8167 63.2679 54.6036 65.879C50.3905 68.4902 45.6687 70.1723 40.7537 70.8131C35.8386 71.4539 30.8434 71.0385 26.1016 69.5948C21.3599 68.1512 16.9807 65.7123 13.2567 62.4413C9.53263 59.1702 6.54939 55.1422 4.5062 50.6262C2.46301 46.1103 1.40691 41.2104 1.40843 36.2537C1.40608 33.2381 1.79851 30.2351 2.57572 27.3214Z" fill="#1E1E1E"/>
</g>
<defs>
<clipPath id="clip0_167_3578">
<rect width="76.1277" height="76.1234" fill="white"/>
</clipPath>
</defs>
</svg>
