<svg width="86" height="74" viewBox="0 0 86 74" fill="none" xmlns="http://www.w3.org/2000/svg">
<g clip-path="url(#clip0_167_3567)">
<path d="M36.1006 17.8095C31.2101 14.587 25.4769 12.8806 19.6202 12.9042C13.7613 12.8796 8.02583 14.5879 3.13513 17.8142C3.23447 17.4973 3.33853 17.1945 3.4426 16.8682C6.77746 7.1616 12.7707 0.671631 19.6249 0.671631C26.4791 0.671631 32.463 7.15686 35.7931 16.8729C35.8972 17.1804 36.0012 17.502 36.1006 17.8095Z" fill="#C1BEF3"/>
<path d="M38.5697 34.5312C38.5764 37.9674 38.2804 41.3975 37.6852 44.7818C35.2585 58.4996 28.0874 68.4001 19.6202 68.4001C11.1529 68.4001 3.98181 58.4665 1.55517 44.7818C0.962299 41.3972 0.666318 37.9673 0.670607 34.5312C0.653805 29.9262 1.19382 25.3361 2.27891 20.8607C2.53434 19.82 2.82289 18.8077 3.13036 17.8191C8.02163 14.5897 13.759 12.8797 19.6202 12.9043C25.4767 12.8818 31.2096 14.5882 36.1005 17.8096C36.4127 18.7888 36.6965 19.8058 36.9567 20.8465C38.0457 25.3261 38.5873 29.9212 38.5697 34.5312Z" fill="white"/>
<path d="M77.9069 17.8096C73.0061 14.6072 67.2785 12.9018 61.4242 12.9018C55.5698 12.9018 49.8423 14.6072 44.9415 17.8096C45.0408 17.4927 45.1496 17.1899 45.2537 16.8636C48.5649 7.1428 54.5865 0.652832 61.4313 0.652832C68.276 0.652832 74.2646 7.15698 77.5758 16.873C77.6988 17.1805 77.8075 17.5021 77.9069 17.8096Z" fill="#C1BEF3"/>
<path d="M80.3761 34.5313C80.3804 37.9673 80.0844 41.3972 79.4915 44.7818C77.0602 58.4997 69.889 68.4002 61.4265 68.4002C52.964 68.4002 45.7882 58.4665 43.3568 44.7818C42.7639 41.3972 42.468 37.9673 42.4722 34.5313C42.4569 29.926 42.9985 25.3359 44.0853 20.8607C44.336 19.82 44.6245 18.8078 44.9367 17.8191C49.8371 14.6155 55.5648 12.9094 61.4194 12.9094C67.274 12.9094 73.0018 14.6155 77.9021 17.8191C78.2191 18.7983 78.5029 19.8153 78.7583 20.856C79.8482 25.3323 80.3914 29.9242 80.3761 34.5313Z" fill="white"/>
<path d="M83.5076 24.7867C83.2427 23.7035 82.9494 22.6628 82.6419 21.7026C82.5379 21.3857 82.4338 21.0687 82.325 20.7565C80.1301 14.347 76.9088 9.53154 73.1435 6.76432C69.8228 2.41718 65.7501 0 61.4266 0C54.473 0 48.1817 6.2298 44.6104 16.6648V16.7169C44.511 17.0149 44.407 17.3129 44.3124 17.6156C43.9718 18.7083 43.688 19.7159 43.4514 20.6998C42.9163 22.8445 42.5119 25.0197 42.2405 27.2134C42.0797 26.395 41.9046 25.5862 41.706 24.7867C41.4363 23.7035 41.1478 22.6628 40.8356 21.7026C40.7363 21.3857 40.6275 21.0687 40.5234 20.7565C38.3143 14.347 35.1119 9.53154 31.3419 6.76432C28.026 2.41718 23.9532 0 19.6202 0C12.6714 0 6.38486 6.2298 2.80403 16.6648V16.7169C2.69996 17.0149 2.60062 17.3129 2.50602 17.6156C2.14652 18.7083 1.89108 19.7159 1.62618 20.6998C0.527416 25.2276 -0.0189687 29.8719 -0.00103747 34.5312C-0.00496816 38.0068 0.294173 41.4762 0.892988 44.9C2.66212 54.8714 6.7822 62.5723 12.0044 66.4039C15.3157 70.7037 19.3695 73.1729 23.7167 73.1729C32.3542 73.1729 39.8801 63.4569 42.4439 48.9964C42.6236 47.9936 42.7703 46.9813 42.9169 45.9548C44.7807 55.4154 48.7967 62.719 53.8344 66.4086C57.1456 70.7037 61.19 73.1729 65.5419 73.1729C74.1747 73.1729 81.7006 63.4569 84.2691 48.9964C84.8619 45.5737 85.1547 42.1059 85.1443 38.6323C85.1649 33.9677 84.6153 29.318 83.5076 24.7867ZM19.6202 1.3434C25.6939 1.3434 31.4791 7.01976 34.8565 16.2533C30.2179 13.6008 24.9636 12.2142 19.6202 12.2325C14.2725 12.2132 9.01406 13.6032 4.37448 16.2628C7.75665 7.03395 13.5465 1.3434 19.6202 1.3434ZM2.43033 45.8082C3.82294 47.6273 5.77036 48.9431 7.97772 49.5563C10.1851 50.1695 12.5321 50.0468 14.6635 49.2067C16.7948 48.3666 18.5944 46.8549 19.7897 44.9004C20.985 42.946 21.5109 40.6553 21.2877 38.3753C21.0646 36.0952 20.1046 33.95 18.5531 32.2643C17.0016 30.5787 14.9431 29.4446 12.6893 29.0336C10.4355 28.6227 8.10917 28.9573 6.06258 29.9868C4.016 31.0163 2.36061 32.6847 1.3471 34.7393C1.3471 34.6731 1.3471 34.6021 1.3471 34.5312C1.3269 29.9804 1.85901 25.444 2.93175 21.0214C3.14934 20.1321 3.40477 19.2239 3.70278 18.2495C8.44 15.1742 13.9724 13.5498 19.6202 13.5759C25.2635 13.5516 30.7915 15.1724 35.5282 18.24C35.8026 19.1104 36.0627 20.0375 36.304 21.0072C37.3833 25.4336 37.9186 29.9751 37.8981 34.5312C37.903 37.9275 37.6118 41.3177 37.0277 44.6634C34.5774 58.4617 27.5671 67.7284 19.6202 67.7284C11.8767 67.7284 5.05092 58.9631 2.43033 45.7987V45.8082ZM61.4266 1.3434C67.4955 1.3434 73.2854 7.01976 76.6628 16.2533C72.0166 13.6149 66.765 12.2278 61.4218 12.2278C56.0787 12.2278 50.8271 13.6149 46.1808 16.2533C49.563 7.03395 55.3434 1.3434 61.4266 1.3434ZM44.2319 45.8082C45.6199 47.6265 47.5616 48.9441 49.7641 49.5622C51.9665 50.1803 54.3103 50.0654 56.4417 49.2347C58.5731 48.4041 60.3765 46.9028 61.5799 44.9574C62.7833 43.012 63.3214 40.728 63.113 38.45C62.9046 36.1719 61.961 34.0235 60.4246 32.3287C58.8881 30.634 56.8422 29.4849 54.5955 29.0548C52.3487 28.6247 50.023 28.9369 47.9693 29.9444C45.9156 30.9519 44.2452 32.6 43.2102 34.6399L43.1534 33.9115C43.1816 29.5711 43.7133 25.2487 44.7381 21.0309C44.951 20.1416 45.2111 19.2334 45.5044 18.2589C50.2528 15.2106 55.7768 13.5902 61.4195 13.5902C67.0621 13.5902 72.5861 15.2106 77.3345 18.2589C77.6089 19.1293 77.8691 20.0564 78.1056 21.0262C79.185 25.4462 79.7219 29.9813 79.7044 34.5312C79.7078 37.9276 79.415 41.3179 78.8293 44.6634C76.3838 58.4617 69.3687 67.7284 61.4266 67.7284C53.6831 67.7284 46.8573 58.9631 44.2319 45.7987V45.8082Z" fill="#1E1E1E"/>
<path d="M56.2707 39.6728C58.4495 39.6728 60.2158 37.9066 60.2158 35.7278C60.2158 33.549 58.4495 31.7827 56.2707 31.7827C54.0919 31.7827 52.3256 33.549 52.3256 35.7278C52.3256 37.9066 54.0919 39.6728 56.2707 39.6728Z" fill="white"/>
<path d="M14.469 39.6728C16.6478 39.6728 18.4141 37.9066 18.4141 35.7278C18.4141 33.549 16.6478 31.7827 14.469 31.7827C12.2902 31.7827 10.5239 33.549 10.5239 35.7278C10.5239 37.9066 12.2902 39.6728 14.469 39.6728Z" fill="white"/>
</g>
<defs>
<clipPath id="clip0_167_3567">
<rect width="85.1453" height="73.1729" fill="white"/>
</clipPath>
</defs>
</svg>
