<svg width="243" height="163" viewBox="0 0 243 163" fill="none" xmlns="http://www.w3.org/2000/svg">
<path d="M157.205 99.4291C156.752 99.0865 156.185 98.9152 155.5 98.9152C154.907 98.9152 154.385 99.0786 153.937 99.408C153.589 99.6637 153.323 100.014 153.135 100.452L153.114 99.0786H152.292V108.398H153.196V105.109C153.28 105.288 153.386 105.46 153.518 105.615C153.75 105.889 154.039 106.105 154.382 106.266C154.725 106.427 155.096 106.506 155.5 106.506C156.185 106.506 156.757 106.335 157.213 105.992C157.669 105.649 158.011 105.193 158.241 104.621C158.47 104.05 158.583 103.414 158.583 102.711C158.583 102.007 158.467 101.369 158.233 100.8C158.001 100.228 157.658 99.7718 157.205 99.4291ZM157.034 104.864C156.641 105.386 156.106 105.644 155.431 105.644C154.983 105.644 154.59 105.528 154.253 105.294C153.916 105.062 153.655 104.724 153.473 104.287C153.291 103.849 153.199 103.322 153.199 102.711C153.199 102.099 153.291 101.572 153.473 101.134C153.655 100.697 153.913 100.36 154.248 100.128C154.582 99.8956 154.973 99.777 155.421 99.777C156.106 99.777 156.646 100.038 157.039 100.557C157.432 101.079 157.629 101.796 157.629 102.708C157.629 103.62 157.432 104.339 157.039 104.859L157.034 104.864Z" fill="#FFFAF4"/>
<path d="M161.53 106.342H162.229V105.533H161.654C161.472 105.533 161.335 105.489 161.243 105.396C161.151 105.304 161.106 105.172 161.106 104.998V96.6115H160.202V105.067C160.202 105.504 160.32 105.829 160.557 106.034C160.795 106.24 161.119 106.342 161.53 106.342Z" fill="#FFFAF4"/>
<path d="M163.736 103.122C163.351 103.47 163.161 103.944 163.161 104.548C163.161 105.151 163.38 105.628 163.82 105.979C164.258 106.329 164.843 106.506 165.575 106.506C166.005 106.506 166.406 106.43 166.783 106.279C167.157 106.129 167.471 105.924 167.721 105.663C167.895 105.481 168.027 105.283 168.122 105.075C168.137 105.338 168.18 105.557 168.243 105.726C168.33 105.955 168.467 106.119 168.654 106.219C168.841 106.319 169.076 106.369 169.36 106.369C169.434 106.369 169.505 106.369 169.574 106.361C169.642 106.356 169.695 106.351 169.732 106.34V105.531H169.513C169.339 105.531 169.213 105.489 169.136 105.402C169.06 105.315 169.02 105.149 169.02 104.901V101.873C169.02 100.924 168.783 100.191 168.309 99.6796C167.834 99.1683 167.144 98.9126 166.24 98.9126C165.425 98.9126 164.766 99.1208 164.26 99.5373C163.754 99.9537 163.43 100.512 163.293 101.216L164.252 101.298C164.363 100.813 164.582 100.439 164.911 100.175C165.241 99.9115 165.684 99.7771 166.24 99.7771C166.87 99.7771 167.341 99.9484 167.652 100.291C167.963 100.634 168.119 101.166 168.119 101.888L165.433 102.394C164.692 102.531 164.131 102.774 163.746 103.122H163.736ZM168.108 102.697V103.425C168.108 103.855 168.008 104.239 167.808 104.582C167.608 104.925 167.323 105.196 166.959 105.396C166.593 105.597 166.161 105.697 165.657 105.697C165.154 105.697 164.793 105.589 164.519 105.375C164.244 105.162 164.107 104.856 164.107 104.463C164.107 104.115 164.229 103.839 164.471 103.628C164.714 103.417 165.096 103.262 165.615 103.161L168.108 102.695V102.697Z" fill="#FFFAF4"/>
<path d="M171.467 104.643C171.467 105.217 171.609 105.647 171.891 105.924C172.173 106.203 172.613 106.343 173.207 106.343H174.248V105.533H173.288C172.977 105.533 172.748 105.465 172.595 105.328C172.445 105.191 172.368 104.954 172.368 104.616V99.8877H174.245V99.0786H172.368V97.3785H171.464V99.0786H170.326V99.8877H171.464V104.643H171.467Z" fill="#FFFAF4"/>
<path d="M175.742 103.122C175.357 103.47 175.167 103.944 175.167 104.548C175.167 105.151 175.386 105.628 175.826 105.979C176.263 106.329 176.849 106.506 177.581 106.506C178.011 106.506 178.412 106.43 178.788 106.279C179.163 106.129 179.476 105.924 179.727 105.663C179.901 105.481 180.032 105.283 180.127 105.075C180.143 105.338 180.185 105.557 180.249 105.726C180.336 105.955 180.473 106.119 180.66 106.219C180.847 106.319 181.082 106.369 181.366 106.369C181.44 106.369 181.511 106.369 181.58 106.361C181.648 106.356 181.701 106.351 181.738 106.34V105.531H181.519C181.345 105.531 181.219 105.489 181.142 105.402C181.066 105.315 181.026 105.149 181.026 104.901V101.873C181.026 100.924 180.789 100.191 180.315 99.6796C179.84 99.1683 179.15 98.9126 178.245 98.9126C177.431 98.9126 176.772 99.1208 176.266 99.5373C175.76 99.9537 175.436 100.512 175.299 101.216L176.258 101.298C176.369 100.813 176.588 100.439 176.917 100.175C177.247 99.9115 177.689 99.7771 178.245 99.7771C178.875 99.7771 179.347 99.9484 179.658 100.291C179.969 100.634 180.125 101.166 180.125 101.888L177.439 102.394C176.698 102.531 176.137 102.774 175.752 103.122H175.742ZM180.114 102.697V103.425C180.114 103.855 180.014 104.239 179.814 104.582C179.613 104.925 179.329 105.196 178.965 105.396C178.599 105.597 178.166 105.697 177.663 105.697C177.16 105.697 176.798 105.589 176.524 105.375C176.25 105.162 176.113 104.856 176.113 104.463C176.113 104.115 176.234 103.839 176.477 103.628C176.719 103.417 177.102 103.262 177.621 103.161L180.114 102.695V102.697Z" fill="#FFFAF4"/>
<path d="M183.403 106.342H184.307V99.8876H186.171V99.0785H184.307V98.3932C184.307 98.0822 184.384 97.8423 184.539 97.6736C184.695 97.505 184.937 97.4206 185.267 97.4206H186.239V96.6115H185.198C184.587 96.6115 184.134 96.767 183.841 97.078C183.548 97.389 183.403 97.8054 183.403 98.3247V99.0785H182.375V99.8876H183.403V106.342Z" fill="#FFFAF4"/>
<path d="M188.29 106.042C188.778 106.353 189.353 106.509 190.012 106.509C190.67 106.509 191.24 106.353 191.725 106.042C192.21 105.731 192.584 105.291 192.848 104.719C193.111 104.147 193.246 103.478 193.246 102.711C193.246 101.944 193.114 101.264 192.848 100.697C192.581 100.13 192.207 99.6927 191.725 99.3817C191.24 99.0707 190.67 98.9152 190.012 98.9152C189.353 98.9152 188.781 99.0707 188.29 99.3817C187.803 99.6927 187.426 100.13 187.16 100.697C186.894 101.264 186.762 101.936 186.762 102.711C186.762 103.485 186.894 104.147 187.16 104.719C187.426 105.291 187.803 105.731 188.29 106.042ZM188.325 100.568C188.736 100.043 189.297 99.7797 190.012 99.7797C190.726 99.7797 191.285 100.043 191.69 100.568C192.096 101.092 192.299 101.809 192.299 102.713C192.299 103.617 192.096 104.334 191.69 104.859C191.285 105.383 190.723 105.647 190.012 105.647C189.3 105.647 188.736 105.383 188.325 104.859C187.914 104.334 187.708 103.617 187.708 102.713C187.708 101.809 187.914 101.095 188.325 100.568Z" fill="#FFFAF4"/>
<path d="M196.15 99.553C195.918 99.7875 195.739 100.117 195.615 100.539L195.576 99.0812H194.795V106.345H195.699V101.917C195.699 101.514 195.765 101.169 195.897 100.876C196.029 100.584 196.224 100.357 196.48 100.199C196.735 100.038 197.046 99.9589 197.413 99.9589H198.072V99.0812H197.442C196.893 99.0812 196.464 99.2393 196.153 99.553H196.15Z" fill="#FFFAF4"/>
<path d="M200.111 101.999C200.111 101.543 200.19 101.145 200.351 100.808C200.512 100.47 200.733 100.204 201.015 100.012C201.297 99.8193 201.624 99.7244 201.988 99.7244C202.528 99.7244 202.921 99.9273 203.174 100.333C203.424 100.739 203.551 101.295 203.551 101.999V106.343H204.455V102.039C204.455 101.572 204.534 101.166 204.695 100.818C204.856 100.47 205.074 100.201 205.354 100.009C205.633 99.8166 205.955 99.7218 206.321 99.7218C206.843 99.7218 207.241 99.9142 207.52 100.296C207.8 100.681 207.939 101.232 207.939 101.954V106.34H208.843V101.68C208.843 101.106 208.751 100.61 208.569 100.199C208.387 99.7877 208.121 99.4714 207.773 99.2473C207.425 99.0233 207.009 98.9126 206.527 98.9126C206.115 98.9126 205.746 98.9969 205.417 99.1656C205.087 99.3343 204.821 99.5768 204.616 99.8931C204.484 100.093 204.386 100.323 204.313 100.576C204.191 100.13 203.986 99.7666 203.691 99.4819C203.298 99.1024 202.805 98.9126 202.209 98.9126C201.817 98.9126 201.461 98.9969 201.139 99.1656C200.82 99.3343 200.554 99.5689 200.343 99.872C200.219 100.049 200.127 100.244 200.056 100.457L200.027 99.0786H199.205V106.343H200.109V101.999H200.111Z" fill="#FFFAF4"/>
<path d="M210.966 103.122C210.581 103.47 210.391 103.944 210.391 104.548C210.391 105.151 210.61 105.628 211.05 105.979C211.488 106.329 212.073 106.506 212.805 106.506C213.235 106.506 213.636 106.43 214.013 106.279C214.387 106.129 214.701 105.924 214.951 105.663C215.125 105.481 215.257 105.283 215.352 105.075C215.367 105.338 215.41 105.557 215.473 105.726C215.56 105.955 215.697 106.119 215.884 106.219C216.071 106.319 216.306 106.369 216.59 106.369C216.664 106.369 216.735 106.369 216.804 106.361C216.872 106.356 216.925 106.351 216.962 106.34V105.531H216.743C216.569 105.531 216.443 105.489 216.366 105.402C216.29 105.315 216.25 105.149 216.25 104.901V101.873C216.25 100.924 216.013 100.191 215.539 99.6796C215.064 99.1683 214.374 98.9126 213.47 98.9126C212.655 98.9126 211.996 99.1208 211.49 99.5373C210.984 99.9537 210.66 100.512 210.523 101.216L211.482 101.298C211.593 100.813 211.812 100.439 212.141 100.175C212.471 99.9115 212.913 99.7771 213.47 99.7771C214.1 99.7771 214.571 99.9484 214.882 100.291C215.193 100.634 215.349 101.166 215.349 101.888L212.663 102.394C211.922 102.531 211.361 102.774 210.976 103.122H210.966ZM215.338 102.697V103.425C215.338 103.855 215.238 104.239 215.038 104.582C214.838 104.925 214.553 105.196 214.189 105.396C213.823 105.597 213.391 105.697 212.887 105.697C212.384 105.697 212.023 105.589 211.749 105.375C211.474 105.162 211.337 104.856 211.337 104.463C211.337 104.115 211.459 103.839 211.701 103.628C211.944 103.417 212.326 103.262 212.845 103.161L215.338 102.695V102.697Z" fill="#FFFAF4"/>
<path d="M153.225 120.538C153.681 120.849 154.226 121.005 154.856 121.005C155.386 121.005 155.868 120.871 156.303 120.602C156.738 120.333 157.055 119.961 157.255 119.484L157.297 120.842H158.093V111.11H157.189V114.853C156.997 114.416 156.693 114.065 156.277 113.804C155.861 113.543 155.389 113.414 154.859 113.414C154.229 113.414 153.686 113.57 153.227 113.881C152.771 114.192 152.418 114.629 152.173 115.196C151.928 115.762 151.804 116.435 151.804 117.21C151.804 117.984 151.928 118.659 152.173 119.223C152.418 119.787 152.771 120.227 153.227 120.538H153.225ZM153.362 115.064C153.773 114.54 154.321 114.276 155.007 114.276C155.463 114.276 155.853 114.4 156.179 114.645C156.504 114.893 156.754 115.235 156.925 115.673C157.099 116.11 157.186 116.624 157.186 117.207C157.186 117.789 157.099 118.306 156.925 118.749C156.751 119.192 156.504 119.534 156.179 119.777C155.855 120.019 155.465 120.14 155.007 120.14C154.321 120.14 153.773 119.877 153.362 119.344C152.951 118.815 152.745 118.103 152.745 117.207C152.745 116.311 152.951 115.589 153.362 115.061V115.064Z" fill="#FFFAF4"/>
<path d="M161.145 120.517C161.63 120.841 162.218 121.005 162.914 121.005C163.673 121.005 164.311 120.799 164.832 120.388C165.354 119.977 165.705 119.452 165.887 118.812L164.914 118.743C164.785 119.163 164.553 119.503 164.216 119.758C163.878 120.014 163.443 120.143 162.914 120.143C162.22 120.143 161.667 119.911 161.256 119.45C160.845 118.989 160.621 118.33 160.584 117.47H166.011V117.183C166.011 116.424 165.884 115.762 165.634 115.196C165.383 114.629 165.02 114.192 164.545 113.881C164.071 113.57 163.509 113.414 162.858 113.414C162.207 113.414 161.604 113.577 161.124 113.902C160.644 114.226 160.275 114.674 160.02 115.246C159.764 115.818 159.635 116.471 159.635 117.212C159.635 117.953 159.764 118.609 160.025 119.178C160.286 119.75 160.657 120.198 161.142 120.523L161.145 120.517ZM161.308 114.89C161.712 114.479 162.226 114.273 162.858 114.273C163.491 114.273 163.997 114.476 164.379 114.882C164.764 115.288 164.977 115.881 165.022 116.656H160.581C160.663 115.889 160.905 115.299 161.308 114.887V114.89Z" fill="#FFFAF4"/>
<path d="M172.36 114.663L172.332 113.549H170.961V122.895H172.413V119.843C172.498 119.998 172.598 120.14 172.722 120.27C172.946 120.502 173.217 120.683 173.536 120.81C173.855 120.936 174.198 121.002 174.564 121.002C175.276 121.002 175.863 120.826 176.325 120.475C176.786 120.125 177.128 119.661 177.353 119.084C177.577 118.509 177.687 117.876 177.687 117.191C177.687 116.506 177.574 115.876 177.353 115.299C177.128 114.724 176.786 114.26 176.325 113.907C175.863 113.556 175.276 113.38 174.564 113.38C174.016 113.38 173.531 113.52 173.112 113.799C172.793 114.01 172.542 114.3 172.36 114.661V114.663ZM174.306 114.645C174.891 114.645 175.349 114.869 175.684 115.317C176.019 115.765 176.185 116.39 176.185 117.194C176.185 117.998 176.019 118.625 175.684 119.07C175.349 119.518 174.891 119.742 174.306 119.742C173.921 119.742 173.586 119.65 173.299 119.46C173.012 119.273 172.793 118.989 172.64 118.604C172.487 118.219 172.413 117.75 172.413 117.191C172.413 116.632 172.49 116.163 172.645 115.778C172.801 115.394 173.019 115.109 173.304 114.922C173.586 114.735 173.921 114.64 174.306 114.64V114.645Z" fill="#FFFAF4"/>
<path d="M180.455 114.935L180.415 113.549H179.087V120.839H180.539V116.535C180.539 116.142 180.6 115.823 180.724 115.575C180.848 115.328 181.032 115.146 181.28 115.027C181.528 114.909 181.833 114.848 182.197 114.848H182.895V113.546H182.197C181.675 113.546 181.264 113.696 180.956 113.999C180.734 114.218 180.568 114.529 180.455 114.935Z" fill="#FFFAF4"/>
<path d="M189.901 115.18C189.619 114.613 189.216 114.173 188.694 113.857C188.172 113.541 187.566 113.385 186.87 113.385C186.174 113.385 185.568 113.543 185.046 113.857C184.524 114.171 184.124 114.613 183.839 115.18C183.557 115.747 183.415 116.419 183.415 117.194C183.415 117.969 183.557 118.633 183.839 119.208C184.121 119.782 184.524 120.228 185.046 120.536C185.568 120.847 186.174 121.002 186.87 121.002C187.566 121.002 188.172 120.847 188.694 120.536C189.216 120.225 189.616 119.782 189.901 119.208C190.183 118.633 190.325 117.961 190.325 117.194C190.325 116.427 190.183 115.747 189.901 115.18ZM188.312 119.065C187.974 119.519 187.495 119.743 186.873 119.743C186.251 119.743 185.784 119.516 185.441 119.065C185.099 118.612 184.927 117.99 184.927 117.194C184.927 116.398 185.099 115.776 185.441 115.323C185.784 114.869 186.261 114.645 186.873 114.645C187.484 114.645 187.974 114.872 188.312 115.323C188.649 115.776 188.818 116.398 188.818 117.194C188.818 117.99 188.649 118.612 188.312 119.065Z" fill="#FFFAF4"/>
<path d="M196.643 120.839H198V111.108H196.548V114.577C196.347 114.202 196.05 113.91 195.657 113.699C195.264 113.488 194.816 113.383 194.313 113.383C193.691 113.383 193.153 113.538 192.694 113.849C192.238 114.16 191.885 114.6 191.64 115.172C191.392 115.744 191.271 116.416 191.271 117.194C191.271 117.971 191.392 118.643 191.635 119.215C191.877 119.787 192.228 120.227 192.689 120.538C193.15 120.849 193.691 121.005 194.313 121.005C194.824 121.005 195.283 120.894 195.691 120.67C196.097 120.446 196.4 120.138 196.603 119.745L196.645 120.842L196.643 120.839ZM196.326 118.564C196.179 118.949 195.97 119.242 195.696 119.442C195.422 119.642 195.087 119.742 194.695 119.742C194.11 119.742 193.643 119.513 193.298 119.057C192.95 118.601 192.776 117.979 192.776 117.194C192.776 116.408 192.95 115.776 193.298 115.322C193.646 114.869 194.11 114.645 194.695 114.645C195.087 114.645 195.422 114.743 195.696 114.94C195.97 115.138 196.181 115.425 196.326 115.805C196.471 116.184 196.545 116.648 196.545 117.196C196.545 117.745 196.471 118.182 196.326 118.567V118.564Z" fill="#FFFAF4"/>
<path d="M199.714 113.548V118.235C199.714 119.102 199.93 119.782 200.365 120.27C200.8 120.76 201.382 121.002 202.112 121.002C202.761 121.002 203.291 120.831 203.702 120.488C203.968 120.267 204.168 119.977 204.316 119.632L204.334 120.839H205.692V113.548H204.239V117.824C204.239 118.446 204.092 118.928 203.794 119.271C203.496 119.613 203.082 119.785 202.553 119.785C202.086 119.785 201.738 119.629 201.511 119.318C201.282 119.007 201.169 118.522 201.169 117.866V113.548H199.717H199.714Z" fill="#FFFAF4"/>
<path d="M208.061 111.835V113.548H206.951V114.74H208.061V118.865C208.061 119.542 208.224 120.04 208.554 120.359C208.883 120.678 209.394 120.839 210.088 120.839H211.445V119.647H210.404C210.103 119.647 209.879 119.584 209.732 119.455C209.587 119.326 209.513 119.094 209.513 118.757V114.74H211.445V113.548H209.513V111.835H208.061Z" fill="#FFFAF4"/>
<path d="M217.449 113.857C216.927 113.541 216.321 113.385 215.625 113.385C214.93 113.385 214.323 113.543 213.801 113.857C213.28 114.171 212.879 114.613 212.594 115.18C212.312 115.747 212.17 116.419 212.17 117.194C212.17 117.969 212.312 118.633 212.594 119.208C212.876 119.782 213.28 120.228 213.801 120.536C214.323 120.847 214.93 121.002 215.625 121.002C216.321 121.002 216.927 120.847 217.449 120.536C217.971 120.225 218.372 119.782 218.656 119.208C218.938 118.633 219.081 117.961 219.081 117.194C219.081 116.427 218.938 115.747 218.656 115.18C218.374 114.613 217.971 114.173 217.449 113.857ZM217.064 119.065C216.727 119.519 216.247 119.743 215.625 119.743C215.003 119.743 214.537 119.516 214.194 119.065C213.852 118.612 213.68 117.99 213.68 117.194C213.68 116.398 213.852 115.776 214.194 115.323C214.537 114.869 215.014 114.645 215.625 114.645C216.237 114.645 216.727 114.872 217.064 115.323C217.402 115.776 217.57 116.398 217.57 117.194C217.57 117.99 217.402 118.612 217.064 119.065Z" fill="#FFFAF4"/>
<path d="M225.111 117.16C224.681 116.972 224.088 116.814 223.329 116.688C222.936 116.625 222.62 116.548 222.383 116.461C222.146 116.374 221.974 116.263 221.869 116.126C221.763 115.989 221.711 115.81 221.711 115.591C221.711 115.299 221.824 115.062 222.053 114.88C222.283 114.698 222.628 114.606 223.095 114.606C223.395 114.606 223.656 114.658 223.875 114.764C224.093 114.869 224.27 115.014 224.402 115.201C224.534 115.388 224.623 115.61 224.668 115.865L226.162 115.784C226.099 115.336 225.946 114.932 225.704 114.571C225.461 114.21 225.127 113.923 224.697 113.707C224.267 113.493 223.738 113.385 223.108 113.385C222.167 113.385 221.447 113.596 220.949 114.015C220.451 114.437 220.203 114.98 220.203 115.647C220.203 116.05 220.29 116.393 220.464 116.675C220.638 116.957 220.931 117.191 221.342 117.373C221.753 117.555 222.32 117.716 223.042 117.853C223.527 117.934 223.891 118.019 224.138 118.106C224.386 118.193 224.552 118.298 224.639 118.422C224.726 118.546 224.768 118.694 224.768 118.868C224.768 119.186 224.636 119.421 224.37 119.566C224.104 119.711 223.743 119.785 223.287 119.785C222.728 119.785 222.314 119.666 222.04 119.429C221.766 119.192 221.592 118.873 221.518 118.47L220.024 118.538C220.061 119.023 220.206 119.45 220.461 119.819C220.717 120.188 221.081 120.478 221.55 120.689C222.022 120.9 222.599 121.005 223.284 121.005C223.869 121.005 224.386 120.921 224.834 120.752C225.282 120.583 225.633 120.338 225.888 120.019C226.144 119.7 226.273 119.31 226.273 118.854C226.273 118.462 226.186 118.127 226.012 117.853C225.838 117.579 225.538 117.347 225.108 117.16H225.111Z" fill="#FFFAF4"/>
<path d="M153.162 135.035C153.623 135.346 154.164 135.501 154.786 135.501C155.297 135.501 155.755 135.391 156.164 135.167C156.57 134.942 156.873 134.634 157.076 134.241L157.118 135.338H158.476V125.607H157.023V129.075C156.823 128.701 156.525 128.409 156.132 128.198C155.74 127.987 155.292 127.881 154.788 127.881C154.166 127.881 153.628 128.037 153.17 128.348C152.714 128.659 152.361 129.099 152.116 129.671C151.868 130.243 151.747 130.915 151.747 131.693C151.747 132.47 151.868 133.142 152.11 133.714C152.353 134.286 152.703 134.726 153.165 135.037L153.162 135.035ZM153.771 129.819C154.119 129.365 154.583 129.141 155.168 129.141C155.56 129.141 155.895 129.239 156.169 129.436C156.443 129.634 156.654 129.921 156.799 130.301C156.944 130.681 157.018 131.144 157.018 131.693C157.018 132.241 156.944 132.678 156.799 133.063C156.652 133.448 156.443 133.741 156.169 133.941C155.895 134.141 155.56 134.241 155.168 134.241C154.583 134.241 154.116 134.012 153.771 133.556C153.423 133.1 153.249 132.478 153.249 131.693C153.249 130.907 153.423 130.275 153.771 129.821V129.819Z" fill="#FFFAF4"/>
<path d="M161.638 128.045H160.186V135.335H161.638V128.045Z" fill="#FFFAF4"/>
<path d="M161.667 125.536H160.16V126.988H161.667V125.536Z" fill="#FFFAF4"/>
<path d="M168.354 129.197C168.18 128.794 167.895 128.475 167.497 128.238C167.099 128 166.641 127.882 166.119 127.882C165.526 127.882 164.993 128.032 164.522 128.335C164.05 128.636 163.686 129.052 163.425 129.582C163.164 130.112 163.035 130.728 163.035 131.432C163.035 132.136 163.167 132.739 163.433 133.269C163.699 133.799 164.068 134.215 164.543 134.516C165.017 134.816 165.563 134.969 166.174 134.969C166.649 134.969 167.078 134.858 167.463 134.64C167.848 134.421 168.125 134.123 168.299 133.749V134.803C168.299 135.325 168.135 135.712 167.811 135.968C167.487 136.224 167.023 136.353 166.419 136.353C165.908 136.353 165.526 136.263 165.276 136.087C165.025 135.907 164.849 135.668 164.748 135.367L163.241 135.462C163.341 135.881 163.533 136.25 163.815 136.566C164.097 136.883 164.458 137.125 164.899 137.299C165.339 137.473 165.845 137.56 166.419 137.56C167.105 137.56 167.695 137.452 168.193 137.238C168.691 137.022 169.074 136.709 169.345 136.292C169.614 135.876 169.748 135.367 169.748 134.764V128.048H168.351V129.2L168.354 129.197ZM167.772 133.116C167.429 133.527 166.976 133.733 166.409 133.733C165.842 133.733 165.378 133.525 165.046 133.108C164.711 132.692 164.545 132.128 164.545 131.416C164.545 130.705 164.709 130.154 165.033 129.737C165.357 129.321 165.816 129.113 166.411 129.113C166.796 129.113 167.131 129.207 167.418 129.395C167.706 129.582 167.927 129.848 168.083 130.191C168.238 130.533 168.312 130.942 168.301 131.416C168.293 132.138 168.117 132.705 167.774 133.116H167.772Z" fill="#FFFAF4"/>
<path d="M172.987 128.045H171.535V135.335H172.987V128.045Z" fill="#FFFAF4"/>
<path d="M173.013 125.536H171.506V126.988H173.013V125.536Z" fill="#FFFAF4"/>
<path d="M175.194 126.332V128.045H174.084V129.236H175.194V133.361C175.194 134.038 175.357 134.537 175.686 134.856C176.016 135.174 176.527 135.335 177.22 135.335H178.578V134.144H177.537C177.236 134.144 177.012 134.081 176.865 133.951C176.72 133.822 176.646 133.59 176.646 133.253V129.236H178.578V128.045H176.646V126.332H175.194Z" fill="#FFFAF4"/>
<path d="M179.956 132.041C179.576 132.391 179.387 132.884 179.387 133.514C179.387 134.144 179.613 134.634 180.064 134.98C180.517 135.328 181.121 135.502 181.88 135.502C182.31 135.502 182.71 135.43 183.079 135.288C183.448 135.146 183.754 134.953 183.997 134.706C184.147 134.553 184.26 134.384 184.344 134.202C184.371 134.405 184.416 134.582 184.482 134.727C184.592 134.959 184.758 135.127 184.982 135.227C185.206 135.328 185.473 135.378 185.784 135.378C185.894 135.378 185.997 135.372 186.1 135.364C186.2 135.357 186.274 135.346 186.319 135.338V134.186H186.058C185.921 134.186 185.823 134.152 185.762 134.084C185.702 134.015 185.673 133.894 185.673 133.72V130.884C185.673 129.935 185.415 129.197 184.898 128.67C184.381 128.145 183.63 127.882 182.644 127.882C181.777 127.882 181.071 128.093 180.528 128.512C179.985 128.933 179.645 129.508 179.508 130.238L181.002 130.333C181.103 129.932 181.284 129.627 181.551 129.421C181.817 129.215 182.181 129.113 182.647 129.113C183.169 129.113 183.562 129.252 183.825 129.532C184.089 129.811 184.223 130.233 184.223 130.799L181.714 131.279C180.918 131.435 180.333 131.688 179.953 132.041H179.956ZM184.226 131.896V132.362C184.226 132.747 184.139 133.09 183.965 133.39C183.791 133.691 183.549 133.928 183.238 134.097C182.926 134.265 182.552 134.35 182.115 134.35C181.73 134.35 181.432 134.265 181.216 134.097C181.002 133.928 180.894 133.688 180.894 133.377C180.894 133.103 180.984 132.876 181.161 132.7C181.34 132.521 181.648 132.391 182.086 132.31L184.223 131.899L184.226 131.896Z" fill="#FFFAF4"/>
<path d="M188.857 128.045H187.405V135.335H188.857V128.045Z" fill="#FFFAF4"/>
<path d="M188.886 125.536H187.378V126.988H188.886V125.536Z" fill="#FFFAF4"/>
<path d="M196.123 134.513C196.379 134.194 196.508 133.804 196.508 133.348C196.508 132.955 196.421 132.62 196.247 132.346C196.073 132.072 195.773 131.84 195.343 131.653C194.914 131.466 194.321 131.308 193.562 131.181C193.169 131.118 192.853 131.042 192.615 130.955C192.378 130.868 192.207 130.757 192.101 130.62C191.996 130.483 191.943 130.304 191.943 130.085C191.943 129.792 192.057 129.555 192.286 129.373C192.515 129.191 192.86 129.099 193.327 129.099C193.627 129.099 193.888 129.152 194.107 129.257C194.326 129.363 194.502 129.508 194.634 129.695C194.766 129.882 194.856 130.103 194.9 130.359L196.395 130.277C196.332 129.829 196.179 129.426 195.936 129.065C195.694 128.704 195.359 128.416 194.929 128.2C194.5 127.987 193.97 127.879 193.34 127.879C192.399 127.879 191.68 128.09 191.181 128.509C190.683 128.93 190.436 129.473 190.436 130.14C190.436 130.543 190.523 130.886 190.697 131.168C190.87 131.45 191.163 131.685 191.574 131.867C191.985 132.048 192.552 132.209 193.274 132.346C193.759 132.428 194.123 132.512 194.371 132.599C194.618 132.686 194.784 132.792 194.871 132.916C194.958 133.04 195.001 133.187 195.001 133.361C195.001 133.68 194.869 133.915 194.603 134.06C194.336 134.204 193.975 134.278 193.519 134.278C192.961 134.278 192.547 134.16 192.273 133.922C191.999 133.685 191.825 133.366 191.751 132.963L190.256 133.032C190.293 133.517 190.438 133.944 190.694 134.313C190.95 134.682 191.313 134.971 191.782 135.182C192.254 135.393 192.831 135.499 193.517 135.499C194.102 135.499 194.618 135.414 195.067 135.246C195.515 135.077 195.865 134.832 196.121 134.513H196.123Z" fill="#FFFAF4"/>
<path d="M18.4585 75.7999V123.008C18.4585 128.235 19.6208 132.133 21.9429 134.79C24.1833 137.528 27.8337 138.854 32.8943 138.854C33.9723 138.854 35.0503 138.77 36.1309 138.606C37.2089 138.522 38.2052 138.274 39.1172 138.026L38.3713 129.647C37.7914 129.813 37.1272 129.895 36.463 129.98C35.7988 130.064 35.1346 130.064 34.5548 130.064C32.3988 130.064 30.8226 129.4 29.8263 127.99C28.83 126.661 28.3319 124.919 28.3319 122.763V75.8052H18.4585V75.7999Z" fill="#FFFAF4"/>
<path d="M53.6344 83.499C52.5564 82.421 51.1463 81.9229 49.5701 81.9229C47.994 81.9229 46.5839 82.421 45.5059 83.499C44.3435 84.577 43.7637 85.8211 43.7637 87.3155C43.7637 88.8917 44.3435 90.1357 45.5059 91.2137C46.5839 92.2917 47.994 92.7899 49.5701 92.7899C51.1463 92.7899 52.5564 92.2917 53.6344 91.2137C54.7124 90.1357 55.2949 88.8917 55.2949 87.3155C55.2949 85.8211 54.715 84.577 53.6344 83.499Z" fill="#FFFAF4"/>
<path d="M54.4647 96.7909H44.5913V138.024H54.4647V96.7909Z" fill="#FFFAF4"/>
<path d="M70.7245 80.2806C68.0703 83.2669 66.7419 87.4155 66.7419 92.8081V96.9567H60.519V105.254H66.7419V138.026H76.4493V105.254H88.9768V96.9567H76.4493V92.2283C76.4493 90.0697 76.9474 88.164 77.9437 86.5852C78.94 85.0091 80.6822 84.1788 83.0886 84.1788C84.1666 84.1788 85.2446 84.2606 86.407 84.3449C87.5693 84.4266 88.8134 84.7587 90.0574 85.1751L91.4675 77.044C90.2235 76.6302 88.6473 76.3798 86.9051 76.132C85.1629 75.8843 83.4207 75.7999 81.6785 75.7999C76.95 75.7999 73.2996 77.2944 70.7271 80.2806H70.7245Z" fill="#FFFAF4"/>
<path d="M110.55 138.024C113.289 138.024 115.695 137.444 117.851 136.366C120.007 135.288 121.833 133.712 123.328 131.803V136.698C123.328 139.436 122.416 141.677 120.589 143.335C118.681 145.077 116.275 145.907 113.289 145.907C111.38 145.907 109.306 145.741 107.232 145.409C105.157 145.077 102.917 144.497 100.595 143.582L99.1005 152.46C101.673 153.371 104.161 153.954 106.486 154.283C108.726 154.697 110.966 154.863 113.041 154.863C116.111 154.863 118.847 154.449 121.338 153.535C123.826 152.623 125.985 151.379 127.727 149.718C129.469 148.142 130.798 146.15 131.791 143.828C132.703 141.506 133.201 138.933 133.201 136.113V96.7881H123.328V120.515C122.664 123.087 121.501 125.243 119.759 126.904C118.017 128.562 115.943 129.392 113.455 129.392C110.966 129.392 108.808 128.562 107.398 126.819C105.988 125.161 105.239 122.837 105.239 119.769V96.7881H95.3657V120.599C95.3657 126.158 96.6941 130.388 99.2639 133.459C101.836 136.529 105.653 138.021 110.547 138.021L110.55 138.024Z" fill="#FFFAF4"/>
<path d="M87.6304 13.3362C86.1939 13.3362 84.9077 13.7895 83.9246 14.7726C82.865 15.7558 82.3379 16.8891 82.3379 18.2491C82.3379 19.6856 82.8677 20.819 83.9246 21.8021C84.9077 22.7852 86.1939 23.2385 87.6304 23.2385C89.0668 23.2385 90.3531 22.7852 91.3362 21.8021C92.3193 20.819 92.8491 19.6856 92.8491 18.2491C92.8491 16.8891 92.3193 15.7531 91.3362 14.7726C90.3531 13.7895 89.0668 13.3362 87.6304 13.3362Z" fill="#FFFAF4"/>
<path d="M92.0921 26.8865H83.0938V64.4638H92.0921V26.8865Z" fill="#FFFAF4"/>
<path d="M132.54 31.4989C131.103 29.7594 129.364 28.4731 127.324 27.49C125.281 26.5833 122.938 26.13 120.445 26.13C117.951 26.13 115.605 26.5833 113.716 27.49C111.749 28.3967 110.086 29.6829 108.8 31.2696V7.75647H99.8018V64.4637H108.8V59.9277C110.086 61.5144 111.749 62.8006 113.716 63.7837C115.682 64.7668 117.951 65.2202 120.521 65.2202C123.091 65.2202 125.36 64.7668 127.4 63.7837C129.443 62.877 131.18 61.5908 132.616 59.8512C134.053 58.1117 135.112 56.0716 135.943 53.652C136.775 51.2325 137.152 48.5862 137.152 45.6369C137.152 42.6875 136.775 40.0413 135.943 37.6217C135.11 35.2785 133.976 33.2359 132.54 31.4989ZM125.281 54.1818C123.542 56.3747 121.122 57.4343 118.175 57.4343C115.832 57.4343 113.866 56.8281 112.277 55.6183C110.69 54.4849 109.48 52.8218 108.797 50.7027V40.7977C109.477 38.6812 110.687 37.0181 112.277 35.8083C113.863 34.5985 115.829 33.9949 118.175 33.9949C121.125 33.9949 123.544 35.0545 125.281 37.171C127.021 39.3639 127.927 42.1604 127.927 45.6395C127.927 49.1186 127.021 51.9916 125.281 54.1818Z" fill="#FFFAF4"/>
<path d="M17.6469 64.3348H26.0574L25.8018 62.7955C25.1402 58.8261 24.7343 54.8567 24.5946 50.9928C24.4549 47.1763 24.6605 43.7314 25.2087 40.761C25.7359 37.896 26.6505 35.5739 27.9288 33.8581C29.0806 32.3109 30.6119 31.5571 32.6177 31.5571C34.4047 31.5571 36.0125 31.9445 37.391 32.7063C38.5059 33.323 39.5206 34.0267 40.4062 34.8016C39.2096 36.6045 38.2212 38.5391 37.4648 40.5633C36.5713 42.9565 36.0046 45.4315 35.7832 47.9222C35.4854 51.2458 35.7226 54.0107 36.4869 56.1403C37.2566 58.2832 38.3082 59.999 39.6155 61.2378C40.9255 62.4818 42.3567 63.3358 43.8696 63.7733C45.3192 64.1951 46.5474 64.398 47.6254 64.398C48.2949 64.398 49.0619 64.2715 49.9765 64.0079C50.9438 63.7312 51.8874 63.1961 52.7835 62.4239C53.6612 61.6674 54.4466 60.629 55.1214 59.3375C55.7961 58.0407 56.2284 56.367 56.4076 54.3612C56.6712 51.404 56.5209 48.647 55.9622 46.1642C55.4166 43.7393 54.7497 41.586 53.9775 39.7673C53.2052 37.9487 52.4409 36.4674 51.7029 35.3657C51.5131 35.081 51.3523 34.8465 51.2179 34.6461C51.5342 34.3826 51.8531 34.1164 52.1747 33.8528C52.7308 33.3968 53.3713 32.9856 54.0803 32.6272C54.7787 32.274 55.5774 31.992 56.4577 31.7917C57.3433 31.5887 58.4002 31.4886 59.5994 31.4886C60.7012 31.4886 61.6131 31.8365 62.3854 32.5508C63.2684 33.3705 64.0301 34.4775 64.6495 35.8401C65.2979 37.266 65.8118 38.9371 66.1755 40.8058C66.5498 42.7325 66.8397 44.7198 67.0348 46.7177C67.2298 48.7261 67.3405 50.7213 67.3669 52.6428C67.3932 54.5826 67.3932 56.338 67.3695 57.8641C67.3458 59.3717 67.2694 61.0981 67.1455 62.9905L67.0532 64.398H74.0642L75.2635 64.3927L75.3768 63.1988C75.3821 63.1329 75.4453 62.5583 75.5639 61.4645C75.6878 60.339 75.8091 58.834 75.9303 56.989C76.0489 55.1493 76.099 53.0276 76.0832 50.6897C76.0647 48.3334 75.9092 45.9138 75.6246 43.4968C75.3346 41.0562 74.8628 38.6313 74.2224 36.2908C73.5634 33.8792 72.6251 31.7073 71.4391 29.8307C70.2187 27.9014 68.661 26.3147 66.8055 25.1128C64.8946 23.874 62.5462 23.2467 59.8288 23.2467C56.6158 23.2467 53.7587 23.8872 51.3391 25.1497C49.4098 26.1565 47.6465 27.2952 46.0888 28.5339C42.2565 25.0706 37.8944 23.3126 33.1159 23.3126C29.3863 23.3126 26.2261 24.4196 23.7196 26.6072C21.2815 28.7342 19.4234 31.6599 18.1925 35.3077C16.9932 38.858 16.3317 43.0883 16.2289 47.8748C16.1235 52.6085 16.5399 57.7745 17.4624 63.2304L17.6495 64.3321L17.6469 64.3348ZM44.0092 48.1594C44.1964 46.064 44.7288 44.0161 45.5907 42.0578C45.7963 42.4979 45.9887 42.9486 46.1679 43.402C46.6608 44.6566 47.0825 45.9375 47.4225 47.2053C47.7572 48.4573 47.9892 49.696 48.1183 50.8821C48.2422 52.055 48.2633 53.1488 48.1737 54.1319C48.1078 54.8673 47.9575 55.4841 47.723 55.969C47.6412 56.1377 47.5885 56.1667 47.5806 56.1667C46.9612 56.1667 46.4868 55.9954 46.0835 55.6316C45.5749 55.1704 45.1452 54.5668 44.8079 53.8315C44.452 53.0592 44.2043 52.1657 44.0751 51.1799C43.9407 50.1599 43.917 49.1452 44.0066 48.1647L44.0092 48.1594Z" fill="#FFFAF4"/>
</svg>
