<svg width="90" height="83" viewBox="0 0 90 83" fill="none" xmlns="http://www.w3.org/2000/svg">
<g clip-path="url(#clip0_167_3583)">
<path d="M77.2717 52.0652C79.1162 54.1225 80.3065 56.6825 80.6908 59.4188C81.3796 64.5525 79.0407 69.7506 74.1052 74.0716C69.1698 78.3926 62.4355 81.2171 54.9035 82.2231C53.0184 82.4827 51.1177 82.6135 49.2148 82.6145C43.764 82.6145 38.5659 81.5293 34.2449 79.4233C28.3382 76.5641 24.7109 72.1638 24.0172 67.0351C23.4671 62.9074 24.8695 58.735 28.0111 55.0136L27.8525 54.5924C27.7708 54.3732 27.6405 54.1753 27.4715 54.0136C27.3025 53.8519 27.0991 53.7305 26.8765 53.6585C26.6539 53.5865 26.4179 53.5659 26.1862 53.598C25.9545 53.6301 25.733 53.7143 25.5384 53.8441L18.9429 58.2197C18.4405 58.5334 17.8558 58.6899 17.2638 58.6691C16.6718 58.6484 16.0995 58.4512 15.6203 58.103C15.1411 57.7548 14.7769 57.2714 14.5743 56.7148C14.3717 56.1581 14.3399 55.5537 14.4832 54.9789L16.6139 47.3478C16.6761 47.1204 16.6847 46.8817 16.6391 46.6504C16.5936 46.4192 16.4951 46.2016 16.3513 46.0148C16.2131 45.8254 16.0339 45.6695 15.8272 45.5589C15.6204 45.4482 15.3914 45.3855 15.1571 45.3755L7.22863 45.0435C6.62984 45.0172 6.05337 44.8086 5.5763 44.4458C5.09924 44.0829 4.74431 43.5831 4.55898 43.0131C4.37365 42.4431 4.36675 41.8301 4.5392 41.2561C4.71165 40.682 5.05523 40.1743 5.52401 39.8008L11.728 34.8753C11.9107 34.73 12.0583 34.5454 12.1597 34.3352C12.2611 34.125 12.3138 33.8946 12.3138 33.6612C12.3138 33.4278 12.2611 33.1975 12.1597 32.9873C12.0583 32.777 11.9107 32.5924 11.728 32.4472L5.56365 27.5216C5.1022 27.1463 4.7653 26.6399 4.59736 26.0693C4.42942 25.4986 4.43831 24.8905 4.62287 24.325C4.80744 23.7595 5.159 23.2632 5.63124 22.9015C6.10348 22.5398 6.67423 22.3296 7.26827 22.2988L15.1967 21.9668C15.4256 21.9477 15.6475 21.8788 15.8469 21.7649C16.0464 21.6511 16.2185 21.495 16.3513 21.3077C16.4898 21.1183 16.5833 20.8997 16.6245 20.6687C16.6657 20.4377 16.6536 20.2004 16.5892 19.9747L14.4584 12.3485C14.2967 11.7706 14.3164 11.1569 14.515 10.5906C14.7135 10.0243 15.0812 9.53258 15.5684 9.18211C16.0513 8.82411 16.6336 8.62513 17.2347 8.6127C17.8357 8.60027 18.4258 8.77501 18.9231 9.11273L25.5186 13.4833C25.7132 13.6131 25.9346 13.6973 26.1664 13.7294C26.3981 13.7616 26.6341 13.7409 26.8566 13.6689C27.0792 13.5969 27.2827 13.4755 27.4517 13.3138C27.6207 13.1521 27.751 12.9542 27.8327 12.7351L30.5928 5.30211C30.8026 4.74004 31.1792 4.25549 31.672 3.91338C32.1649 3.57127 32.7505 3.38794 33.3504 3.38794C33.9504 3.38794 34.536 3.57127 35.0289 3.91338C35.5217 4.25549 35.8983 4.74004 36.1081 5.30211L38.8731 12.7351C38.9556 12.9536 39.0863 13.1508 39.2554 13.312C39.4246 13.4732 39.6278 13.5942 39.8501 13.666C40.0724 13.7379 40.308 13.7588 40.5395 13.7272C40.771 13.6955 40.9924 13.6122 41.1872 13.4833L47.7827 9.11273C48.2819 8.78002 48.871 8.60809 49.4708 8.62003C50.0706 8.63197 50.6524 8.82722 51.138 9.17953C51.6236 9.53185 51.9897 10.0244 52.1871 10.5909C52.3846 11.1574 52.4039 11.7707 52.2425 12.3485L50.1464 19.9747C50.0812 20.2 50.0684 20.4371 50.1087 20.6681C50.1491 20.8991 50.2416 21.1179 50.3793 21.3077C50.5178 21.4957 50.6963 21.6506 50.902 21.7611C51.1077 21.8717 51.3354 21.9352 51.5686 21.9469L52.5993 21.9866C54.3942 19.4583 56.7481 17.378 59.4779 15.9075C62.2077 14.437 65.2399 13.6158 68.3387 13.5079C71.4375 13.4 74.5195 14.0083 77.345 15.2854C80.1704 16.5625 82.6633 18.474 84.6298 20.8713C86.5962 23.2687 87.9833 26.0873 88.6831 29.108C89.3829 32.1286 89.3767 35.27 88.6648 38.2879C87.953 41.3058 86.5547 44.1188 84.5787 46.5083C82.6027 48.8978 80.1022 50.7994 77.2717 52.0652Z" fill="#1E1E1E"/>
<path d="M80.845 18.3772C83.3672 21.8251 84.7291 25.985 84.7343 30.257C84.7341 34.144 83.6118 37.9482 81.5021 41.2129C79.3925 44.4776 76.3853 47.0638 72.8416 48.6609C74.6823 50.7195 75.8736 53.2761 76.2657 56.0096C76.9495 61.1384 74.6304 66.3464 69.6751 70.6674C64.814 74.9141 58.0005 77.8228 50.4784 78.8139C48.5916 79.0734 46.6893 79.2042 44.7847 79.2053C39.6186 79.2773 34.5024 78.1867 29.8148 76.0141C23.9081 73.1549 20.2808 68.7596 19.5871 63.6259C19.037 59.4982 20.4394 55.3208 23.581 51.6044L23.4225 51.1832C23.3419 50.9637 23.2125 50.7654 23.0442 50.6031C22.8759 50.4408 22.6729 50.3188 22.4506 50.2463C22.2283 50.1738 21.9925 50.1527 21.7609 50.1845C21.5292 50.2163 21.3078 50.3002 21.1133 50.43L14.5129 54.8105C14.0125 55.1417 13.4228 55.312 12.8228 55.2987C12.2229 55.2854 11.6413 55.089 11.1562 54.7359C10.671 54.3828 10.3053 53.8898 10.1081 53.323C9.91098 52.7562 9.89178 52.1427 10.0531 51.5647L12.1789 43.9385C12.2446 43.7121 12.2578 43.4737 12.2176 43.2415C12.1773 43.0092 12.0846 42.7891 11.9465 42.598C11.8085 42.407 11.6287 42.2499 11.4208 42.1387C11.2129 42.0275 10.9824 41.9652 10.7468 41.9564L2.81837 41.6244C2.22027 41.6021 1.64343 41.3967 1.16579 41.036C0.688139 40.6753 0.332697 40.1768 0.147471 39.6076C-0.0428918 39.0389 -0.0521827 38.4252 0.120879 37.851C0.29394 37.2768 0.640834 36.7704 1.11375 36.4016L7.34255 31.476C7.52598 31.3304 7.67393 31.145 7.77522 30.9338C7.87652 30.7226 7.92851 30.4912 7.92728 30.257C7.92556 30.0222 7.86966 29.7909 7.76395 29.5812C7.65823 29.3714 7.50555 29.189 7.31778 29.0479L1.11375 24.1223C0.651412 23.7486 0.313085 23.2436 0.14331 22.6738C-0.0264643 22.1041 -0.0197279 21.4963 0.162633 20.9304C0.344993 20.3646 0.694429 19.8672 1.16494 19.5038C1.63545 19.1404 2.20498 18.928 2.79855 18.8945L10.727 18.5576C10.9626 18.5488 11.1931 18.4865 11.401 18.3753C11.6089 18.2641 11.7887 18.107 11.9267 17.9159C12.0648 17.7249 12.1575 17.5048 12.1977 17.2725C12.238 17.0403 12.2248 16.8018 12.1591 16.5754L10.0333 8.94925C9.87338 8.37159 9.89365 7.75888 10.0914 7.19305C10.2891 6.62722 10.6549 6.13525 11.1397 5.7829C11.6246 5.43055 12.2055 5.23463 12.8048 5.22133C13.404 5.20804 13.993 5.378 14.493 5.70849L21.0935 10.0741C21.2885 10.2019 21.5098 10.2843 21.741 10.3151C21.9721 10.3459 22.2072 10.3243 22.4289 10.252C22.6506 10.1797 22.8533 10.0585 23.0218 9.89731C23.1903 9.73614 23.3205 9.53915 23.4026 9.3209L26.1677 1.88796C26.3763 1.3254 26.7522 0.840179 27.2447 0.497521C27.7372 0.154864 28.3228 -0.0288086 28.9228 -0.0288086C29.5228 -0.0288086 30.1085 0.154864 30.601 0.497521C31.0935 0.840179 31.4694 1.3254 31.678 1.88796L34.443 9.3209C34.5264 9.53941 34.6576 9.73649 34.8271 9.89765C34.9966 10.0588 35.2 10.18 35.4224 10.2522C35.6448 10.3244 35.8806 10.3459 36.1125 10.3151C36.3443 10.2843 36.5663 10.2019 36.7621 10.0741L43.3526 5.69362C43.8522 5.36017 44.442 5.18782 45.0425 5.19978C45.643 5.21175 46.2255 5.40745 46.7114 5.76054C47.1973 6.11363 47.5633 6.60714 47.7602 7.17461C47.957 7.74207 47.9753 8.35624 47.8124 8.93438L45.6915 16.5606C45.6259 16.7866 45.6126 17.0246 45.6526 17.2565C45.6926 17.4884 45.7849 17.7082 45.9224 17.8992C46.0599 18.0902 46.2391 18.2474 46.4463 18.3589C46.6536 18.4704 46.8835 18.5332 47.1187 18.5427L48.1494 18.5823C50.6281 15.103 54.1478 12.5009 58.201 11.1513C62.2541 9.80159 66.6312 9.77413 70.7009 11.0728C74.7707 12.3715 78.3228 14.9293 80.845 18.3772Z" fill="#2C2C2C"/>
<circle cx="64.4178" cy="30.2274" r="18.5823" fill="#FFEFB3"/>
<path d="M44.418 30.257C44.4135 33.894 45.3985 37.4637 47.2673 40.5838H47.0641C46.8398 40.5914 46.617 40.6246 46.4001 40.6829L45.3595 40.8117C37.8374 41.8028 31.0239 44.7165 26.1627 48.9681C25.6077 49.4637 25.0924 49.9592 24.6018 50.4547C24.4226 50.072 24.1624 49.7327 23.8392 49.4604C23.516 49.1881 23.1375 48.9893 22.7299 48.8776C22.3223 48.7659 21.8953 48.7441 21.4784 48.8136C21.0616 48.8832 20.6648 49.0424 20.3155 49.2803L13.725 53.6558C13.461 53.8202 13.1539 53.9016 12.8432 53.8898C12.5325 53.8779 12.2325 53.7732 11.9819 53.5893C11.7312 53.4053 11.5415 53.1504 11.437 52.8576C11.3326 52.5647 11.3183 52.2473 11.396 51.9463L13.5218 44.3151C13.6421 43.8884 13.664 43.44 13.5858 43.0037C13.5076 42.5673 13.3314 42.1544 13.0704 41.7961C12.8094 41.4377 12.4704 41.1433 12.0791 40.9351C11.6878 40.7268 11.2542 40.6101 10.8112 40.5937L2.88278 40.2518C2.56635 40.2392 2.26136 40.13 2.00882 39.9389C1.75627 39.7478 1.56826 39.484 1.47006 39.1829C1.37186 38.8819 1.36818 38.558 1.4595 38.2547C1.55082 37.9515 1.73278 37.6835 1.98092 37.4867L8.17998 32.5661C8.5276 32.291 8.80846 31.9408 9.00154 31.5418C9.19463 31.1428 9.29492 30.7052 9.29492 30.2619C9.29492 29.8186 9.19463 29.3811 9.00154 28.982C8.80846 28.583 8.5276 28.2328 8.17998 27.9577L1.98092 23.0371C1.73116 22.8411 1.54756 22.5732 1.45491 22.2696C1.36226 21.9659 1.36502 21.6412 1.46281 21.3391C1.56061 21.0371 1.74873 20.7724 2.00177 20.5806C2.25482 20.3889 2.5606 20.2795 2.87782 20.2671L10.8063 19.9301C11.2491 19.9121 11.6822 19.7941 12.073 19.585C12.4638 19.3759 12.8022 19.081 13.0629 18.7226C13.3237 18.3642 13.4999 17.9514 13.5785 17.5152C13.6571 17.079 13.636 16.6307 13.5168 16.2038L11.396 8.57756C11.3068 8.27227 11.3152 7.94673 11.42 7.64644C11.5248 7.34615 11.7209 7.08612 11.9807 6.90268C12.2329 6.70812 12.541 6.59973 12.8595 6.59348C13.178 6.58724 13.4901 6.68347 13.7497 6.86799L20.3155 11.2435C20.6847 11.4886 21.1045 11.647 21.5436 11.7068C21.9826 11.7667 22.4295 11.7265 22.8508 11.5892C23.2722 11.452 23.657 11.2212 23.9765 10.9142C24.296 10.6072 24.542 10.2319 24.696 9.81639L27.461 2.38345C27.5711 2.08642 27.7694 1.83021 28.0294 1.64927C28.2895 1.46833 28.5986 1.37134 28.9154 1.37134C29.2322 1.37134 29.5413 1.46833 29.8013 1.64927C30.0613 1.83021 30.2597 2.08642 30.3698 2.38345L33.1348 9.81639C33.2894 10.232 33.5359 10.6074 33.8559 10.9144C34.1759 11.2214 34.5611 11.4521 34.9828 11.5893C35.4045 11.7265 35.8517 11.7667 36.2911 11.7068C36.7305 11.647 37.1507 11.4886 37.5203 11.2435L44.1157 6.86799C44.3789 6.691 44.6901 6.59923 45.0072 6.60511C45.3243 6.611 45.6319 6.71426 45.8884 6.90089C46.1448 7.08753 46.3376 7.3485 46.4407 7.64843C46.5437 7.94836 46.5521 8.27273 46.4646 8.57756L44.3536 16.2038C44.2352 16.6314 44.2151 17.0803 44.2946 17.5168C44.3742 17.9533 44.5514 18.3662 44.813 18.7246C45.0747 19.0829 45.414 19.3775 45.8055 19.5863C46.197 19.7951 46.6307 19.9126 47.0741 19.9301H47.2772C45.404 23.0489 44.4155 26.6189 44.418 30.257Z" fill="#E8FFB2"/>
<path d="M68.7387 69.6269C64.0857 73.7002 57.5249 76.4801 50.2753 77.4513C43.0257 78.4226 35.9644 77.4513 30.3996 74.7804C24.9488 72.1244 21.5743 68.1007 20.9499 63.4477C20.4544 59.9443 21.5941 56.3765 24.1262 53.1209C24.4483 52.7096 24.7903 52.3032 25.1569 51.9068C25.759 51.2424 26.3993 50.6136 27.0746 50.0238C31.5047 46.1488 37.6591 43.4432 44.4875 42.358C44.8344 42.2936 45.1862 42.244 45.543 42.1994C45.8998 42.1548 46.3012 42.1003 46.6778 42.0656C47.1733 42.0111 47.6292 41.9665 48.0999 41.9368H48.1495C50.7015 45.53 54.3607 48.1878 58.567 49.5034C62.7733 50.8189 67.2948 50.7198 71.4394 49.221C73.2785 51.1348 74.4724 53.5763 74.8535 56.203C75.4878 60.8561 73.3372 65.628 68.7387 69.6269Z" fill="#FFB3F4"/>
<path d="M64.586 44.4292C61.7826 44.4302 59.0419 43.5997 56.7105 42.0429C54.3792 40.486 52.5619 38.2726 51.4887 35.6828C50.4154 33.093 50.1343 30.243 50.681 27.4935C51.2277 24.7439 52.5776 22.2182 54.5599 20.2359C56.5422 18.2536 59.0679 16.9037 61.8174 16.357C64.567 15.8104 67.417 16.0914 70.0068 17.1647C72.5966 18.238 74.81 20.0552 76.3668 22.3866C77.9237 24.7179 78.7542 27.4586 78.7532 30.262C78.748 34.0178 77.2537 37.6182 74.5979 40.274C71.9422 42.9297 68.3418 44.424 64.586 44.4292ZM64.586 17.4824C62.0584 17.4824 59.5876 18.2319 57.486 19.6361C55.3844 21.0404 53.7464 23.0363 52.7791 25.3715C51.8119 27.7067 51.5588 30.2762 52.0519 32.7552C52.545 35.2343 53.7621 37.5114 55.5494 39.2987C57.3367 41.0859 59.6138 42.3031 62.0928 42.7962C64.5719 43.2893 67.1414 43.0362 69.4766 42.0689C71.8118 41.1017 73.8077 39.4637 75.212 37.3621C76.6162 35.2605 77.3657 32.7896 77.3657 30.262C77.3618 26.8739 76.0141 23.6256 73.6183 21.2298C71.2225 18.834 67.9742 17.4863 64.586 17.4824Z" fill="#1E1E1E"/>
<path d="M27.9122 41.991V39.5679C24.2502 39.1467 22.055 37.0308 21.0392 33.5423L24.6367 32.2093C25.1025 34.0328 25.935 35.5244 27.8924 36.119V30.8614C27.1243 30.6434 26.3463 30.4749 25.603 30.2073C24.366 29.8139 23.3178 28.9774 22.6596 27.8585C22.1542 26.8807 21.9166 25.7865 21.9708 24.6872C21.9668 23.879 22.1425 23.08 22.4853 22.3481C22.8282 21.6162 23.3294 20.9696 23.9529 20.4553C24.977 19.5866 26.236 19.0416 27.5703 18.8895L27.9171 18.835V16.4316H30.5187V18.8746C33.6256 19.3354 35.6276 21.0698 36.6285 24.0479L33.1995 25.4255C32.7039 24.0479 32.0152 22.8933 30.5335 22.3978V27.254C30.9993 27.3779 31.4651 27.4918 31.926 27.6306C33.0339 27.9579 34.065 28.5038 34.9586 29.2361C35.4752 29.653 35.9016 30.1707 36.2117 30.7577C36.5218 31.3446 36.7091 31.9886 36.7623 32.6503C36.9178 33.8572 36.7126 35.0831 36.1726 36.1735C35.5393 37.4947 34.4076 38.5105 33.026 38.998C32.2233 39.2904 31.371 39.444 30.4988 39.6769V41.996L27.9122 41.991ZM30.5236 36.1289C31.1598 36.0907 31.7568 35.8089 32.1905 35.3419C32.6243 34.875 32.8614 34.2588 32.8526 33.6215C32.808 32.2638 31.6584 31.4759 30.5236 31.3173V36.1289ZM27.9072 22.2987C27.3573 22.3753 26.8537 22.6483 26.4893 23.0673C26.125 23.4862 25.9246 24.0229 25.9251 24.5781C25.9192 25.1257 26.12 25.6553 26.4874 26.0613C26.8548 26.4673 27.3618 26.7198 27.9072 26.7684V22.2987Z" fill="#1E1E1E"/>
<path d="M51.4447 69.1165L51.7123 71.0987L47.3516 71.6834L47.084 69.7013C43.2635 69.9342 39.9434 69.0967 38.3627 65.2415L42.3269 63.7054C43.1495 65.4645 44.7749 65.9452 46.5885 65.9253L45.9889 61.4656C42.7283 61.5102 38.1298 61.1534 37.5649 57.0653C37.0248 53.0664 41.207 50.9703 44.4478 50.1279L44.1753 48.1012L48.5607 47.5115L48.8332 49.5679C52.3614 49.4292 55.2107 50.4995 56.9302 53.7551L52.9313 55.3557C52.5653 54.7269 52.0401 54.2057 51.4085 53.8447C50.7769 53.4836 50.0612 53.2955 49.3337 53.2993L49.9333 57.759C53.3029 57.6996 57.9311 57.8829 58.501 62.1345C59.0907 66.6092 55.1661 68.3832 51.4447 69.1165ZM44.9483 53.7997C43.8779 54.1119 41.8017 54.8651 41.9751 56.317C42.1486 57.7689 44.4131 57.8333 45.4735 57.8333L44.9483 53.7997ZM50.3991 61.3566L50.9442 65.4149C52.3267 65.1176 54.3386 64.5131 54.1007 62.7292C53.9075 61.2773 51.4893 61.3516 50.4041 61.3566H50.3991Z" fill="#1E1E1E"/>
<path d="M64.2393 37.8286L63.8726 39.4639H61.7121L62.1185 37.6155C59.8985 37.0754 58.3772 35.8267 58.0006 33.4135L61.5783 32.5215C61.6477 32.7643 61.6973 33.017 61.7815 33.2202C61.9672 33.747 62.3187 34.1993 62.7833 34.5094C63.2479 34.8194 63.8005 34.9704 64.3582 34.9397C64.8792 34.955 65.394 34.8245 65.8448 34.5631C66.1442 34.3766 66.3588 34.0805 66.4431 33.738C66.5273 33.3955 66.4744 33.0337 66.2958 32.7296C66.1107 32.4433 65.8267 32.2352 65.498 32.1449C64.7547 31.9219 64.0114 31.7287 63.2483 31.5354C62.5312 31.3671 61.8432 31.0933 61.2067 30.7227C60.8019 30.476 60.458 30.1411 60.2007 29.743C59.9433 29.3449 59.779 28.8939 59.7201 28.4235C59.5319 27.4817 59.6214 26.5056 59.9778 25.6138C60.3751 24.7013 61.0752 23.9539 61.9599 23.4979C62.9146 22.988 63.9795 22.7192 65.0619 22.715C65.1051 22.7229 65.1495 22.7213 65.192 22.7104C65.2345 22.6994 65.2741 22.6793 65.308 22.6515C65.342 22.6236 65.3695 22.5888 65.3886 22.5492C65.4077 22.5097 65.418 22.4665 65.4187 22.4226C65.498 21.9717 65.6119 21.5257 65.716 21.0698H67.8715C67.7477 21.6298 67.6287 22.1897 67.4949 22.7447C67.4603 22.8934 67.4949 22.9528 67.6386 22.9925C68.3021 23.1674 68.9249 23.4704 69.4721 23.8844C70.3359 24.5485 70.9307 25.5023 71.147 26.5702C71.147 26.6445 71.1718 26.7238 71.1916 26.8279L67.5941 27.6306C67.5049 27.3928 67.4355 27.1648 67.3413 26.9468C67.1602 26.513 66.8477 26.1468 66.4477 25.8997C66.0478 25.6526 65.5805 25.5371 65.1114 25.5692C64.5756 25.5605 64.0571 25.7594 63.6645 26.1242C63.1442 26.6197 63.0897 27.7694 63.947 28.141C64.5215 28.3678 65.1109 28.5548 65.711 28.701C66.5296 28.8794 67.3258 29.1487 68.0846 29.5037C69.2342 30.1231 70.0667 30.9903 70.2154 32.353C70.4632 34.5036 69.6406 36.3519 67.4751 37.2637C66.5795 37.6179 65.6283 37.8108 64.6655 37.8336C64.5119 37.8336 64.383 37.8286 64.2393 37.8286Z" fill="#1E1E1E"/>
</g>
<defs>
<clipPath id="clip0_167_3583">
<rect width="89.1952" height="82.6146" fill="white"/>
</clipPath>
</defs>
</svg>
