<svg width="82" height="78" viewBox="0 0 82 78" fill="none" xmlns="http://www.w3.org/2000/svg">
<g clip-path="url(#clip0_167_3573)">
<path d="M41.3644 2.25939L51.545 22.8874L74.3149 26.2086C74.8565 26.288 75.3652 26.5172 75.7835 26.8704C76.2018 27.2235 76.513 27.6865 76.6822 28.2071C76.8514 28.7277 76.8716 29.2853 76.7408 29.8168C76.6099 30.3484 76.3331 30.8328 75.9416 31.2154L59.4664 47.2749L63.3525 69.9499C63.4442 70.4893 63.3835 71.0436 63.1771 71.5504C62.9707 72.0571 62.6268 72.4961 62.1843 72.8179C61.7418 73.1397 61.2181 73.3315 60.6725 73.3717C60.1268 73.4118 59.5807 73.2987 59.0958 73.0452L38.7299 62.3584L18.3686 73.0452C17.8836 73.3 17.337 73.4141 16.7905 73.3745C16.2441 73.335 15.7196 73.1434 15.2763 72.8214C14.8331 72.4994 14.4887 72.0599 14.2822 71.5524C14.0756 71.045 14.0151 70.4899 14.1074 69.9499L17.998 47.2749L1.52278 31.2154C1.13101 30.8319 0.854393 30.3464 0.724219 29.8139C0.594045 29.2813 0.615513 28.723 0.786194 28.202C0.956874 27.681 1.26996 27.2182 1.69001 26.8659C2.11007 26.5136 2.62034 26.286 3.16308 26.2086L25.9329 22.9009L36.1001 2.25939C36.3417 1.76744 36.7165 1.35306 37.1817 1.06327C37.6469 0.773481 38.1841 0.619873 38.7322 0.619873C39.2803 0.619873 39.8175 0.773481 40.2827 1.06327C40.748 1.35306 41.1227 1.76744 41.3644 2.25939Z" fill="#FFB3F4"/>
<path d="M60.465 74.0212C59.8849 74.0219 59.3136 73.8791 58.8021 73.6055L38.7299 63.0542L18.6623 73.6055C18.073 73.9148 17.409 74.0532 16.7452 74.0052C16.0814 73.9571 15.4443 73.7245 14.9058 73.3335C14.3672 72.9425 13.9487 72.4087 13.6974 71.7925C13.4462 71.1762 13.3722 70.502 13.4838 69.8459L17.3157 47.4963L1.07992 31.6807C0.599588 31.2162 0.259289 30.6262 0.0977363 29.9778C-0.0638165 29.3294 -0.040137 28.6486 0.166081 28.013C0.372299 27.3774 0.752775 26.8125 1.26422 26.3824C1.77567 25.9524 2.39755 25.6745 3.05912 25.5805L25.4946 22.3225L35.5307 1.9882C35.8254 1.3907 36.2814 0.88759 36.8472 0.535796C37.413 0.184001 38.0659 -0.00244141 38.7322 -0.00244141C39.3984 -0.00244141 40.0514 0.184001 40.6171 0.535796C41.1829 0.88759 41.639 1.3907 41.9337 1.9882L51.9653 22.3225L74.4052 25.5805C75.0635 25.6786 75.6811 25.9587 76.1886 26.3893C76.696 26.8199 77.073 27.3837 77.2769 28.0172C77.4809 28.6507 77.5037 29.3286 77.3428 29.9743C77.1819 30.6201 76.8437 31.208 76.3664 31.6717L60.1306 47.4872L63.9625 69.8323C64.0498 70.3447 64.0244 70.87 63.8881 71.3716C63.7518 71.8732 63.5079 72.3391 63.1733 72.7369C62.8387 73.1347 62.4215 73.4549 61.9507 73.6751C61.4799 73.8953 60.9667 74.0103 60.4469 74.0121L60.465 74.0212ZM38.7299 61.6218L39.0282 61.7754L59.3895 72.4803C59.7692 72.6804 60.1974 72.7702 60.6255 72.7396C61.0536 72.709 61.4646 72.5593 61.8121 72.3073C62.1595 72.0553 62.4295 71.7111 62.5915 71.3136C62.7535 70.9162 62.8011 70.4813 62.7289 70.0583L58.784 47.0534L75.5033 30.786C75.81 30.4859 76.0268 30.1061 76.1293 29.6894C76.2318 29.2728 76.2159 28.8358 76.0835 28.4276C75.951 28.0195 75.7072 27.6564 75.3796 27.3793C75.052 27.1022 74.6535 26.9221 74.229 26.8593L51.1248 23.4973L40.795 2.55304C40.6051 2.16804 40.3113 1.84386 39.9467 1.61718C39.5822 1.3905 39.1615 1.27036 38.7322 1.27036C38.3029 1.27036 37.8822 1.3905 37.5176 1.61718C37.1531 1.84386 36.8593 2.16804 36.6694 2.55304L26.3396 23.4973L3.23987 26.8367C2.8154 26.8995 2.41691 27.0796 2.08927 27.3567C1.76163 27.6338 1.51787 27.9969 1.38542 28.405C1.25297 28.8132 1.23711 29.2502 1.33961 29.6669C1.44211 30.0835 1.65891 30.4633 1.96559 30.7634L18.6849 47.0534L14.7355 70.0402C14.6573 70.465 14.7006 70.9033 14.8604 71.3047C15.0202 71.7061 15.29 72.0542 15.6388 72.3091C15.9876 72.5639 16.4012 72.7152 16.8321 72.7455C17.2631 72.7758 17.6938 72.6839 18.0748 72.4803L38.7299 61.6218Z" fill="#1E1E1E"/>
<path d="M81.1609 31.8841C80.9571 31.2491 80.5786 30.6843 80.0687 30.2543C79.5589 29.8244 78.9383 29.5467 78.278 29.453L77.451 29.3355C77.473 28.8883 77.4117 28.4409 77.2703 28.016C77.066 27.3813 76.6874 26.8168 76.1776 26.3869C75.6678 25.957 75.0475 25.6792 74.3873 25.585L51.9654 22.3225L41.9339 1.9882C41.6392 1.3907 41.1831 0.88759 40.6173 0.535796C40.0515 0.184001 39.3986 -0.00244141 38.7324 -0.00244141C38.0661 -0.00244141 37.4132 0.184001 36.8474 0.535796C36.2816 0.88759 35.8256 1.3907 35.5308 1.9882L25.4948 22.3225L3.0593 25.5805C2.39959 25.6758 1.77976 25.9539 1.26998 26.3834C0.760202 26.8129 0.380844 27.3765 0.174862 28.0104C-0.0311207 28.6443 -0.0554987 29.3233 0.104488 29.9704C0.264475 30.6174 0.602434 31.2068 1.0801 31.6717L17.3159 47.4872L13.484 69.8368C13.3915 70.3762 13.4243 70.9296 13.58 71.4542C13.7358 71.9789 14.0102 72.4606 14.382 72.8621C14.7538 73.2636 15.213 73.5742 15.7242 73.7697C16.2353 73.9652 16.7846 74.0404 17.3294 73.9895C17.2696 74.6288 17.3837 75.2723 17.6597 75.852C17.9357 76.4317 18.3633 76.926 18.8972 77.2825C19.4311 77.6391 20.0515 77.8447 20.6927 77.8775C21.3338 77.9103 21.972 77.7691 22.5395 77.469L42.6072 66.9177L62.6703 77.469C63.1846 77.7395 63.7566 77.8821 64.3377 77.8847C64.8575 77.8829 65.3707 77.7679 65.8415 77.5476C66.3123 77.3274 66.7296 77.0073 67.0641 76.6095C67.3987 76.2117 67.6426 75.7458 67.7789 75.2442C67.9152 74.7426 67.9406 74.2173 67.8533 73.7049L64.0214 51.3598L80.2572 35.5442C80.7357 35.0802 81.0742 34.4909 81.234 33.8438C81.3938 33.1966 81.3685 32.5176 81.1609 31.8841ZM15.6485 72.2995C15.2979 72.0484 15.0266 71.7023 14.8664 71.3019C14.7063 70.9016 14.6641 70.4638 14.7447 70.0402L18.6896 47.0354L1.97029 30.768C1.66361 30.4678 1.44681 30.0881 1.34431 29.6714C1.24181 29.2547 1.25768 28.8177 1.39012 28.4095C1.52257 28.0014 1.76634 27.6383 2.09397 27.3612C2.42161 27.0842 2.8201 26.904 3.24457 26.8412L26.3398 23.4973L36.6696 2.55304C36.8594 2.16804 37.1533 1.84386 37.5178 1.61718C37.8824 1.3905 38.3031 1.27036 38.7324 1.27036C39.1616 1.27036 39.5824 1.3905 39.9469 1.61718C40.3114 1.84386 40.6053 2.16804 40.7952 2.55304L51.125 23.4973L74.2202 26.8502C74.6446 26.9131 75.0431 27.0932 75.3707 27.3703C75.6984 27.6474 75.9421 28.0104 76.0746 28.4186C76.207 28.8267 76.2229 29.2637 76.1204 29.6804C76.0179 30.0971 75.8011 30.4769 75.4944 30.777L58.7752 47.067L62.729 70.0402C62.8013 70.4633 62.7537 70.8981 62.5917 71.2956C62.4297 71.693 62.1597 72.0372 61.8122 72.2892C61.4648 72.5412 61.0538 72.691 60.6257 72.7215C60.1976 72.7521 59.7694 72.6623 59.3897 72.4622L39.0283 61.7754L38.7301 61.6218L18.075 72.4803C17.6955 72.6848 17.2653 72.7765 16.8353 72.7445C16.4054 72.7125 15.9935 72.5581 15.6485 72.2995Z" fill="#1E1E1E"/>
</g>
<defs>
<clipPath id="clip0_167_3573">
<rect width="81.337" height="77.8938" fill="white"/>
</clipPath>
</defs>
</svg>
