<svg width="76" height="76" viewBox="0 0 76 76" fill="none" xmlns="http://www.w3.org/2000/svg">
<g clip-path="url(#clip0_167_3513)">
<path d="M60.1208 43.3037H46.6672C45.8123 43.3048 44.9928 43.6449 44.3883 44.2494C43.7838 44.8539 43.4437 45.6735 43.4426 46.5284V56.1981H7.14736C5.99959 56.2003 4.87153 55.8999 3.87688 55.3271C2.88222 54.7543 2.05613 53.9295 1.48186 52.9357C0.90759 51.9419 0.605438 50.8143 0.605858 49.6666C0.606279 48.5188 0.909257 47.3914 1.48425 46.3981L26.0664 3.86378C26.6392 2.87199 27.4628 2.04843 28.4547 1.47584C29.4466 0.903248 30.5717 0.601807 31.7169 0.601807C32.8622 0.601807 33.9873 0.903248 34.9792 1.47584C35.971 2.04843 36.7947 2.87199 37.3674 3.86378L60.1208 43.3037Z" fill="#FEC6B4"/>
<path d="M29.8502 38.166C29.8502 35.3155 30.9475 34.1425 32.5704 32.793C33.9409 31.6074 35.156 30.5479 35.156 28.7737C35.156 26.7767 33.7854 25.5617 31.7926 25.5617C29.455 25.5617 28.1139 27.0878 28.0844 30.1107L25.091 29.644C25.1247 25.3136 27.7103 22.8794 31.7926 22.8794C35.4419 22.8794 38.3092 25.095 38.3092 28.677C38.3092 31.0777 37.0479 32.7005 34.6304 34.6933C33.1337 35.9546 32.7301 36.7197 32.7301 38.187L29.8502 38.166ZM29.3205 45.0862V41.0333H33.2767V45.0862H29.3205Z" fill="#1E1E1E"/>
<path d="M68.2475 43.2996H46.6671C44.8862 43.2996 43.4425 44.7433 43.4425 46.5242V68.1046C43.4425 69.8855 44.8862 71.3292 46.6671 71.3292H68.2475C70.0284 71.3292 71.4721 69.8855 71.4721 68.1046V46.5242C71.4721 44.7433 70.0284 43.2996 68.2475 43.2996Z" fill="#FFEFB3"/>
<path d="M72.0649 46.3139C72.0112 45.3375 71.5856 44.4188 70.8757 43.7464C70.1657 43.074 69.2253 42.6989 68.2475 42.6982H61.9831L53.7512 28.4333L41.4707 7.16822C40.7368 5.8794 39.6118 4.85753 38.2586 4.25048L37.8634 3.56519C37.238 2.4817 36.3384 1.58195 35.255 0.956375C34.1716 0.330804 32.9426 0.00146484 31.6916 0.00146484C30.4406 0.00146484 29.2116 0.330804 28.1282 0.956375C27.0448 1.58195 26.1452 2.4817 25.5198 3.56519L13.2434 24.8302L0.962821 46.0995C0.464225 46.9664 0.15313 47.9284 0.0496518 48.9231C-0.0538266 49.9179 0.0526151 50.9233 0.362095 51.8743C0.671574 52.8253 1.1772 53.7008 1.84628 54.4441C2.51536 55.1875 3.333 55.7821 4.24633 56.1896C4.80363 57.4447 5.71413 58.5106 6.86678 59.2571C8.01942 60.0036 9.3644 60.3986 10.7377 60.3939H42.8412V68.1087C42.842 69.0861 43.2172 70.026 43.8897 70.7353C44.5622 71.4446 45.4809 71.8692 46.4569 71.9219C46.5096 72.8979 46.9342 73.8166 47.6435 74.4891C48.3527 75.1616 49.2927 75.5368 50.2701 75.5375H71.8505C72.8652 75.5375 73.8383 75.1345 74.5558 74.417C75.2733 73.6995 75.6763 72.7264 75.6763 71.7117V50.1271C75.6767 49.1501 75.3024 48.2101 74.6306 47.5008C73.9587 46.7914 73.0405 46.3666 72.0649 46.3139ZM2.00547 52.6202C1.48182 51.721 1.20594 50.699 1.20594 49.6583C1.20594 48.6177 1.48182 47.5957 2.00547 46.6965L14.2945 25.4314L26.5666 4.1664C27.0858 3.26525 27.8333 2.5168 28.7337 1.99638C29.6341 1.47597 30.6558 1.20197 31.6958 1.20197C32.7358 1.20197 33.7575 1.47597 34.6579 1.99638C35.5583 2.5168 36.3058 3.26525 36.825 4.1664L49.1056 25.4314L59.078 42.6982H55.1386L33.8736 5.88593C33.6513 5.50562 33.3333 5.19016 32.9512 4.97093C32.5691 4.7517 32.1363 4.63635 31.6958 4.63635C31.2553 4.63635 30.8225 4.7517 30.4404 4.97093C30.0583 5.19016 29.7403 5.50562 29.518 5.88593L4.96105 48.4034C4.74011 48.7861 4.62357 49.22 4.62308 49.6619C4.6226 50.1038 4.73819 50.538 4.95829 50.9212C5.17839 51.3043 5.49527 51.6229 5.87722 51.8451C6.25917 52.0673 6.69278 52.1853 7.13464 52.1872H42.8412V55.5968H7.14726C6.10364 55.6017 5.07749 55.329 4.17397 54.8067C3.27046 54.2844 2.52206 53.5312 2.00547 52.6244V52.6202ZM42.8412 46.5199V50.9722H7.14726C6.91731 50.9704 6.69183 50.9085 6.49328 50.7925C6.29473 50.6765 6.13005 50.5105 6.01564 50.311C5.90123 50.1115 5.84109 49.8856 5.8412 49.6556C5.84132 49.4256 5.9017 49.1997 6.01632 49.0004L30.5607 6.46611C30.6773 6.26823 30.8436 6.10421 31.043 5.99026C31.2425 5.8763 31.4682 5.81637 31.6979 5.81637C31.9276 5.81637 32.1533 5.8763 32.3528 5.99026C32.5522 6.10421 32.7185 6.26823 32.8352 6.46611L53.7512 42.6982H46.6671C45.6524 42.6982 44.6793 43.1013 43.9618 43.8188C43.2443 44.5363 42.8412 45.5094 42.8412 46.5241V46.5199ZM44.0437 68.1087V46.5241C44.0448 45.8287 44.3215 45.162 44.8133 44.6703C45.305 44.1785 45.9717 43.9018 46.6671 43.9006H68.2475C68.9429 43.9018 69.6095 44.1785 70.1013 44.6703C70.593 45.162 70.8698 45.8287 70.8709 46.5241V68.1087C70.8698 68.8041 70.593 69.4707 70.1013 69.9625C69.6095 70.4542 68.9429 70.731 68.2475 70.7321H46.6671C45.9717 70.731 45.305 70.4542 44.8133 69.9625C44.3215 69.4707 44.0448 68.8041 44.0437 68.1087Z" fill="#1E1E1E"/>
<path d="M55.8577 65.5861V62.4498H59.0571V65.5861H55.8577ZM56.8457 60.4528L56.0049 54.4239V49.0635H58.8806V54.4239L58.0397 60.4317L56.8457 60.4528Z" fill="#1E1E1E"/>
</g>
<defs>
<clipPath id="clip0_167_3513">
<rect width="75.6763" height="75.5333" fill="white"/>
</clipPath>
</defs>
</svg>
