<svg width="161" height="209" viewBox="0 0 161 209" fill="none" xmlns="http://www.w3.org/2000/svg">
<path d="M155.074 1.36868C155.032 1.74481 154.947 2.66871 154.612 3.82548C154.274 4.99439 153.728 6.32897 153.12 7.80002C152.691 8.83765 152.047 9.6535 151.521 10.3067C150.96 11.0023 150.197 11.5896 149.439 12.4088C148.357 13.5793 147.213 14.5305 146.263 15.2714C145.533 15.8405 144.896 16.4692 144.201 17.0176C143.453 17.6075 142.667 18.1529 141.95 18.6584C141.214 19.1775 140.395 19.7937 139.573 20.1944C138.812 20.5658 137.79 21.2654 136.357 22.0441C134.906 22.8331 133.832 23.2015 132.738 23.6862C131.334 24.3085 129.583 24.5495 128.677 24.7388C127.282 25.0303 125.418 25.0544 123.699 25.202C119.163 25.5917 118.224 25.014 117.317 24.8246C116.34 24.6203 115.53 24.0901 114.667 23.5846C113.74 23.0418 112.963 22.5755 112.184 21.9652C111.497 21.427 110.734 20.7681 110.122 20.0512C109.511 19.3356 109.091 18.4962 108.775 17.5489C108.495 16.7098 108.5 14.846 108.667 13.4886C108.78 12.5707 109.633 12.0163 110.39 11.3839C111.242 10.6719 113.91 10.5824 115.418 10.8544C116.286 11.0109 116.828 11.9254 117.312 12.6202C117.816 13.342 117.797 14.2806 117.945 15.248C118.168 16.7095 117.338 17.5622 116.832 18.2791C116.298 19.0365 115.404 19.7508 114.687 20.2992C114.018 20.8111 113.342 21.3083 112.5 21.8346C111.499 22.4614 110.817 22.9491 110.039 23.2451C109.245 23.5466 108.545 24.085 107.641 24.4649C106.686 24.8663 105.186 25.64 104.044 26.0218C102.857 26.4186 101.606 26.8618 100.552 27.2417C99.5868 27.5897 98.327 28.1643 95.951 29.1324C94.0072 29.9244 93.0234 30.3125 91.4666 30.9638C90.2241 31.4835 88.8154 32.3724 87.9508 32.9208C87.2248 33.3813 86.5006 33.9299 85.742 34.5609C84.906 35.2565 84.1025 35.6969 83.3856 36.3071C82.7341 36.8617 81.8735 37.5876 81.1137 38.4522C80.4938 39.1575 79.8515 39.6929 79.0109 40.5972C78.2865 41.3766 77.8321 42.091 77.3266 42.8697C76.8585 43.5909 76.2342 44.4866 75.665 45.4988C75.2001 46.3255 74.6767 47.0134 74.2128 47.813C74.1277 48.0244 74.086 48.2327 74.0437 48.4441C74.0014 48.6555 73.9598 48.8637 73.9169 49.4569" stroke="#FF7FEC" stroke-width="2.7371" stroke-linecap="round"/>
<path d="M69.7517 47.9423C69.7517 48.9432 69.9183 51.1356 70.0874 57.259C70.1196 58.4221 70.3373 58.2946 70.5065 58.1469C71.2152 57.528 72.3947 56.5326 73.3672 55.8535C74.0756 55.3589 74.8382 54.7605 75.5551 54.2342C75.9258 53.962 76.2708 53.665 76.503 53.4763C77.0141 53.061 75.1411 52.8244 74.4242 52.3618C73.7216 51.9084 73.205 51.2265 72.6566 50.5954C72.1039 49.9594 71.6475 49.2499 71.1628 48.7634C70.5551 48.1533 70.8043 50.7569 70.7823 53.6946C70.7774 54.3355 70.8447 54.5434 70.9703 54.6715C71.0959 54.7996 71.3042 54.8413 71.4947 54.7794C72.3236 54.5105 72.945 53.8341 73.6209 53.4346C73.5407 53.0793 73.287 52.6981 73.056 52.3416C72.95 52.1516 72.8667 51.9434 72.5284 51.6026" stroke="#FF7FEC" stroke-width="2.7371" stroke-linecap="round"/>
<path d="M159.307 111.28C158.992 110.967 158.362 109.81 157.572 108.048C156.914 106.58 156.046 105.702 155.228 104.674C154.548 103.818 153.833 102.858 153.017 101.856C151.779 100.339 149.476 98.1306 147.411 96.1176C145.238 94.0002 143.933 93.3241 142.485 92.5324C141.242 91.8533 139.72 91.2163 138.35 90.7667C137.273 90.4135 136.191 90.2145 134.848 89.9499C133.613 89.7066 132.348 89.6331 130.897 89.4758C129.603 89.3355 128.344 89.2128 122.62 89.1851C118.301 89.1642 112.702 89.2128 111.462 88.8707C110.383 88.5728 109.33 88.1605 108.145 87.7915C106.342 87.2303 105.38 86.3718 103.853 84.8724C102.968 84.0038 102.848 82.7914 102.584 81.6846C102.273 80.3859 102.267 79.3153 102.136 78.2346C101.979 76.9404 103.054 75.7855 103.87 75.02C105.693 73.3101 112.041 75.4063 114.112 76.2777C116.399 77.24 116.747 79.1447 117.224 80.6197C118.036 83.1295 116.702 84.5169 116.042 85.8101C115.521 86.8297 114.806 87.7844 113.963 88.8391C113.119 89.8938 112.07 91.0488 110.83 92.105C109.888 92.9076 108.856 93.5263 107.119 94.4751C105.322 95.4572 102.959 96.3198 101.223 96.8981C97.2632 98.2176 95.8488 98.3739 94.5556 98.7436C93.5046 99.0441 92.4233 99.2176 91.16 99.4025C90.0208 99.5692 89.0499 99.4815 87.1427 99.5605C82.4721 99.5874 79.0434 99.5352 78.413 99.4302C78.0954 99.3772 77.7825 99.3251 76.9862 99.2714" stroke="#4E47DD" stroke-width="2.7371" stroke-linecap="round"/>
<path d="M84.404 95.7717C84.217 95.8056 83.6023 96.0102 82.9587 96.2761C82.5006 96.4654 81.9907 96.6783 81.3419 96.8926C80.9712 97.015 80.3061 97.2066 79.4905 97.3877C77.7367 97.7773 76.628 97.9127 76.3888 97.9641C75.7005 98.112 74.762 98.1696 74.4092 98.2891C74.2309 98.3495 74.6721 98.7678 75.1837 99.152C75.9135 99.7 76.9302 100.07 78.5318 100.573C79.6328 100.919 81.3545 101.33 82.3132 101.566C83.6666 101.87 84.0083 101.973 84.3429 102.101C84.4205 102.144 84.4883 102.195 84.7124 102.298" stroke="#4E47DD" stroke-width="2.7371" stroke-linecap="round"/>
<path d="M112.353 173.589C112.272 172.933 111.779 171.123 111.323 169.345C110.843 167.47 110.293 165.839 109.263 163.694C107.717 160.476 106.252 158.578 105.176 157.003C104.021 155.312 101.716 153.294 99.897 151.927C97.7611 150.322 95.2034 148.753 92.4288 147.387C90.1266 146.254 87.3538 145.034 84.8368 144.126C82.1909 143.172 80.1729 142.968 78.4359 142.432C76.003 141.681 72.6601 140.987 70.9664 140.451C69.1583 139.879 67.4601 139.586 65.7664 139.13C63.8737 138.621 62.2601 137.853 60.3609 137.151C58.4001 136.426 56.8125 135.624 55.1188 134.922C52.8855 133.996 50.622 132.9 49.01 131.993C47.5402 131.165 46.3283 130.013 45.0469 128.98C43.7656 127.948 42.6982 126.383 41.5381 125.02C41.2893 124.647 41.0441 124.239 40.7544 123.865C40.4647 123.491 40.1378 123.164 39.5535 122.084" stroke="#FB5018" stroke-width="2.7371" stroke-linecap="round"/>
<path d="M40.1903 130.574C40.1638 130.36 40.0566 129.825 39.9491 129.207C39.7644 128.145 39.0918 126.498 38.8087 125.837C38.3968 124.875 37.5616 123.143 37.1983 122.442C36.753 121.582 36.4872 120.965 36.1513 120.268C35.7993 119.536 35.5207 118.952 35.3713 118.468C35.3446 118.381 35.5433 118.359 35.6782 118.372C36.3082 118.432 36.8593 118.975 37.3026 119.297C37.8117 119.667 38.4684 120.022 39.4747 120.571C40.494 121.128 41.2067 121.471 42.3471 121.994C43.0973 122.338 43.7839 122.626 44.6167 122.988C45.4637 123.356 46.3338 123.646 47.2608 124.022C48.061 124.347 48.9899 124.559 49.7184 124.774C50.0672 124.877 50.3905 124.936 50.5254 124.949C50.6615 124.963 50.0981 125.016 49.8033 124.977C49.1897 124.894 48.6227 124.24 47.7375 123.703C47.1175 123.327 46.3692 123.113 45.6158 122.776C45.0679 122.531 44.4089 122.36 43.8033 122.118C43.2151 121.883 42.6628 121.769 42.1253 121.634C41.5935 121.501 41.185 121.42 40.9305 121.379C40.8097 121.36 40.7025 121.471 40.6212 121.579C40.287 122.021 40.2451 122.678 39.9632 123.243C39.7107 123.749 39.8408 124.369 39.9346 125.122C39.9613 125.336 40.5366 124.965 41.1544 124.695C41.7937 124.416 42.5227 124.346 43.4219 124.278C44.0334 124.232 44.9888 124.131 45.7454 124.211C46.3166 124.271 46.9523 124.425 47.5173 124.546C47.6549 124.576 47.7851 124.64 47.7472 124.667C47.2122 125.054 46.395 124.266 45.7632 124.064C45.0299 123.83 43.9788 123.916 43.227 123.822C42.7757 123.766 42.4196 123.888 42.2187 124.075C41.7716 124.492 41.6674 125.121 41.4797 125.659C41.2889 126.205 41.1036 126.732 40.9961 127.27C40.8886 127.807 40.7815 128.396 40.7408 128.961C40.7019 129.501 40.6204 130.034 40.5399 130.466C40.4168 131.125 40.1098 129.341 39.9761 128.391C39.6554 126.113 39.7345 125.556 39.5468 125.019C39.3508 124.457 39.1449 123.758 38.9025 123.099C38.6875 122.548 38.4998 122.092 38.3524 121.744C38.2848 121.582 38.2316 121.449 38.1769 121.312" stroke="#FB5018" stroke-width="2.7371" stroke-linecap="round"/>
<path d="M5.4762 126.871C5.4762 129.088 5.6146 133.854 5.85996 135.254C6.11536 136.711 6.59176 138.396 7.3257 140.041C7.94471 141.428 8.8271 142.523 9.66693 143.642C10.5907 144.874 11.7628 146.226 12.6372 147.451C13.6247 148.836 14.6272 150.072 15.8151 151.608C17.8153 154.194 18.8924 155.104 21.5408 157.824C23.9296 160.277 24.7638 161.395 26.5084 163.246C27.9548 164.78 29.3057 166.218 30.2514 167.338C31.3202 168.603 32.6608 169.644 33.746 170.693C34.7682 171.68 35.5965 173.066 36.473 174.292C37.3235 175.481 37.1399 177.466 36.688 179.079C36.2588 180.612 34.8374 181.526 33.5803 182.402C31.5459 183.821 27.6408 182.444 26.2757 181.778C24.9831 181.148 24.3528 179.441 23.9648 178.041C23.59 176.689 23.7195 174.417 24.3455 172.763C24.9056 171.284 26.6468 170.491 28.1178 169.721C29.3961 169.051 30.912 169.091 33.8781 169.089C35.6666 169.087 37.1315 170.135 38.7765 170.486C40.2212 170.795 41.8831 171.67 44.3648 172.964C46.274 173.959 47.3393 174.887 48.6331 175.97C49.9291 177.055 51.1096 178.795 52.3384 180.198C53.9913 182.085 55.3077 184.39 56.2188 186.312C56.9577 187.87 57.7569 189.213 58.4908 190.961C59.1053 192.424 59.6441 194.241 60.5867 196.689C61.5302 199.14 62.3702 200.956 62.7214 202.39C63.0705 204.034 63.4899 205.223 63.6996 205.955C63.7709 206.341 63.7709 206.756 63.9806 207.184" stroke="#C2FF35" stroke-width="2.7371" stroke-linecap="round"/>
<path d="M1.3689 132.359C1.44081 132.178 1.6947 131.599 2.08478 130.664C2.27507 130.208 2.47596 129.855 2.72984 129.4C3.01598 128.888 3.38252 128.313 3.92706 127.414C4.65422 126.214 5.1063 125.301 5.78867 123.901C6.16615 123.126 6.28962 122.754 6.46206 122.444C6.62906 122.144 7.08831 122.805 7.49637 123.286C7.83939 123.69 8.12345 124.094 8.35064 124.403C8.82684 125.052 9.61187 126.127 10.4277 127.432C10.7885 128.009 10.975 128.343 11.1294 128.716C11.2995 129.126 11.4108 129.559 11.5563 130.06C11.591 130.179 11.6288 130.286 11.6023 130.36C11.5759 130.433 11.486 130.469 11.3498 130.47C10.7277 130.472 9.47894 129.802 8.57129 129.463C8.09501 129.285 7.63639 129.072 7.25421 128.981C6.87266 128.89 6.47377 128.782 4.83498 128.781C4.13992 128.781 3.71376 129.034 3.33158 129.198C2.98736 129.346 2.67862 129.849 2.39587 130.233C2.27808 130.393 2.1142 130.542 2.05019 130.615C1.71343 131.001 2.67536 129.727 2.95675 129.237C3.27617 128.681 3.58301 128.293 3.81973 127.947C4.0533 127.605 4.40022 127.221 4.68216 126.858C4.94192 126.522 5.28936 126.042 5.6353 125.595C5.81154 125.368 5.99924 125.204 6.12591 125.14C6.54334 124.929 6.7429 125.91 7.07006 126.337C7.30989 126.65 7.57864 126.891 7.86003 127.137C8.18487 127.42 8.57674 127.599 8.93141 127.836C9.08559 127.945 9.24957 128.054 9.43072 128.163C9.52198 128.218 9.61187 128.272 9.75897 128.382" stroke="#C2FF35" stroke-width="2.7371" stroke-linecap="round"/>
</svg>
