<svg width="127" height="127" viewBox="0 0 127 127" fill="none" xmlns="http://www.w3.org/2000/svg">
<path d="M96.7798 48.7469C96.7948 48.5491 96.8076 48.3686 96.8121 48.3024C96.7303 47.8169 96.36 47.8559 96.1381 47.722C95.9471 46.9413 95.8516 46.8129 95.1123 46.4507C94.7488 46.2738 94.3724 46.1429 94.0127 45.9689C93.7003 45.8179 93.4017 45.6356 93.0784 45.4544C92.8329 45.4878 92.5764 45.5646 92.3249 45.5456C92.0734 45.5266 91.8405 45.4112 91.5987 45.3388C91.5806 45.3355 91.5622 45.3339 91.5438 45.3339C90.95 45.2517 90.3517 45.2697 89.7545 45.2626C89.3735 45.2567 88.9891 45.275 88.6106 45.2371C87.8419 45.1583 87.0767 45.0972 86.4308 45.2642L85.1769 45.0953C85.2756 44.5478 85.381 44.0335 85.4532 43.5157C85.4657 43.3548 85.5195 43.1998 85.6092 43.0657C85.8665 42.7026 85.7477 42.2866 85.7196 41.9635C85.8379 41.5774 85.9344 41.2634 86.0163 40.992C85.9097 40.6321 85.8119 40.3206 85.7207 39.9993C86.3627 39.5952 86.2669 38.9657 86.2826 38.3074C86.6128 37.6074 86.5722 37.3256 85.986 36.292C85.9743 36.1477 85.96 35.9844 85.9531 35.9084C85.4979 35.115 85.085 34.3917 84.6937 33.7106C84.5129 33.6611 84.3355 33.5994 84.1629 33.526C84.0035 33.4436 83.8005 33.3569 83.7257 33.2143C83.5525 32.9053 83.2585 32.7654 82.9861 32.5422C82.3839 32.7564 82.0006 32.1422 81.4581 32.1209C80.93 32.3058 80.93 32.3058 80.4024 32.0947C79.8444 32.1514 79.2819 32.2244 78.8107 32.5453C78.4433 32.5138 78.0748 32.4417 77.7751 32.6589C77.4187 32.9167 77.0158 33.0066 76.583 33.0937L76.1445 33.4554C75.1256 33.7828 74.0297 33.8108 73.1155 34.426C72.4367 34.567 71.7869 34.7888 71.2171 35.2498C71.0763 35.2146 70.9293 35.2109 70.7869 35.2391C70.6444 35.2672 70.5099 35.3265 70.393 35.4128C70.317 35.4634 70.232 35.4991 70.1426 35.5181C69.6233 35.6588 69.102 35.7942 68.556 35.9386C68.1701 35.0645 67.8021 34.18 67.1089 33.5162C67.0754 33.3534 67.0456 33.2092 67.0309 33.1422C66.8436 32.8464 66.6443 32.6291 66.5618 32.3801C66.4492 32.0159 66.2927 31.6668 66.0958 31.3404C65.9892 31.1509 65.8548 30.9785 65.697 30.8289C65.441 30.6103 65.2046 30.3856 65.0968 30.0586C65.0035 29.7555 64.7969 29.4999 64.5201 29.3451C64.4399 29.2991 64.3682 29.2395 64.3083 29.1691C64.0195 28.7941 63.6852 28.4565 63.313 28.164C63.0218 27.9239 62.6963 27.7286 62.3473 27.5848C62.0593 27.5712 61.7736 27.5262 61.4953 27.4507C61.2148 27.3507 60.9063 27.365 60.6363 27.4905C60.1445 27.7339 59.5632 27.7359 59.1104 28.0747C58.5655 28.0277 58.2601 28.4776 57.9119 28.7456C57.5192 29.0445 57.2634 29.5262 56.9644 29.9401C56.8322 30.136 56.7141 30.3411 56.6111 30.5538C56.3526 31.0574 55.926 31.4638 55.7758 32.0318C55.7505 32.1292 55.6547 32.2067 55.5921 32.2955C55.4855 32.4435 55.3693 32.5871 55.2774 32.7433C54.938 33.3257 54.607 33.9115 54.1803 34.6596L53.9208 35.5796C53.7738 35.8134 53.6115 35.9848 53.5507 36.1865C53.4056 36.6588 53.0635 37.0549 53.0142 37.5662C52.9845 37.6724 52.9332 37.7714 52.8637 37.857C52.7422 38.0614 52.6168 38.2628 52.4937 38.464L51.7223 39.1062C51.6244 39.0765 51.5203 39.0432 51.4135 39.0147C51.3066 38.9862 51.1691 38.9563 51.0627 38.9312C50.8672 38.4 50.7915 38.2677 50.5109 38.1011C50.0202 37.8205 49.5042 37.6033 49.0394 37.2637C48.4267 36.8176 47.6417 36.6109 47.1996 35.93C47.1724 35.8884 47.1088 35.8699 47.0612 35.8357C46.6905 35.6055 46.3742 35.2763 45.8996 35.239C45.8025 35.2318 45.7131 35.132 45.6185 35.0769C45.5152 35.0037 45.4037 34.9429 45.2862 34.8959C44.8149 34.7585 44.3402 34.6364 43.8703 34.5091L43.3973 34.7748L42.6443 34.695L41.5717 35.1271L40.3703 36.2758C40.2065 37.0187 40.0822 37.6104 39.9414 38.1974C39.8953 38.3936 39.9138 38.5994 39.994 38.7842C40.1297 39.1414 40.2266 39.5129 40.3319 39.8549C40.0625 40.2864 40.0896 40.6685 40.3321 41.0292L40.1959 41.5591L40.6071 42.2952C40.6334 42.9297 40.7396 43.5522 40.8095 44.1751C40.8795 44.798 41.0693 45.4114 41.0558 46.1113C40.2774 45.9445 39.5988 46.2788 38.8536 46.3982C38.6206 46.2568 38.346 46.1346 38.0401 46.2396C37.7342 46.3445 37.4624 46.4674 37.1561 46.586C36.7782 46.4673 36.3725 46.4706 35.9966 46.5954C35.5606 46.7169 35.1941 46.9421 34.8067 47.0966C34.6234 47.0967 34.4377 47.045 34.2998 47.1044C33.6444 47.3847 32.9019 47.4156 32.2943 47.8229C32.2157 47.8687 32.1324 47.9062 32.0459 47.9347C31.6517 48.0697 31.2645 48.2246 30.8861 48.399C30.6673 48.5124 30.4957 48.7235 30.3157 48.9053C30.1773 49.044 30.076 49.223 29.9238 49.3511C29.6207 49.6186 29.3023 49.8644 29.1742 50.254C28.9172 50.4021 28.6531 50.498 28.6284 50.8408C28.6082 51.0949 28.5604 51.3461 28.4859 51.5898C28.4011 51.8707 28.3682 52.1646 28.3888 52.4572C28.4224 52.9459 28.4023 53.4385 28.406 53.9731C28.4073 53.9831 28.429 54.0345 28.4444 54.081C28.6355 54.6547 28.9675 55.1662 29.1057 55.7662C29.1685 56.0371 29.3687 56.2859 29.5471 56.5162C29.7564 56.791 30.0281 57.0086 30.1115 57.3808C30.1466 57.5389 30.3302 57.6667 30.4538 57.8015C30.5531 57.9079 30.6927 57.9862 30.7667 58.1063C31.1034 58.6283 31.5415 59.0773 32.055 59.4268C32.2217 59.5466 32.3341 59.7576 32.4404 59.94C32.5572 60.1504 32.6382 60.3713 32.723 60.5623L33.1272 60.7891C33.3867 61.1339 33.634 61.4635 33.8539 61.7571L33.4268 62.494C33.0804 62.8081 32.7899 62.9935 32.6069 63.2537C32.321 63.6805 31.9347 64.0306 31.4818 64.2733C31.3393 64.4809 31.1837 64.6792 31.0162 64.8672C30.9134 64.9725 30.826 65.0918 30.7566 65.2215C30.6129 65.5624 30.3312 65.7624 30.0577 65.9806C29.4382 66.4773 28.9685 67.1361 28.7008 67.8836C28.4106 68.2455 28.1174 68.6519 27.7757 69.0095C27.5696 69.2202 27.4282 69.4856 27.3683 69.7742C27.3087 70.0595 27.285 70.3513 27.2398 70.6844C27.1562 70.8307 27.0843 70.9835 27.0247 71.1413C26.9448 71.3852 26.9429 71.6547 26.8456 71.8874C26.5061 72.7187 26.8835 73.4729 27.0765 74.2431C27.1456 74.5188 27.3098 74.7692 27.4767 75.1311C27.8379 75.6409 28.561 75.942 28.9772 76.5653C29.0326 76.6483 29.1539 76.6918 29.2512 76.7419C29.4413 76.8416 29.6612 76.9034 29.8241 77.0362C30.0845 77.2415 30.394 77.3753 30.722 77.4244C31.312 77.5365 31.9003 77.6534 32.4895 77.7678C32.9819 77.6036 32.9816 77.6093 33.613 77.6604C33.7551 77.6536 33.8958 77.6295 34.032 77.5887C34.0865 77.5813 34.1431 77.5736 34.182 77.5683L34.6853 77.8506L36.4626 77.6089L37.2283 77.79C37.4953 77.6405 37.7863 77.6507 38.0934 77.7708C38.0604 78.1022 38.0287 78.4097 38.0042 78.654C38.0909 78.9421 38.1591 79.1692 38.2124 79.3532C38.1526 79.5876 38.1045 79.7582 38.0452 79.9789C38.3546 80.3159 38.1931 80.7507 38.1289 81.1192C38.0154 81.7988 38.1481 82.4256 38.3084 83.0555C38.2761 83.4999 38.2451 83.9375 38.2129 84.3751C38.3164 84.6461 38.3718 84.9329 38.3768 85.2229C38.3521 85.5161 38.3058 85.8071 38.2384 86.0936L38.5085 86.7153C38.4065 87.2881 38.3679 87.8284 38.457 88.2507C38.4219 88.7081 38.3594 89.056 38.3803 89.3925C38.425 89.7884 38.4901 90.1817 38.5756 90.5709C38.6693 91.0107 38.7666 91.485 39.2986 91.6446C39.3428 91.9701 39.3634 92.2965 39.5868 92.4166C40.0256 92.5323 40.3859 92.5693 40.6869 92.7196C40.9879 92.8699 41.2696 92.8949 41.5775 92.9379C42.2963 93.0404 42.9398 92.6893 43.6315 92.6428C43.8783 92.6102 44.1226 92.5612 44.3628 92.4959C44.6611 92.3682 44.9173 92.1558 45.2004 91.9996C45.5817 91.7917 45.8835 91.4237 46.353 91.3904C46.8015 91.3611 47.1518 91.1494 47.4579 90.8385C47.541 90.7417 47.6447 90.6648 47.7615 90.6134C47.8783 90.5621 48.0052 90.5377 48.1326 90.542C48.3011 90.5497 48.4795 90.4474 48.6437 90.373C48.7758 90.3132 48.892 90.2193 49.0201 90.1465C49.6859 89.7674 50.3532 89.3916 51.0153 89.0109C51.0908 88.96 51.1586 88.8985 51.2168 88.8285C51.5769 88.4401 52.0835 88.3135 52.5638 88.0186L54.0283 90.2937C54.2835 90.8315 54.4338 91.2715 54.6847 91.6435C54.9597 92.0519 55.2915 92.4209 55.4462 92.9757L55.902 93.2079L55.8137 93.2991C55.9993 93.5408 56.1819 93.7853 56.3705 94.0244C56.5309 94.2 56.6794 94.3862 56.8151 94.5816C57.026 94.9433 57.2018 95.321 57.3906 95.6947L57.8582 95.9966L58.0842 96.5021C58.3988 96.6856 58.6467 96.9528 59.0282 96.9552C59.3584 96.975 59.6789 97.0743 59.9625 97.2446C60.2065 97.3754 60.4893 97.4829 60.7569 97.3628C61.2142 97.1479 61.6755 97.1542 62.1539 97.2283C62.3178 97.2581 62.4865 97.245 62.6438 97.1903C62.8011 97.1356 62.9416 97.0412 63.0516 96.9162C63.1269 96.837 63.2074 96.7638 63.2993 96.6744C63.8093 96.5892 64.3881 96.627 64.6673 96.0766C64.9295 96.0055 65.1731 95.8781 65.3808 95.703C65.5886 95.528 65.7556 95.3097 65.8702 95.0634C65.9533 94.899 66.0591 94.7471 66.1845 94.6123C66.6341 94.1167 67.0942 93.631 67.5514 93.1412L67.5908 93.1732L67.7996 92.6448C68.2505 92.3832 68.4446 91.9303 68.578 91.5388C68.7437 91.3093 68.8934 91.1622 68.9685 90.9823C69.0738 90.7338 69.0751 90.4349 69.2028 90.2094C69.3305 89.9839 69.6451 89.8099 69.776 89.5658C70.019 89.1063 70.1884 88.6047 70.4261 88.0395L70.6487 87.8712C70.7332 87.9106 70.8254 87.923 70.8595 87.9738C71.162 88.418 71.6133 88.584 72.1089 88.709C72.2854 88.76 72.4398 88.8684 72.5479 89.017C72.9309 89.5543 73.4149 89.9026 74.0941 89.9381C74.3164 90.4 74.678 90.6054 75.1783 90.5487C75.4239 90.9407 75.7892 91.0064 76.1828 90.9473L76.5793 91.3674C77.041 91.4347 77.4633 91.5697 77.7898 91.9495C77.876 92.0509 78.0893 92.0638 78.2484 92.0772C78.4069 92.0742 78.5646 92.055 78.7192 92.02C79.1287 92.6352 79.8899 92.5261 80.4619 92.8386C80.512 92.8658 80.5996 92.8199 80.6697 92.8194C80.7912 92.8095 80.9134 92.8111 81.0346 92.8241C81.1692 92.8492 81.3023 92.8813 81.4335 92.9204L82.8495 92.5174L83.5091 92.7174C83.8147 92.356 84.2478 92.1262 84.7183 92.0755C84.8089 92.0453 84.8895 91.9909 84.9515 91.9183L86.004 90.1483C86.0075 90.0822 86.0166 89.8999 86.0242 89.7394L86.3614 89.2569C86.3275 88.8248 86.2925 88.3928 86.2493 87.8421C86.2866 87.3505 86.3252 86.7355 86.3796 86.1206C86.4326 85.4787 86.1822 84.8769 86.1408 84.2478L86.2588 83.751L85.7858 82.6104C85.8085 82.4274 85.8294 82.2651 85.8507 82.097C85.7861 81.9463 85.7214 81.7955 85.6681 81.6693C85.6854 81.4972 85.6986 81.3529 85.7099 81.245C85.5883 80.8577 85.1311 80.7071 85.1713 80.2208L85.5326 79.8991L86.3387 79.9614C86.9244 79.6106 87.5592 79.3492 88.2222 79.1861L89.5753 78.6039C89.9975 78.7637 90.3586 78.5404 90.7483 78.4444C91.2086 78.3264 91.6558 78.1208 92.1222 78.0732C92.5795 78.0333 93.0172 77.8693 93.3882 77.599C93.5056 77.5141 93.6375 77.452 93.7631 77.3772C94.0893 77.4551 94.3956 77.4779 94.6812 77.2897C94.7519 77.2311 94.8399 77.1972 94.9317 77.1935C95.2039 77.2402 95.3874 77.0919 95.5775 76.9507C95.6474 76.8905 95.7262 76.8416 95.8112 76.8058C96.5543 76.5712 97.1273 76.1098 97.5992 75.4777C97.6052 75.3309 97.552 75.1311 97.6294 75.0098C97.8641 74.6384 97.8471 74.1973 97.981 73.8012C98.0418 73.5916 98.0312 73.3679 97.9511 73.1649C97.802 72.6671 97.7005 72.1536 97.5874 71.6463C97.5321 71.4385 97.4341 71.2445 97.2995 71.0768C97.1962 70.9245 97.0548 70.7831 97.0048 70.6146C96.883 70.2103 96.6273 69.9022 96.3618 69.5967C96.1327 69.3348 95.8281 69.116 95.6688 68.8186C95.4158 68.3473 95.0332 68.0712 94.5893 67.868L94.1734 67.1971L93.3452 66.6309C93.3186 66.4961 93.2651 66.3681 93.1878 66.2546C93.1106 66.1411 93.0112 66.0443 92.8956 65.9702C92.4635 65.6714 92.0217 65.3672 91.6664 64.9844C91.2492 64.5287 90.9268 63.9876 90.5182 63.4209L89.9542 62.8086C90.4861 62.3188 90.8747 61.7569 91.514 61.4414L91.6347 61.0234L92.1913 60.6649L92.3861 60.1508C92.8002 59.8682 93.2013 59.5648 93.4457 59.1152C93.7366 58.5836 94.0556 58.0763 94.5626 57.7189C94.7499 57.5992 94.889 57.4172 94.9554 57.2051C94.987 57.0988 95.0575 57.0084 95.1529 56.9519C95.6449 56.7176 95.7934 56.1544 96.2191 55.8567C96.2583 55.8175 96.2893 55.7708 96.3101 55.7194C96.3309 55.6679 96.3411 55.6128 96.3402 55.5574C96.3417 55.0775 96.5808 54.7225 96.9161 54.4179C96.9962 54.355 97.0587 54.2723 97.0972 54.178C97.1358 54.0837 97.1491 53.981 97.136 53.88C97.0296 53.2304 97.17 52.6241 97.3983 52.0229C97.4649 51.8523 97.4914 51.6687 97.4758 51.4863C97.3903 50.741 97.2802 49.998 97.175 49.2238L96.7798 48.7469ZM95.8854 52.9865C95.7314 53.1223 95.6063 53.2876 95.5174 53.4727C95.4284 53.6577 95.3776 53.8588 95.3678 54.0638C95.3572 54.1924 95.3184 54.3171 95.2543 54.4291C95.1901 54.541 95.1021 54.6375 94.9966 54.7116C94.5299 55.0936 94.1597 55.5799 93.9157 56.1314C93.8811 56.2096 93.7975 56.2606 93.7434 56.3369C93.5505 56.5826 93.3657 56.8295 93.1786 57.0755C93.1284 57.1528 93.0731 57.2265 93.0128 57.2961C92.6256 57.6768 92.2345 58.0535 91.846 58.4333C91.7748 58.4916 91.715 58.5627 91.6697 58.6428C91.3998 59.2701 90.8441 59.6601 90.409 60.1458C90.1701 60.3974 89.8883 60.6042 89.5768 60.7567L89.3284 61.243L89.2964 61.2157L88.4888 62.0824C88.5016 62.5841 88.5145 63.0541 88.5274 63.523L88.99 63.9047L90.2751 65.7019L90.2466 65.7251L90.7347 66.1112C90.7805 66.2317 90.8319 66.3684 90.8814 66.4997L92.4884 67.7768L92.4729 67.7959C92.66 67.9572 92.845 68.1198 93.0342 68.2796C93.9931 69.0917 94.8351 70.0011 95.422 71.1137L95.7728 71.4054C95.9372 71.7824 96.0732 72.0592 96.1726 72.3489C96.2291 72.5426 96.2649 72.7418 96.2794 72.9431C96.292 73.183 96.3346 73.4205 96.406 73.6499C96.273 74.0447 96.14 74.4395 96.0083 74.8274L95.3896 75.0948L95.0484 75.4806C94.4615 75.5568 93.8984 75.7604 93.3985 76.0771L92.8109 76.0823C92.5161 76.0777 92.2268 76.1636 91.9823 76.3285C91.7162 76.4918 91.4168 76.5932 91.1063 76.6252C90.5806 76.6936 90.063 76.8136 89.5609 76.9835C89.2796 77.0862 88.9976 77.2173 88.7204 77.3421C88.1533 77.5913 87.5607 77.7777 86.9531 77.8981C86.733 77.9438 86.54 78.1137 86.3302 78.2011L85.1741 78.6434C84.8951 78.6553 84.4102 78.375 83.9796 78.7616C83.6685 79.3108 83.8312 79.8668 83.9565 80.4222C83.9999 80.6165 84.0631 80.8071 84.1011 81.0033C84.2204 81.6059 84.3317 82.2164 84.4096 82.6312C84.4498 83.4516 84.4715 84.0935 84.5146 84.7269C84.5443 85.1618 84.6031 85.5939 84.655 86.0258C84.6548 86.1335 84.6812 86.2395 84.732 86.3344C84.9662 86.6419 84.9448 86.9842 84.9419 87.3376C84.9399 87.5393 84.9332 87.7393 84.9289 87.9492L84.2043 90.2255C83.9729 90.4038 83.7611 90.6063 83.5726 90.8296C83.3011 91.1878 82.8335 91.3181 82.3903 91.2867C81.6057 91.2328 80.8248 91.1228 80.0431 91.0402C79.771 91.0104 79.4976 90.9887 79.2134 90.9618C78.875 90.5779 78.4998 90.2397 77.9482 90.2016C77.4569 89.7253 77.4194 89.7078 76.862 89.7021L74.782 88.7404L74.8857 88.6132L73.6664 87.9655C73.3372 87.8496 73.0168 87.7144 72.7759 87.3908C72.652 87.2289 72.4886 87.1015 72.3014 87.0209C71.8408 86.8289 71.4762 86.4938 71.0545 86.2457C70.7529 86.0731 70.3991 86.0155 70.0583 86.0836L69.735 86.5597C69.5608 86.8176 69.4323 87.1292 69.204 87.3221C68.6763 87.7683 68.5016 88.3803 68.2993 88.9893C68.2669 89.1468 68.2033 89.2962 68.1124 89.4288C67.904 89.7015 67.672 89.9593 67.4931 90.2495C67.2037 90.7165 66.9611 91.2122 66.6777 91.6829C66.4803 92.0118 66.2485 92.3205 66.0315 92.6385C65.9587 92.7188 65.8967 92.8082 65.8471 92.9045C65.7027 93.3235 65.3601 93.5828 65.0759 93.8896C64.7715 94.2217 64.4436 94.531 63.9697 95.0061L62.9675 95.6311L62.4391 95.4982C62.1156 95.6146 61.81 95.7806 61.4938 95.8179C61.1985 95.8513 60.888 95.7475 60.5856 95.645L60.0124 95.7648C59.4058 95.4022 58.8786 94.9209 58.4625 94.3497C58.0481 93.7985 57.6965 93.2094 57.2416 92.6762C56.9029 92.2673 56.6379 91.8026 56.4587 91.3028C56.2955 90.8749 56.0201 90.4989 55.6613 90.2143C55.4132 90.0296 55.2178 89.7831 55.0946 89.4994C55.0129 89.3314 54.9202 89.169 54.817 89.0133C54.8985 88.5395 54.3669 88.2825 54.2267 87.8423C54.2291 87.6349 54.2315 87.4366 54.2345 87.142L53.3726 86.6279L52.4526 86.3683C51.6225 86.4122 51.4656 86.5976 50.6512 87.3645L49.164 88.1425L48.7432 88.5255C48.1695 88.616 47.7377 89.0265 47.2398 89.4087C47.0965 89.4282 46.9154 89.4608 46.7333 89.4776C46.3815 89.4907 46.0453 89.6264 45.7831 89.8613C45.7145 89.9227 45.6336 89.9688 45.5458 89.9966C44.9266 90.1939 44.4187 90.6023 43.8465 90.8872C43.6844 90.9778 43.5276 91.0777 43.377 91.1863L42.6183 91.4309C42.141 91.3985 41.6888 91.3513 41.235 91.3418C40.865 91.3332 40.6467 91.0676 40.3369 90.8857C40.2333 90.1237 40.1348 89.3995 40.0364 88.6752C40.0096 88.4786 40.0432 88.2761 40.0309 88.0775C40.017 87.8588 40.0339 87.6166 39.9424 87.4266C39.7258 86.948 39.7836 86.5001 40.0151 86.0387C39.935 85.683 39.855 85.3274 39.7674 84.941L39.9745 84.4422C39.8508 83.9149 39.7346 83.4182 39.5955 82.8194L39.7695 82.3681C39.7761 81.9429 39.8046 81.5781 39.7803 81.216C39.7512 80.978 39.6769 80.7477 39.5613 80.5376C39.5797 80.3563 39.5969 80.1752 39.618 79.9642C39.5081 79.7769 39.4496 79.5638 39.4485 79.3466C39.4474 79.1295 39.5037 78.9158 39.6116 78.7274C39.7256 78.5173 39.678 78.4253 39.471 78.0089C39.6781 77.1107 39.1844 76.6088 38.4075 76.3693C37.9741 76.2359 37.5401 76.089 37.0746 76.1184C36.8917 76.1297 36.6991 76.1027 36.531 76.1561C36.0397 76.3122 35.5586 76.2521 35.069 76.1625C34.7872 76.1114 34.5002 76.0894 34.219 76.0518C33.9197 76.0382 33.6319 76.0185 33.3438 76.0135C33.0347 76.0114 32.7243 76.0333 32.4143 76.0335C32.1044 76.0338 31.7917 76.022 31.4445 76.0149C31.1407 75.7689 30.7801 75.6878 30.3482 75.6899C29.9819 75.6922 29.6147 75.4876 29.2497 75.3743C29.067 75.0371 28.8747 74.7295 28.7293 74.4008C28.5839 74.0721 28.4999 73.7532 28.4133 73.4991C28.4269 72.9667 28.4396 72.5113 28.454 71.9097C28.5284 71.7992 28.5672 71.6686 28.5652 71.5354C28.5633 71.4022 28.5207 71.2728 28.4432 71.1645C28.6784 70.8304 28.8953 70.5373 29.0988 70.228C29.2202 70.0474 29.3245 69.8579 29.4328 69.6644C29.4694 69.5808 29.5113 69.4995 29.5581 69.4211C29.894 68.9704 29.8963 68.9712 30.0025 68.5292C30.647 68.1021 30.9634 67.3916 31.3124 66.705C31.4692 66.6022 31.6167 66.4882 31.7783 66.404C32.0951 66.2377 32.2754 65.9575 32.4897 65.6783C32.8748 65.1824 33.1463 64.5584 33.7008 64.3597C33.9352 64.0699 34.0813 63.8294 34.2841 63.657C34.4869 63.4846 34.747 63.3836 34.9697 63.2572C35.2885 62.6652 35.5973 62.0903 35.9086 61.5095L35.6812 60.9849L35.1847 60.8193C35.1312 60.6841 35.0768 60.55 35.0235 60.4159L34.9729 60.4601L33.0727 58.6413C32.99 58.2407 32.7944 57.817 32.4243 57.6829C32.0121 57.1473 31.6668 56.7213 31.3381 56.2841C31.1995 56.097 31.0811 55.8914 30.9599 55.6906C30.764 55.3654 30.6765 54.9711 30.3345 54.7359C30.2921 54.7006 30.2598 54.6547 30.241 54.6027C30.2222 54.5508 30.2176 54.4948 30.2276 54.4405C30.1626 54.145 30.0942 53.85 30.0313 53.5542C29.9387 53.1142 29.859 52.6861 30.0571 52.2542C30.1289 52.125 30.1727 51.9822 30.1857 51.835C30.1796 51.6229 30.2297 51.4129 30.3309 51.2263C30.4321 51.0397 30.5807 50.8831 30.7619 50.7724C30.8752 50.7064 30.9702 50.613 31.0382 50.5008C31.1061 50.3886 31.1448 50.2612 31.1508 50.1301L31.8962 49.8455C32.3863 49.2901 33.0677 49.0425 33.7802 48.8495C34.149 48.7496 34.5141 48.6309 34.9566 48.4983C35.8628 48.5278 36.7579 48.2921 37.5321 47.8201C37.7128 47.9207 37.9146 47.9773 38.1213 47.9856C38.328 47.9939 38.5337 47.9535 38.7219 47.8676C39.284 47.6419 39.8845 47.8148 40.4657 47.7709C40.6091 47.7604 40.7541 47.7701 40.8989 47.7617C41.1492 47.7469 41.406 47.6803 41.6475 47.7177C41.9201 47.7558 42.1979 47.7215 42.4531 47.6183C42.7982 47.4933 43.0179 47.2791 43.0165 46.8527C42.9308 46.6302 42.8305 46.3746 42.7364 46.1317C42.7343 45.8254 42.7803 45.5227 42.7195 45.2425C42.5516 44.4734 42.3411 43.7236 42.1152 42.8447L41.9293 41.4773L41.9704 41.4717L41.6534 40.7127L41.6934 40.7073L41.5564 39.6998L41.5265 39.7038C41.5141 38.9057 41.5019 38.1086 41.4882 37.2506L41.7828 36.921L43.6083 36.0268C44.1383 36.0475 44.5444 36.5715 45.11 36.3962C45.2654 36.5061 45.4096 36.6308 45.5408 36.7687C45.794 37.0918 46.1016 37.2909 46.5331 37.2854C47.0718 37.7779 47.598 38.2946 48.1557 38.7686C48.3592 38.9424 48.6421 39.0181 48.8865 39.1512C49.3027 39.3831 49.7134 39.6248 50.0534 39.8207L50.829 40.6407L51.7691 40.8071C51.862 40.7416 51.9667 40.6947 52.0773 40.669C52.6659 40.6376 52.9673 40.2086 53.3008 39.8238C53.5044 39.5903 53.6873 39.338 53.9147 39.1215L54.3217 38.1962C54.4827 38.0798 54.6177 37.9312 54.7181 37.7598C54.8185 37.5883 54.8821 37.3979 54.9048 37.2006C54.9321 36.9604 55.0966 36.731 55.2188 36.5062C55.3991 36.1683 55.631 35.8517 55.7883 35.5022C55.9064 35.2395 55.9381 34.9399 56.0407 34.5549L56.9773 33.2555C57.0154 32.6451 57.7858 32.4204 57.7152 31.7761C58.0739 31.5768 58.2171 31.3073 58.0828 30.9602L59.3345 29.6982C59.531 29.4802 59.8047 29.3472 60.0975 29.3275C60.3212 29.3084 60.5381 29.1896 60.8302 29.091L61.5122 28.9983C62.6395 29.1935 63.2536 30.0739 63.7416 30.8674L64.1206 31.0998C64.24 31.3958 64.3286 31.6734 64.4595 31.9283C64.5825 32.1672 64.7476 32.3835 64.886 32.6192C65.2897 33.0169 65.2897 33.0169 65.4607 33.6838L65.9102 34.0865C65.9356 34.2233 65.9666 34.3843 65.9962 34.5443L66.0394 34.5203C66.3776 35.0777 66.7177 35.6375 67.0596 36.1997L67.0099 36.2336C67.1373 36.3385 67.2646 36.4422 67.3924 36.5504C67.671 37.085 67.9856 37.5853 68.5664 37.7711C69.0882 37.6481 69.4442 37.2297 69.9988 37.3308C70.4016 36.8823 70.9852 36.7645 71.5426 36.5869C71.7334 36.5259 71.9154 36.4333 72.1041 36.3646C72.3961 36.2571 72.6906 36.1605 72.9828 36.054C73.1336 35.9984 73.2796 35.9322 73.4692 35.8544C74.2025 35.7886 74.9105 35.4797 75.6231 35.1871C76.0318 35.1224 76.4107 35.0053 76.6715 34.6848C77.2167 34.5348 77.7749 34.4793 78.2215 34.1199C78.3419 34.0232 78.5289 34.0091 78.6865 33.9617C78.9126 33.8936 79.1402 33.8287 79.4301 33.7474C79.8955 33.8247 80.3735 33.749 80.7923 33.5317C80.9703 33.6512 81.1206 33.7993 81.3004 33.8574C81.45 33.8866 81.6036 33.8895 81.7541 33.8659L83.3801 34.6834C83.8873 35.2933 84.5749 35.8492 84.7521 36.7109C84.7411 37.2295 84.7301 37.7231 84.7168 38.3155C84.482 38.7852 84.5495 39.3564 84.7591 39.9332C84.5533 40.3334 84.231 40.6838 84.1701 41.1763L84.3852 41.4932C84.3315 41.7562 84.2845 41.9843 84.2387 42.2134L84.2844 42.2253L84.0513 42.6654C84.12 43.2297 83.9403 43.7463 83.7837 44.2755C83.6759 44.6822 83.6267 45.1023 83.6376 45.5229L83.3937 46.0007C83.4303 46.5614 83.7745 46.9377 84.2798 46.9097C84.9536 46.8724 85.6234 46.8063 86.2855 46.5341C86.5563 46.6285 86.8462 46.7384 87.1424 46.8283C87.2798 46.8765 87.4252 46.8978 87.5706 46.8911C88.2746 46.8393 88.9812 46.8351 89.6857 46.8785C89.9244 46.8867 90.1628 46.8679 90.4004 46.8684C90.5453 46.8583 90.6908 46.8678 90.8331 46.8967C91.2644 47.0236 91.6948 47.0771 92.0673 46.9631C92.4736 47.1138 92.8084 47.2628 93.1578 47.3613C93.699 47.5184 94.1914 47.8104 94.5889 48.2098C94.7186 48.3313 94.9068 48.3928 95.0648 48.4732L95.5892 49.3262C95.4451 49.7644 95.6744 50.2027 95.8393 50.6498C96.1235 51.4088 96.1203 52.1763 95.8854 52.9865Z" fill="#2C2C2C"/>
<path d="M87.5925 59.9008C87.6616 59.5102 87.8144 59.1364 87.6308 58.7507L87.2982 58.3434C87.3551 58.1625 87.4042 58.0077 87.4563 57.8422L87.1949 57.4252C87.2013 57.2976 87.2069 57.1724 87.2123 57.071C86.8722 56.6081 86.756 56.211 86.6668 55.43C86.5622 55.218 86.4628 55.0448 86.388 54.8604C86.2731 54.5728 86.2029 54.2645 86.0647 53.9891C85.7227 53.3036 85.3359 52.6389 85.0022 51.9489C84.881 51.6984 84.7472 51.5129 84.4582 51.4674C84.3972 51.2766 84.3505 51.0996 84.2816 50.9257C84.2273 50.7928 84.1771 50.6311 84.072 50.5492C83.7632 50.3042 83.5547 49.9547 83.4859 49.5665L82.877 49.2488L82.1575 48.1757L81.765 47.9598C81.7362 47.5644 81.5278 47.3133 81.1735 47.1125C80.849 46.9304 80.5235 46.7167 80.216 46.5017C79.7886 46.2045 79.3878 45.8359 79.1768 45.3736C78.7157 45.0697 78.3013 44.7595 77.8541 44.516C77.407 44.2724 76.923 44.0995 76.4374 43.8895C76.3517 43.7665 76.2565 43.6324 76.1277 43.4508C75.8526 43.366 75.5377 43.2719 75.2288 43.1714C75.1198 43.1524 75.0166 43.1092 74.9265 43.045C74.5808 42.6994 74.1163 42.6359 73.6554 42.4915C73.4474 41.927 72.7808 42.1579 72.455 41.8005L71.9701 41.8371L70.8533 41.2863L70.3565 41.4104C69.9844 41.1114 69.5603 41.1793 69.1448 41.2516C68.7691 41.0764 68.4191 40.9068 67.9851 40.9183C67.6924 40.9366 67.4005 40.872 67.1429 40.7318C66.7714 40.4961 66.4433 40.4378 66.0582 40.6259C66.006 40.6431 65.951 40.6506 65.8961 40.6479L64.5469 40.7103C63.894 40.5061 63.2016 40.462 62.5281 40.582C62.2391 40.6334 61.9431 40.6311 61.6549 40.5751C61.4939 40.5587 61.3314 40.5648 61.172 40.5933C61.0333 40.6206 60.8931 40.6397 60.7522 40.6503C60.334 40.6371 59.9179 40.6054 59.4412 40.5774L59.0034 40.9107L58.3667 41.1036C58.0896 41.0712 57.8887 41.008 57.701 41.0335C56.9401 41.1369 56.2567 41.5693 55.4698 41.5733C55.1556 41.8332 54.7636 41.8628 54.386 41.9231L54.0714 42.2635L52.8458 42.5851C52.6387 42.7264 52.4487 42.8766 52.2454 42.9959C51.9161 43.1866 51.5776 43.3594 51.1591 43.5848C50.5397 43.5559 49.9856 43.8654 49.572 44.4353L49.0224 44.553C48.8285 44.7728 48.5948 44.9539 48.3335 45.0867C48.0478 45.215 47.8248 45.372 47.7519 45.6184C47.3679 45.8312 47.0309 46.0071 46.7001 46.2037C46.517 46.3189 46.3428 46.4477 46.1789 46.5891C45.9696 46.7635 45.7948 46.992 45.564 47.1252C45.2597 47.3001 45.0193 47.4957 44.978 47.7332L44.0662 48.5156L43.8946 48.918C43.4284 49.3332 43.1435 49.8754 42.6045 50.1466C42.5745 50.168 42.5507 50.197 42.5356 50.2307L41.8646 51.3537L41.9149 51.3819L41.2028 51.9697C41.1921 52.1737 41.1828 52.3548 41.1737 52.5212C40.718 52.8389 40.7226 52.8394 40.543 53.4408C40.4656 53.7036 40.3659 53.9604 40.268 54.2475C39.8799 54.513 39.7255 54.9333 39.6324 55.3974C39.5929 55.5907 39.5124 55.7733 39.3964 55.9329C39.0318 56.4214 38.8926 56.9958 38.7985 57.5687C38.729 57.9888 38.6638 58.3914 38.4439 58.738C38.4118 58.9347 38.4299 59.1427 38.3431 59.2869C38.1777 59.5616 38.0784 59.871 38.0531 60.1906C38.0067 60.6235 37.9691 61.054 37.9624 61.5289C37.7523 61.8392 37.7532 62.2203 37.8192 62.6062C37.8852 62.992 37.8977 63.358 37.7323 63.7392C37.6393 63.9416 37.5904 64.1614 37.5887 64.3842C37.587 64.6069 37.6326 64.8275 37.7224 65.0314C37.8346 65.2681 37.8979 65.5251 37.9084 65.7869C37.9189 66.0487 37.8765 66.3099 37.7836 66.5549L38.3529 67.6552L38.5174 68.4157C38.3756 68.7043 38.4281 69.0569 38.6202 69.3962C38.5203 69.8182 38.5352 70.211 38.8607 70.4745C38.9063 70.6855 38.9417 70.8459 38.9717 70.9832L39.2579 71.3323C39.5499 72.0574 39.7641 72.7343 40.1002 73.3674C40.4363 74.0005 40.6909 74.7001 41.225 75.3912C41.5067 75.5576 41.7519 75.9384 42.0112 76.3229C42.3868 76.8804 42.8081 77.4081 43.226 77.935C43.439 78.2036 43.6847 78.4383 43.982 78.769C44.097 78.8665 44.3433 79.005 44.4631 79.2127C44.7888 79.7771 45.3251 80.0357 45.8785 80.3111L46.1792 80.7092L47.0612 81.155C47.1587 81.4811 47.3982 81.6454 47.715 81.7449C47.9453 81.819 48.1635 81.9265 48.3625 82.0641C49.05 82.5443 49.6798 83.1159 50.5147 83.3486C50.5453 83.3569 50.5612 83.4079 50.5925 83.4218C50.7734 83.5035 50.9512 83.6219 51.1408 83.6516C51.6678 83.7364 52.1721 83.9273 52.6233 84.2125C52.9583 84.4225 53.3532 84.516 53.7467 84.4784C54.0326 84.659 54.2448 84.8632 54.4951 84.9321C54.822 85.0235 55.1572 85.134 55.5222 85.064C55.7025 85.0478 55.8841 85.0756 56.0513 85.1448C56.6224 85.3342 57.1862 85.5449 57.7563 85.7355C57.8959 85.7731 58.04 85.7916 58.1846 85.7904C58.3483 85.7964 58.5131 85.7854 58.6771 85.7766C58.8724 85.7648 59.0668 85.7474 59.3289 85.7276L59.975 85.7948C60.2326 86.0256 60.6333 86.0356 61.0445 85.9729C61.1901 85.9532 61.3538 85.8924 61.4776 85.9378C61.7811 86.0482 62.0555 85.9531 62.3447 85.9082C62.581 85.8805 62.8189 85.8678 63.0568 85.8702C63.2203 85.8661 63.3848 85.8776 63.548 85.8713C63.8191 85.8605 64.0901 85.8395 64.2652 85.8292C64.732 85.7431 65.1196 85.5818 65.4821 85.6265C66.1254 85.7064 66.6925 85.4426 67.4027 85.3823C67.7976 85.4327 68.1447 85.4059 68.4692 85.2045C68.7341 85.0395 69.0095 85.0179 69.307 84.9843C70.2245 84.8844 71.104 84.663 71.8552 84.0721C72.0869 84.0364 72.3163 83.9871 72.5422 83.9244C73.3562 83.6612 74.1468 83.3304 74.9058 82.9356C75.2615 82.7481 75.664 82.5882 75.9423 82.2381C76.158 81.9689 76.476 81.8114 76.8221 81.7032C77.189 81.5941 77.5397 81.4364 77.8649 81.2345C78.1768 81.0326 78.423 80.7298 78.7141 80.4912C79.1038 80.1701 79.3359 79.6475 79.9185 79.5717C80.145 79.2072 80.3611 78.8327 80.7926 78.7367C81.1038 78.2962 81.3947 77.881 81.7313 77.4031C82.1027 77.339 82.3885 77.0524 82.5262 76.6422C83.1224 76.3926 83.4243 75.9251 83.6349 75.3522C83.962 75.1788 84.2194 74.9334 84.2095 74.6688C84.5139 74.1953 84.8286 73.8719 84.9437 73.4875C85.0641 73.0546 85.3098 72.6669 85.6498 72.3733L86.4468 70.4548C86.4199 70.2619 86.4465 70.0654 86.5238 69.8867C86.601 69.708 86.726 69.554 86.8849 69.4415C86.9658 69.2042 87.0911 68.9858 87.0799 68.7791C87.0501 68.2684 87.3381 67.874 87.4891 67.4281C87.3645 66.6452 87.7151 65.9199 87.7764 65.1558C87.8187 64.6353 88.1093 64.1263 87.8422 63.718C87.8642 62.4818 87.8847 61.359 87.9037 60.276C87.7773 60.1201 87.6831 60.0095 87.5925 59.9008ZM86.2758 60.6093C86.2237 60.7674 86.2043 60.9346 86.2189 61.1004C86.2335 61.2663 86.2817 61.4275 86.3606 61.5741C86.2907 61.8561 86.2919 62.151 86.3641 62.4323C86.4391 62.7423 86.3816 63.085 86.3819 63.4787C86.0594 63.9524 86.2122 64.5516 86.1767 65.173C86.0962 65.2946 86.0435 65.4324 86.0225 65.5767C86.0014 65.7209 86.0125 65.8681 86.0549 66.0076C86.1339 66.2729 85.9813 66.6149 85.9105 66.9176C85.8258 67.2685 85.7189 67.6224 85.6008 68.0604C85.4268 68.257 85.3004 68.491 85.2312 68.7442C85.1621 68.9974 85.1521 69.2632 85.2021 69.5209C84.9091 69.81 84.7138 70.1835 84.6436 70.589C84.6185 70.7373 84.4853 70.873 84.3852 71.002C84.1257 71.3327 83.9293 71.7084 83.8062 72.1103C83.698 72.4712 83.4789 72.7985 83.3068 73.1387C83.1908 73.3671 83.0687 73.593 82.9286 73.8689C82.5032 74.4347 81.8039 74.8579 81.605 75.6836C81.4539 75.7426 81.3059 75.8092 81.1615 75.8831C81.0473 75.9556 80.9384 76.0362 80.8357 76.1242C80.8138 76.3297 80.7951 76.4918 80.7743 76.6881C80.1506 76.9516 79.651 77.3793 79.1993 78.0019C78.9438 78.1127 78.7197 78.2851 78.5469 78.5035C78.1755 78.959 77.581 79.1462 77.1474 79.5355C76.7955 79.8515 76.3255 80.0059 76.0161 80.3681C75.8852 80.5205 75.7455 80.6662 75.5773 80.852C75.4973 80.8708 75.3744 80.8988 75.2485 80.9295C75.1225 80.9602 74.9808 80.9659 74.8819 81.0291C74.246 81.4697 73.5189 81.7134 72.8277 82.0381C72.3555 82.2596 71.9282 82.579 71.4686 82.8599C71.2465 82.8901 71.0026 82.9605 70.7697 82.9447C70.5161 82.9339 70.263 82.9749 70.0258 83.0651C69.7693 83.1508 69.5017 83.2042 69.2399 83.276C69.1492 83.2887 69.0622 83.3202 68.9843 83.3684C68.6144 83.6846 68.1807 83.6904 67.7443 83.6422C67.673 83.6733 67.6051 83.7113 67.5414 83.7558C67.3702 83.9065 67.1698 84.0201 66.9526 84.0898C66.7355 84.1594 66.5063 84.1834 66.2795 84.1604C65.9259 84.1395 65.5632 84.2759 65.0821 84.3651C65.0335 84.3491 64.859 84.297 64.6381 84.2286C64.148 84.6176 63.6167 84.3799 63.0761 84.2147C62.5008 84.5768 61.8762 84.4423 61.2595 84.4085C60.9175 84.3894 60.5672 84.4008 60.2221 84.4002C59.9302 84.4003 59.6386 84.4026 59.2995 84.4046C59.185 84.2866 59.0562 84.1548 58.9824 84.0777C58.1776 83.9835 57.4441 84.1138 56.737 83.9135C56.4586 83.8382 56.1826 83.7467 55.9094 83.6515C55.5528 83.5246 55.1971 83.3637 54.8286 83.2656C54.6279 83.2126 54.4001 83.2594 54.1323 83.2618C53.925 82.8692 53.4214 82.8765 53.1461 82.6651L52.201 82.496C52.0635 82.3167 51.958 82.1896 51.8414 82.0392C51.3099 82.0243 50.8966 81.7468 50.4846 81.4215C50.2536 81.2368 49.9417 81.1559 49.6797 80.9766L49.253 80.9418C49.0584 80.7415 48.8511 80.5539 48.6325 80.3802C48.2577 80.12 47.8637 79.893 47.4759 79.6539C47.0549 79.3943 46.6162 79.1553 46.3996 78.6689C46.3586 78.5657 46.2862 78.4782 46.1925 78.4187C45.563 78.1072 45.1981 77.5119 44.707 77.0537C44.4571 76.8218 44.2092 76.5874 43.9363 76.3779C43.7305 76.0869 43.5446 75.7931 43.2571 75.5425C42.9152 75.2496 42.7537 74.7941 42.5644 74.3922L41.9969 73.4795L42.0548 73.4399L41.4689 72.9166C41.4715 72.7522 41.4742 72.5889 41.4785 72.3881C41.3734 72.2553 41.2501 72.0978 41.1164 71.9293C41.0836 71.7629 41.0477 71.5823 41.0075 71.3784C40.544 70.9561 40.4287 70.3496 40.2509 69.7741C40.1482 69.443 40.0984 69.0934 39.9774 68.7693C39.9029 68.5713 39.7401 68.4056 39.5836 68.178C39.4997 67.7437 39.3901 67.254 39.745 66.777C39.6355 66.5124 39.5228 66.2415 39.4658 66.1044C39.4003 65.0069 39.3423 64.0396 39.2802 62.9924C39.5113 62.3954 39.5182 62.3458 39.4213 61.7084C39.6386 61.2761 39.8148 60.7996 39.7794 60.2648C39.7737 60.1157 39.8202 59.9693 39.9109 59.8509C40.1374 59.578 40.1687 59.2502 40.2384 58.9308C40.3306 58.5189 40.4393 58.1115 40.5491 57.6712L40.3 57.4448L40.7167 57.0646L40.6949 56.3639L41.4954 55.2448C41.4935 55.1477 41.4892 54.9662 41.4833 54.6898C41.867 54.1172 42.3224 53.4976 42.7137 52.8391C42.9774 52.3789 43.3098 51.9618 43.6995 51.602C43.7761 51.5328 43.801 51.4083 43.8636 51.3195C44.0622 51.0413 44.1969 50.7085 44.5108 50.521C44.6365 50.4427 44.7386 50.3318 44.8066 50.2002C45.0553 49.6912 45.5434 49.3952 45.872 48.958C45.9219 48.8924 46.0328 48.8761 46.1034 48.8213C46.2512 48.7177 46.3867 48.5975 46.5073 48.4632C46.7163 48.1949 46.9301 47.9532 47.2845 47.8891C47.3209 47.882 47.3546 47.8649 47.3819 47.8397C47.75 47.4933 48.1167 47.1447 48.4626 46.7764C49.0343 46.3298 49.7928 46.1509 50.2531 45.5001C50.782 45.6544 51.1662 45.3759 51.543 45.0441C51.5854 44.8981 51.6296 44.7405 51.6679 44.6063C51.9269 44.5394 52.1644 44.4799 52.3999 44.4151C52.8582 44.2906 53.3127 44.1553 53.7718 44.0374C54.0736 43.9602 54.316 43.8209 54.4279 43.4957C55.0319 43.6115 55.5799 43.4318 56.0838 43.1936C56.6249 42.9379 57.2081 42.8835 57.762 42.7053C58.0002 42.6312 58.2311 42.535 58.4515 42.418C59.3462 42.3417 60.2578 42.3897 61.2731 42.177L61.6871 42.2429L62.3182 41.8923C62.4619 41.9339 62.6034 42.0176 62.7351 42.0043C63.0987 41.9592 63.4675 41.9811 63.8232 42.069C64.1115 42.1429 64.3508 41.9724 64.5272 41.747C65.0175 41.85 65.5016 41.9802 65.9774 42.137C66.4065 42.297 66.9011 42.2739 67.4765 42.345L68.8921 42.4139L69.7473 42.9538L70.1938 42.8015C70.3128 42.9168 70.4544 43.0062 70.6097 43.0641C70.765 43.1221 70.9305 43.1473 71.096 43.1381C71.5232 43.1265 71.8562 43.3878 72.2126 43.5622C72.5689 43.7366 72.9092 43.8929 73.2914 43.8002L73.736 44.224C74.4584 44.2954 74.4584 44.2954 75.0068 44.8759C75.3353 44.9142 75.6519 45.0219 75.9356 45.1918C76.2193 45.3618 76.4636 45.5901 76.6523 45.8616C77.2408 45.9377 77.6316 46.4073 78.1259 46.7146C78.8803 47.1633 79.5531 47.7366 80.1157 48.4103C80.4772 48.8248 80.8701 49.2109 81.2909 49.5652C81.5822 49.8123 81.8333 50.1034 82.035 50.4279C82.3295 50.9298 82.7019 51.3894 83.0378 51.863C83.1764 52.5908 83.6043 53.1753 83.9557 53.7961C84.081 54.0189 84.179 54.2568 84.3083 54.4756C84.5125 54.8212 84.7333 55.1555 85.0019 55.5828L85.0588 56.0016C85.4461 56.5452 85.7086 57.1114 85.7516 57.7685C85.7773 58.1157 85.7964 58.4729 86.0763 58.7426C85.8569 59.0926 85.9056 59.4174 86.131 59.7273C86.2267 59.8506 86.29 59.9959 86.3153 60.1499C86.3406 60.3039 86.327 60.4619 86.2758 60.6093Z" fill="#2C2C2C"/>
<path d="M79.4268 50.9239L79.0863 51.2734L78.5798 50.9769C77.8978 51.228 77.2138 50.9148 76.5089 50.9394C76.0946 50.5635 75.6316 50.528 75.148 50.7986C74.905 50.7501 74.673 50.7081 74.4496 50.6548C74.0599 50.5675 73.6766 50.4363 73.2822 50.3893C72.5256 50.2998 71.7896 50.453 71.0491 50.6815C70.751 50.5365 70.4547 50.5621 70.1123 50.6562C69.5503 50.8084 69.0073 51.0666 68.4054 51.0579C68.3333 51.0669 68.2628 51.0857 68.1957 51.1136L68.2294 51.178L65.4403 52.7564L64.4252 54.0032C64.4012 54.1512 64.3725 54.3226 64.3365 54.5402L63.8261 54.2894L62.5499 54.2807C62.3921 54.2701 62.2337 54.2765 62.0773 54.2997C61.7357 54.3431 61.3966 54.4043 61.0614 54.4831C60.6991 54.581 60.3572 54.7621 59.9925 54.8343C59.7601 54.8806 59.5129 54.9346 59.2487 54.8223C58.867 54.6606 58.4673 54.5452 58.0582 54.4785C57.2971 54.3557 56.6069 54.0309 55.854 53.769L55.4419 53.825C54.7756 53.6588 54.2309 53.3222 53.5766 53.5944C52.9948 53.3341 52.4523 53.521 52.0026 53.8084C51.7101 53.8119 51.4754 53.7669 51.278 53.8288C50.973 53.9325 50.6932 54.1131 50.3622 54.2826C50.189 54.2111 49.9974 54.1978 49.816 54.2447C49.6347 54.2916 49.4735 54.3961 49.3567 54.5426C49.3192 54.583 49.2725 54.6137 49.2207 54.6324C48.6836 54.8417 48.1805 55.1297 47.7281 55.4869C47.4768 55.5856 47.266 55.6244 47.1094 55.7374C46.6841 56.0463 46.2834 56.3859 45.8707 56.7124C45.599 56.927 45.3247 57.1396 45.0781 57.3315L44.2945 57.2514C44.1339 57.3199 43.9663 57.3708 43.7947 57.4031C43.339 57.4379 43.1102 57.702 43.0083 58.0677C43.0684 58.3605 43.1345 58.6049 43.1671 58.8528C43.2488 59.4537 43.5611 59.8536 44.1177 60.0947C44.4363 60.2335 44.719 60.4406 44.834 60.6286C44.8883 61.0285 44.9079 61.2974 44.961 61.5628C45.0478 61.9685 45.257 62.3338 45.3781 62.7336C45.5262 63.2237 45.7451 63.7019 45.938 64.1893C45.988 64.2856 46.0561 64.3712 46.1386 64.4415C46.2404 64.5408 46.3532 64.6386 46.4628 64.7369C46.4584 64.8951 46.489 65.0523 46.5523 65.1974C46.6156 65.3425 46.7102 65.4719 46.8292 65.5763C47.1664 65.9094 47.4559 66.3 47.8272 66.5844C48.2451 66.9043 48.762 67.0942 49.185 67.418C49.3745 67.5698 49.5938 67.68 49.8286 67.7417C50.0635 67.8033 50.3086 67.8149 50.5482 67.7757C50.9548 67.9535 51.3315 68.1444 51.7247 68.2821C52.5813 68.5831 53.4631 68.47 54.3291 68.3489C54.6323 68.3077 54.9333 68.2667 55.2379 68.2434C55.5425 68.2201 55.8349 68.1408 56.1328 68.0856C56.3244 68.0471 56.5794 68.1165 56.7108 68.0183C57.0584 67.7617 57.4644 67.6692 57.8619 67.5224C57.9741 67.1496 58.2764 66.9683 58.5699 66.7801C59.0691 66.4577 59.349 66.0203 59.2856 65.3874C59.8725 65.0689 60.1434 64.557 60.1537 63.9005C60.173 63.6077 60.2537 63.3223 60.3905 63.0628C60.5406 62.7267 60.6087 62.3543 60.4013 61.9933C60.6073 61.5037 60.8126 61.0165 61.0268 60.5111C61.0043 60.263 60.981 59.9912 60.9573 59.7173L61.8659 59.2442C62.7333 58.8921 63.3803 59.2985 64.0191 59.8033C64.092 59.9733 64.1652 60.1625 64.2546 60.337C64.3264 60.4842 64.4125 60.6241 64.5116 60.7546C64.8889 61.2418 65.2776 61.7207 65.6561 62.2078C65.7092 62.2827 65.7479 62.3668 65.7701 62.4559C65.8507 62.7025 66.0123 62.9145 66.2287 63.0576C66.5219 63.2757 66.8 63.5151 67.1096 63.7117C67.4733 63.9476 67.8514 64.1607 68.2417 64.3497C68.6204 64.5313 69.0725 64.5943 69.3994 64.8349C69.803 65.1398 70.2836 65.3264 70.7872 65.3737L71.3102 65.7087L71.9223 65.6255L72.3643 65.7397L73.871 65.4296L74.3226 65.5062C74.4098 65.479 74.494 65.4429 74.5738 65.3985C75.0436 65.077 75.5881 64.8814 76.1552 64.8306C76.3915 64.7978 76.6115 64.6911 76.7835 64.5257C77.251 64.0616 77.7352 63.6043 77.9922 62.9562C78.4694 62.7465 78.7001 62.3384 78.8056 61.858C79.1417 61.6007 79.34 61.2864 79.2974 60.9483C79.9913 59.7441 80.2497 58.4826 80.5584 57.2255C80.3841 56.8917 80.2537 56.5485 80.4971 56.2666C80.4301 56.0155 80.38 55.8299 80.3485 55.7143C80.7463 55.3865 81.1016 55.1379 81.3997 54.8338C81.6978 54.5296 81.8153 54.0713 81.966 53.6401C81.7987 53.242 81.5803 52.8588 81.4642 52.4458C81.28 51.8067 80.4619 50.9484 79.4268 50.9239Z" fill="#2C2C2C"/>
<path d="M69.5838 70.5605C69.1968 70.6685 69.0948 70.9663 69.0483 71.2487C68.9808 71.6674 68.8129 72.0138 68.4841 72.2576C68.5023 72.4353 68.4778 72.6148 68.4126 72.7811C68.3475 72.9473 68.2435 73.0957 68.1094 73.2136L67.3431 73.8349C67.1682 73.7934 66.984 73.8202 66.828 73.9097C66.6721 73.9992 66.5561 74.1447 66.5036 74.3167L65.3219 74.7036L64.5523 74.4688L64.1708 74.7085L63.246 74.7211L62.6692 74.39L62.2624 74.5347C61.863 74.2767 61.4759 74.0759 61.0008 74.0013C60.7168 73.9596 60.4366 73.7454 60.2021 73.5522C59.9229 73.3209 59.693 73.0274 59.4123 72.7352C59.2763 72.3012 59.1587 71.8103 58.6417 71.5695L58.0063 71.6559C57.6573 72.0179 57.6573 72.0179 57.6164 72.89C57.9403 73.3506 58.2942 73.8568 58.6512 74.3604C58.6847 74.4045 58.7251 74.4429 58.7708 74.4742C59.0495 74.6773 59.3064 74.9275 59.6132 75.0702C60.2242 75.3537 60.8601 75.5874 61.4935 75.8192C61.6578 75.8794 61.8675 75.8158 62.0309 75.8774C62.3788 76.0227 62.7621 76.0616 63.1321 75.989L63.5424 76.1855C63.7801 76.1532 64.0062 76.0693 64.2102 76.1049C64.6682 76.1863 65.0819 76.0757 65.5117 75.9087C65.8102 76.0152 66.1089 75.9406 66.4079 75.8434C66.7848 75.7108 67.1701 75.6033 67.5611 75.5215C67.9014 75.4616 68.1481 75.3285 68.2692 74.9795C68.7027 74.9397 68.8892 74.6304 69.0097 74.2848L69.3572 74.0532C69.5437 73.7608 69.6956 73.5546 69.8246 73.3301C69.9535 73.1055 70.1061 72.9049 70.1127 72.6867C70.127 72.2764 70.3079 71.9509 70.479 71.6617C70.5297 71.2023 70.3075 70.9157 70.0017 70.6473L69.5838 70.5605Z" fill="#2C2C2C"/>
<path d="M35.6759 61.5117C35.1835 61.0356 34.8381 60.6922 34.4829 60.3593C33.9798 59.888 33.4631 59.4322 32.969 58.9518C32.8608 58.8466 32.8174 58.6692 32.751 58.5221C32.6893 58.3925 32.6641 58.2239 32.5671 58.1342C31.7194 57.3579 31.2189 56.3229 30.5254 55.4408C29.9564 54.7172 29.8085 53.9374 29.7865 53.127C29.768 52.4417 29.7958 51.6143 30.1567 51.098C30.5175 50.5816 30.8477 49.8896 31.6276 49.6761C32.1052 49.5444 32.4877 49.0874 32.9631 48.9142C33.7333 48.6479 34.5195 48.4303 35.3171 48.2627C35.9995 48.1065 36.7247 48.1064 37.2705 47.5525C37.3431 47.4792 37.5692 47.5447 37.7245 47.5632C38.0007 47.598 38.2765 47.6872 38.55 47.6772C39.0633 47.6662 39.5755 47.5977 40.0891 47.5641C40.8113 47.5168 41.5373 47.5143 42.2535 47.4237C42.6157 47.3745 42.8509 47.166 42.7005 46.6841C42.5786 46.2946 42.6196 45.8557 42.5744 45.4398C42.554 45.2819 42.5147 45.1269 42.4573 44.9783C42.4085 44.8435 42.2973 44.7252 42.2708 44.5885C42.1076 43.7622 41.9776 42.9313 41.8033 42.1065C41.642 41.3365 41.4383 40.587 41.2602 39.826C41.2354 39.7005 41.2245 39.5726 41.2276 39.4447C41.2184 38.8033 41.1471 38.1534 41.233 37.5206C41.304 37.1524 41.5093 36.8237 41.809 36.5984C42.2123 36.3105 42.7326 36.1933 43.1861 35.9676C43.5805 35.7726 43.9277 35.8555 44.3382 35.9456C45.223 36.1376 45.8609 36.7772 46.6696 37.1085C47.1873 37.3209 47.5436 37.8947 48.0226 38.2392C48.6496 38.6902 49.3329 39.0645 49.9791 39.4903C50.2381 39.6659 50.4803 39.8652 50.7026 40.0854C51.2688 40.6307 51.9806 40.6731 52.5737 40.1343C52.9556 39.8121 53.2962 39.444 53.5877 39.0382C54.002 38.4161 54.3323 37.7332 54.6892 37.0715C54.9595 36.563 55.2284 36.0444 55.4898 35.5292C55.5613 35.3894 55.677 35.2413 55.6744 35.098C55.6656 34.5007 56.0306 34.0981 56.3374 33.6502C56.855 32.8886 57.5146 32.1484 57.7565 31.2976C57.9983 30.4467 58.7046 30.0667 59.183 29.4914C59.6614 28.9162 61.5469 28.5297 62.4831 29.0247C62.7745 29.1797 63.0145 29.4468 63.2524 29.6905C63.6647 30.1187 64.3129 30.5261 64.3947 31.0195C64.5422 31.9046 65.3222 32.3744 65.5122 33.1812C65.552 33.3489 65.7019 33.4948 65.7928 33.6476C66.2155 34.3685 66.611 35.1056 67.0649 35.8064C67.4056 36.336 67.7921 36.8347 68.2201 37.2966C68.3418 37.426 68.7047 37.4321 68.9079 37.3626C69.5124 37.1571 70.0922 36.878 70.6867 36.6411C71.5585 36.2963 72.4235 35.9264 73.3105 35.627C74.1541 35.3415 75.0375 35.1739 75.876 34.8755C76.6086 34.6141 77.2878 34.2005 78.02 33.9358C78.5589 33.7392 79.1557 33.6682 79.7277 33.5486C79.9597 33.4989 80.2221 33.5153 80.424 33.4109C80.7412 33.2479 80.9943 33.2203 81.2318 33.5274C81.2813 33.5919 81.3997 33.6641 81.4653 33.6472C82.1687 33.4701 82.6581 33.9829 83.1264 34.2903C84.3309 35.078 85.1802 36.1323 84.9768 37.7404C84.888 38.4517 84.9313 39.1778 84.915 39.8984C84.9126 39.9892 84.9541 40.1114 84.9097 40.1673C84.1905 41.0853 84.6231 42.22 84.3239 43.2235C84.075 44.0719 83.9717 44.9683 83.7519 45.823C83.6185 46.348 83.7851 46.6828 84.3371 46.6655C84.8304 46.6493 85.3583 46.6296 85.8018 46.446C86.2655 46.254 86.6503 46.3544 87.0693 46.466C87.3466 46.5414 87.6217 46.6681 87.8998 46.6744C88.8393 46.6948 89.7845 46.6071 90.717 46.6839C91.5362 46.7513 92.3493 46.7822 93.178 47.044C93.9759 47.2964 94.4679 47.9106 95.1809 48.2289C95.4821 48.3644 95.7911 48.9062 95.7717 49.246C95.7299 50.004 96.2618 50.5878 96.2586 51.2795C96.256 51.9428 96.0874 52.6084 95.9632 53.2679C95.9359 53.4164 95.719 53.5352 95.7057 53.6785C95.6143 54.6706 94.8326 55.2034 94.29 55.8972C94.0298 56.2301 93.8197 56.5992 93.5488 56.9279C93.1785 57.3833 92.7806 57.8186 92.39 58.2575C91.7117 59.0184 91.0361 59.7822 90.3461 60.5322C89.8788 61.0393 89.3665 61.5071 88.9146 62.0279C88.5569 62.442 88.6921 63.2789 89.0755 63.6691C89.3144 63.9115 89.4763 64.2289 89.6918 64.4904C90.0492 64.9305 90.4105 65.3667 90.7922 65.7855C91.1738 66.2043 91.5875 66.6424 92.0198 67.043C92.6525 67.6357 93.345 68.1774 93.944 68.8053C94.5167 69.4063 94.9578 70.1382 95.5413 70.7185C95.9986 71.1779 96.2177 71.7579 96.3777 72.3018C96.6371 73.1863 96.7428 74.1551 96.1549 74.9738C95.9446 75.266 95.5449 75.4798 95.1923 75.599C94.3547 75.8792 93.4917 76.0803 92.639 76.3161C92.5007 76.3553 92.3673 76.4142 92.2286 76.4511C91.4639 76.6512 90.7082 76.8433 89.9491 77.0427C89.8663 77.0766 89.7854 77.1148 89.7067 77.1571C89.1948 77.3614 88.6812 77.5613 88.1695 77.7666C87.6245 77.9855 87.097 78.2745 86.5321 78.4135C85.8983 78.5698 85.3104 79.0219 84.6107 78.8184C84.2431 78.7111 84.1586 78.9217 84.1009 79.1875C84.0539 79.3431 84.0376 79.5063 84.053 79.668C84.2437 80.6128 84.472 81.5513 84.6462 82.4995C84.7171 82.8881 84.6842 83.2953 84.6953 83.6932C84.7168 84.3838 84.708 85.0762 84.7718 85.7622C84.7965 86.0348 85.0486 86.2834 85.0824 86.5571C85.1654 87.2337 85.2782 87.9141 84.9473 88.5836C84.7841 88.9147 84.7935 89.3252 84.6638 89.6777C84.0851 91.2464 82.9003 91.6846 81.5282 91.4616C80.7815 91.3369 80.0165 91.3187 79.2742 91.1764C78.9884 91.1213 78.7564 90.8214 78.4717 90.6994C77.9034 90.4554 77.4776 89.9612 76.7807 89.9111C76.3232 89.8749 75.8661 89.5829 75.4398 89.3434C74.6145 88.8899 73.7966 88.4082 72.9993 87.9023C72.3579 87.4951 71.7506 87.0392 71.1321 86.5927C70.4329 86.0847 70.1762 86.1434 69.8424 86.9004C69.7885 87.0365 69.703 87.1579 69.593 87.2545C69.0541 87.6762 68.7977 88.262 68.5554 88.8764C68.3741 89.2797 68.1622 89.6686 67.9216 90.0396C67.6541 90.4935 67.3485 90.9253 67.0981 91.3882C66.4646 92.5536 65.786 93.6788 64.7361 94.5275C64.2489 94.9218 63.7673 95.3233 63.2746 95.7104C63.1807 95.7668 63.0744 95.7991 62.965 95.8046C62.5206 95.865 62.083 95.9245 61.642 95.9844C60.1846 96.1826 59.0294 95.774 58.256 94.4208C57.9163 93.8278 57.4018 93.3388 57.0198 92.7674C56.7032 92.2946 56.4822 91.7589 56.1852 91.2721C55.989 90.9526 55.7916 90.5653 55.489 90.3949C54.9679 90.0992 54.8908 89.5565 54.5998 89.139C54.3905 88.8393 54.2597 88.4849 54.0969 88.1529C54.028 88.0495 53.9786 87.9342 53.9512 87.813C53.9042 87.1598 53.6209 87.0478 52.9975 86.7898C51.9876 86.3682 51.46 86.9649 50.814 87.4973C50.4438 87.8033 49.9675 87.9778 49.5566 88.234C48.8868 88.6418 48.2271 89.0652 47.5619 89.4815C47.4868 89.5279 47.4059 89.6158 47.3324 89.6077C46.448 89.5345 45.83 90.2068 45.0441 90.4257C44.6452 90.5376 44.2726 90.8258 43.9473 91.1042C43.2375 91.7087 42.4442 91.6989 41.6034 91.5723C41.3215 91.5291 40.9917 91.583 40.7612 91.4605C40.3744 91.2449 39.973 91.0721 40.0181 90.4053C40.061 89.5084 39.9807 88.61 39.7795 87.7349C39.6426 87.094 39.4992 86.5048 39.7712 85.8761C39.8177 85.7691 39.7019 85.5993 39.6903 85.4561C39.6689 85.1818 39.6788 84.9056 39.6552 84.6316C39.618 84.2 39.5572 83.7693 39.5187 83.3367C39.492 83.0405 39.4717 82.7412 39.4743 82.4444C39.4797 81.8927 39.56 81.3602 39.4088 80.7891C39.2508 80.1929 39.3242 79.5346 39.296 78.9027C39.2859 78.6619 39.2757 78.4201 39.2587 78.1791C39.2503 78.0671 39.1779 77.9424 39.2153 77.8592C39.4852 77.2568 39.0857 76.9061 38.6583 76.7504C38.0347 76.5316 37.3845 76.3977 36.7251 76.3526C35.8437 76.2857 34.9532 76.3344 34.067 76.3236C33.3814 76.315 32.6935 76.3146 32.01 76.2639C31.6787 76.2399 31.3541 76.1155 31.0297 76.0261C30.8733 75.9828 30.7247 75.8718 30.5696 75.8624C29.0746 75.8258 28.7956 75.3964 28.3845 74.2112C28.0959 73.3782 28.3624 72.4675 28.2693 71.6248C28.1353 70.4144 29.1602 69.973 29.5458 69.1309C29.9112 68.3323 30.4718 67.6202 30.9358 66.8727C31.014 66.7489 31.0641 66.5679 31.1765 66.513C32.046 66.0848 32.4438 65.2162 33.0605 64.5599C33.5155 64.0783 34.1316 63.7422 34.5566 63.2398C35.0243 62.7022 35.345 62.0409 35.6759 61.5117ZM38.6862 69.5072C38.9161 70.0416 39.1864 70.6904 39.4673 71.3333C39.897 72.3304 40.2613 73.3625 40.7773 74.3117C41.1763 75.0414 41.7479 75.6844 42.2829 76.3323C42.9748 77.1693 43.6745 78.0053 44.4317 78.7814C45.0612 79.4172 45.7364 80.006 46.4519 80.5432C47.0538 81.001 47.7315 81.3591 48.3768 81.7613C48.4385 81.7993 48.4998 81.8339 48.5637 81.8716C49.2292 82.2891 49.8687 82.7577 50.5669 83.1085C51.2201 83.436 51.9347 83.6409 52.6226 83.8993L55.0637 84.8119C55.1152 84.8286 55.1677 84.8423 55.2208 84.8527C55.9025 84.9988 56.5835 85.1483 57.2667 85.2885C57.6467 85.3813 58.0321 85.4506 58.4206 85.4959C58.9788 85.5411 59.6543 85.3417 60.0775 85.5919C60.7111 85.9583 61.3123 85.579 61.9363 85.7917C62.439 85.961 63.0929 85.6865 63.6796 85.6079C64.2472 85.5307 64.8148 85.4536 65.3825 85.3764C66.8465 85.1774 68.3213 85.0323 69.7671 84.7407C70.4277 84.6068 71.0375 84.1743 71.6735 83.8842C71.8057 83.8255 71.9451 83.7848 72.0881 83.7633C73.1298 83.6115 74.0273 83.098 74.9258 82.6003C75.4256 82.3242 75.8477 81.8923 76.3639 81.6615C77.4164 81.1892 78.3869 80.6307 79.1139 79.7116C79.1924 79.6358 79.2773 79.5667 79.3675 79.5052C79.8954 79.0442 80.4402 78.5991 80.9403 78.1091C81.1821 77.8737 81.303 77.5145 81.5432 77.2759C81.9938 76.8289 82.4982 76.4367 82.9646 76.0057C83.1073 75.8621 83.2283 75.6985 83.3239 75.5201C83.5599 75.1169 83.76 74.6915 84.0127 74.2951C84.4792 73.5653 85.0153 72.8736 85.4592 72.1277C86.0025 71.2143 86.1814 70.1424 86.695 69.1935C86.9789 68.6592 87.1401 68.0684 87.167 67.464C87.1693 66.1411 87.8868 64.9281 87.5888 63.5601C87.4331 62.847 87.6613 62.0546 87.6828 61.2971C87.6929 60.9472 87.7483 60.4227 87.5583 60.2811C87.2323 60.0392 87.3247 59.8694 87.3881 59.6039C87.4426 59.3804 87.5399 59.0063 87.4443 58.9356C87.067 58.6565 87.1649 58.2948 87.0952 57.932C86.9398 57.0578 86.6979 56.2013 86.3731 55.3749C85.9081 54.2434 85.3305 53.1567 84.7725 52.065C84.6447 51.8154 84.3681 51.6448 84.2142 51.4033C83.7642 50.6985 83.5687 49.8008 82.6788 49.4387C82.6202 49.415 82.5846 49.3282 82.5424 49.2672C82.0556 48.5245 81.5862 47.7681 80.8474 47.235C80.5047 46.9863 80.1485 46.7541 79.8263 46.4812C79.3316 46.0631 78.8851 45.5581 78.3559 45.1775C77.8539 44.8136 77.2747 44.5642 76.7432 44.2416C76.4189 44.0448 76.1412 43.7578 75.8054 43.593C75.2979 43.3385 74.7501 43.1708 74.233 42.9289C73.8336 42.7456 73.4705 42.3798 73.0651 42.3353C72.0601 42.2242 71.2284 41.5827 70.1814 41.5621C69.3283 41.5446 68.4853 41.2112 67.6268 41.079C67.0755 40.9933 66.5726 40.6815 65.9509 40.86C65.4774 40.9968 64.9444 40.9459 64.4368 40.9323C63.6636 40.9119 62.8918 40.8267 62.1194 40.8129C61.3934 40.7985 60.6663 40.834 59.9399 40.8671C59.725 40.8909 59.5133 40.9379 59.3085 41.0073C58.9444 41.1088 58.5635 41.3529 58.2233 41.3053C57.1855 41.1613 56.3431 41.7634 55.3955 41.942C54.844 42.0464 54.3149 42.3152 53.7952 42.5533C53.0667 42.8786 52.3573 43.2443 51.6336 43.5803C51.4315 43.661 51.2239 43.727 51.0123 43.7779C50.8915 43.795 50.7731 43.8255 50.6592 43.8689C50.1518 44.1642 49.641 44.4599 49.1552 44.7895C48.513 45.2253 47.8975 45.6993 47.261 46.1433C47.0539 46.2846 46.785 46.3449 46.6047 46.5086C45.9312 47.1217 45.275 47.754 44.6292 48.3961C44.3628 48.6586 44.1506 48.9782 43.8924 49.2509C43.4459 49.72 42.9519 50.1469 42.5372 50.6423C42.3253 50.8974 42.3162 51.4382 42.0841 51.5365C41.3171 51.8614 41.2625 52.6834 40.8907 53.2272C40.5189 53.771 40.2824 54.5363 39.9286 55.1795C39.7944 55.424 39.7829 55.7299 39.6736 55.9914C39.5345 56.3248 39.3075 56.6272 39.199 56.9689C38.9021 57.9144 38.7937 58.8896 38.3312 59.8146C37.9916 60.4954 38.0381 61.3953 38.013 62.2008C37.9944 62.7883 38.2011 63.3598 37.9204 63.9659C37.7945 64.2387 37.9867 64.6538 38.0187 65.0058C38.0676 65.5648 37.9781 66.18 38.1708 66.6821C38.5081 67.5651 38.7861 68.4199 38.6906 69.5066L38.6862 69.5072Z" fill="#FB5018"/>
<path d="M51.5204 44.3786C52.4653 44.1053 53.4321 44.1764 54.1527 43.4686C54.252 43.3669 54.4444 43.3339 54.6009 43.3036C54.9678 43.2311 55.3475 43.2111 55.7061 43.1115C56.3863 42.9217 57.0845 42.7566 57.7196 42.4599C58.5299 42.0793 59.3714 42.2194 60.2014 42.1326C61.1639 42.0312 62.1197 41.8718 63.0813 41.7547C63.2979 41.7467 63.5147 41.7609 63.7285 41.7968C63.8361 41.8059 63.9813 41.8755 64.0438 41.8274C64.792 41.2732 65.4245 41.7144 66.1183 41.9832C66.522 42.1399 67.0094 42.0884 67.4598 42.1142C67.9286 42.1421 68.3984 42.1529 68.8684 42.1728C68.9228 42.1661 68.978 42.1725 69.0293 42.1916C69.8721 42.7321 70.8564 42.8234 71.7895 43.0801C72.3396 43.2315 73.0168 43.2866 73.3857 43.6448C73.8861 44.13 74.7699 43.8402 75.0504 44.5974C75.9079 44.6878 76.4418 45.3529 77.115 45.7693C78.2776 46.4903 79.4487 47.1909 80.3116 48.3034C80.6319 48.7123 81.0744 49.038 81.458 49.4044C82.3296 50.2397 82.9505 51.2289 83.4106 52.3497C83.7577 53.1557 84.1845 53.9251 84.6845 54.6463C85.4109 55.7207 85.7678 56.9144 86.0553 58.1548C86.4635 59.9095 86.5784 61.695 86.5368 63.4859C86.5175 64.1764 86.2073 64.8736 86.2638 65.547C86.3256 66.2683 86.1199 66.8936 85.9471 67.545C85.842 67.8884 85.7155 68.2249 85.5682 68.5525C85.5287 68.6529 85.4141 68.742 85.4123 68.8373C85.3867 69.9054 84.7548 70.7244 84.2953 71.6139C84.0651 72.0592 83.79 72.4904 83.631 72.96C83.3501 73.7901 82.7776 74.3804 82.2101 74.9916C82.0672 75.1468 82.0004 75.3708 81.8669 75.5372C81.7002 75.7289 81.5219 75.9103 81.3332 76.0804C81.2561 76.1542 81.1004 76.1991 81.0861 76.2769C80.9045 77.2462 79.9102 77.455 79.3592 78.0876C78.6337 78.9171 77.6006 79.4739 76.7094 80.1584C76.4267 80.3756 76.1781 80.6357 75.8996 80.8591C75.7555 80.9675 75.6 81.0599 75.4359 81.1348C74.4726 81.6052 73.5367 82.1443 72.5348 82.5305C71.9726 82.7472 71.54 83.2846 70.7851 83.1327C70.3581 83.0459 69.8492 83.3221 69.3854 83.4644C68.6907 83.672 68.0064 83.9143 67.3182 84.1448C67.1981 84.1849 67.0878 84.2892 66.9689 84.2964C65.7275 84.369 64.4851 84.4179 63.2453 84.4937C62.7628 84.5231 62.284 84.638 61.8028 84.6514C61.0064 84.6816 60.2091 84.6714 59.4138 84.6209C59.0195 84.592 58.6258 84.2755 58.2507 84.313C57.0105 84.4193 55.9746 83.7728 54.8365 83.5236C54.18 83.3798 53.5648 83.2315 53.0083 82.8501C52.9171 82.7867 52.7507 82.8444 52.6393 82.7985C52.3528 82.6802 52.0763 82.5356 51.7997 82.3978C51.7232 82.3596 51.6705 82.2796 51.5905 82.2407C50.8991 81.8901 50.1887 81.5749 49.5241 81.1878C48.6256 80.6708 47.7556 80.0967 46.8726 79.5515C46.8086 79.5165 46.7492 79.4737 46.6957 79.4239C45.883 78.5886 45.0754 77.7492 44.2615 76.9141C43.8664 76.5039 43.4276 76.1224 43.06 75.6904C42.8481 75.4386 42.7428 75.0966 42.5793 74.8009C42.3713 74.4275 42.2131 74.0044 41.9285 73.7003C40.9619 72.6653 40.71 71.2865 40.1143 70.0755C39.8309 69.4944 39.5824 68.8969 39.3698 68.2863C39.2891 68.0585 39.316 67.7822 39.3385 67.5314C39.3816 67.0164 39.4149 66.5209 39.2804 65.9973C39.1668 65.5534 39.2488 65.058 39.247 64.5865C39.2464 64.5323 39.2885 64.4677 39.2669 64.4254C38.7011 63.4841 39.2939 62.5267 39.2791 61.5773C39.2684 60.8999 39.6463 60.2173 39.8394 59.5326C39.9412 59.223 40.0134 58.9044 40.0551 58.5812C40.1234 57.7936 40.337 57.0427 40.5585 56.2919C40.5874 56.1487 40.6424 56.0119 40.7208 55.8886C41.0463 55.4845 41.2731 55.0102 41.3833 54.5032C41.506 53.9661 41.9486 53.4941 42.2862 53.0228C42.8511 52.2265 43.4275 51.432 44.0297 50.669C44.5323 50.0099 45.0809 49.3871 45.6714 48.8054C46.1384 48.3629 46.7353 48.06 47.2547 47.6692C47.541 47.4538 47.7779 47.1738 48.0553 46.9426C48.4069 46.6493 48.7784 46.3782 49.1382 46.0951C49.3795 45.9062 49.615 45.7079 49.8577 45.521C49.9683 45.4358 50.1053 45.2871 50.2083 45.3036C51.0092 45.4278 51.3894 45.0039 51.5204 44.3786ZM79.6656 51.0159C79.3587 51.4966 79.0756 51.5611 78.685 51.2929C78.5424 51.1924 78.3 51.2072 78.1086 51.214C77.3814 51.2405 76.6561 51.3063 75.9889 50.8924C75.8714 50.819 75.6718 50.8733 75.511 50.8804C75.2331 50.8922 74.95 50.9567 74.679 50.9189C74.1984 50.8541 73.7306 50.7005 73.2493 50.6381C72.9069 50.6037 72.5618 50.6081 72.2204 50.6513C71.7 50.7016 71.1799 50.7701 70.6653 50.8627C69.8919 50.9995 69.0742 51.0598 68.3548 51.3431C67.5954 51.641 66.9411 52.196 66.2105 52.5804C65.3997 53.0075 64.9157 53.6751 64.5668 54.4873C64.5223 54.5531 64.4625 54.6072 64.3927 54.6451C64.3228 54.6829 64.2448 54.7034 64.1654 54.7048C63.7762 54.6718 63.3898 54.5093 63.0093 54.5226C62.3447 54.544 61.6834 54.6565 61.0208 54.7341C60.3057 54.8166 59.573 55.0441 58.8827 54.9513C58.0196 54.8356 57.1998 54.4311 56.3488 54.1961C55.711 54.0192 55.062 53.8855 54.4062 53.7961C53.8714 53.724 53.2452 53.5783 52.7987 53.7725C52.07 54.0877 51.2063 53.868 50.5521 54.44C50.374 54.5943 49.9641 54.4589 49.7424 54.592C48.4645 55.3619 47.1862 56.1364 45.9624 56.9873C45.4362 57.353 44.9623 57.595 44.3047 57.4932C43.832 57.4195 43.2731 57.7941 43.2794 58.1395C43.2894 58.7456 43.3253 59.3845 43.954 59.7233C44.6486 60.0972 45.0244 60.5315 45.214 61.4187C45.4398 62.4718 45.6724 63.6666 46.5786 64.4824C46.638 64.5365 46.6248 64.6639 46.6771 64.7326C47.0825 65.276 47.4071 65.9412 47.9283 66.3217C48.7765 66.935 49.6333 67.6116 50.7821 67.6737C51.1569 67.6929 51.5087 67.9834 51.8862 68.0893C53.1553 68.453 54.4167 68.0281 55.6835 68.0097C56.0466 67.9845 56.4032 67.9001 56.739 67.7599C57.4808 67.4905 58.0323 66.929 58.5923 66.4128C58.793 66.2248 58.848 65.8633 58.974 65.5837C59.0342 65.4285 59.1095 65.2796 59.1986 65.1391C59.4143 64.836 59.716 64.5755 59.8587 64.2438C60.0491 63.805 60.1369 63.319 60.2344 62.8464C60.273 62.6647 60.2197 62.4638 60.2173 62.2718C60.2142 62.1155 60.2213 61.9592 60.2386 61.8039C60.3243 61.1281 60.9627 60.5979 60.749 59.8327C60.7244 59.7433 60.8644 59.55 60.974 59.491C61.4315 59.2444 61.8042 58.8815 62.4214 58.8948C63.2305 58.9127 64.0499 59.281 64.4142 60.0132C64.5258 60.2396 64.6548 60.4569 64.8001 60.6633C65.144 61.146 65.5613 61.5859 65.8402 62.1058C66.2698 62.9027 66.9828 63.3454 67.7131 63.7654C68.4433 64.1854 69.2207 64.5696 69.9999 64.9252C70.4929 65.1478 71.0167 65.364 71.5458 65.4278C72.1287 65.4968 72.7327 65.3954 73.3269 65.3554C73.7047 65.33 74.1195 65.3607 74.4469 65.2223C74.9237 65.0183 75.3058 64.5829 75.9066 64.7331C75.9524 64.7344 75.9981 64.726 76.0405 64.7086C76.083 64.6911 76.1213 64.6649 76.153 64.6318C76.6003 64.1938 77.0426 63.752 77.4798 63.3064C77.6851 63.103 77.8751 62.8847 78.0483 62.6533C78.3842 62.1868 78.7617 61.7349 79.0041 61.2212C79.3581 60.4614 79.6575 59.6774 79.9003 58.8751C80.0789 58.3064 80.1844 57.7173 80.214 57.1219C80.2343 56.6055 80.0918 56.0818 80.0517 55.7863C80.6039 55.1886 81.0682 54.751 81.4457 54.2483C81.6114 54.0277 81.7238 53.6312 81.642 53.3878C81.4764 52.8972 81.2227 52.441 80.8933 52.0414C80.5787 51.6498 80.1265 51.3854 79.6656 51.0159ZM65.9573 75.7327L65.9522 75.695C66.1725 75.6797 66.3913 75.6477 66.6067 75.5992C67.0189 75.4775 67.4855 75.4062 67.8123 75.1638C68.2978 74.7973 68.7298 74.365 69.096 73.8794C69.45 73.4206 69.9198 73.0071 69.9314 72.3347C69.9565 72.0974 70.0468 71.8717 70.1923 71.6826C70.4666 71.2867 70.1629 71.1006 69.9255 70.9269C69.6421 70.7234 69.4534 70.8995 69.3375 71.1788C69.1112 71.7278 68.8503 72.2633 68.6565 72.827C68.3143 73.8465 67.2228 73.8897 66.5395 74.4725C65.8067 75.0993 64.7521 74.7811 63.847 74.9313C63.3028 75.0222 62.7102 74.8245 62.1393 74.7528C62.09 74.7362 62.0429 74.7137 61.999 74.6859C61.6109 74.5192 61.2121 74.3731 60.8365 74.1821C60.523 74.0233 60.1713 73.8664 59.951 73.6101C59.5811 73.1784 59.3351 72.6417 58.9678 72.204C58.7933 71.9935 58.4744 71.9034 58.2151 71.7599C58.0594 72.0124 57.9185 72.2737 57.7931 72.5425C57.7566 72.6311 57.8344 72.7959 57.9033 72.8952C58.2042 73.3272 58.4581 73.8221 58.8481 74.1526C59.3302 74.5611 59.9268 74.8386 60.4836 75.1566C60.6596 75.2556 60.849 75.3286 61.0459 75.3732C61.8898 75.5718 62.7296 75.8491 63.5848 75.915C64.3767 75.9815 65.1721 75.8067 65.96 75.7358L65.9573 75.7327Z" fill="#FEDC57"/>
</svg>
